<?xml version="1.0" encoding="UTF-8" standalone="no"?>
<svg
   xmlns:dc="http://purl.org/dc/elements/1.1/"
   xmlns:cc="http://creativecommons.org/ns#"
   xmlns:rdf="http://www.w3.org/1999/02/22-rdf-syntax-ns#"
   xmlns:svg="http://www.w3.org/2000/svg"
   xmlns="http://www.w3.org/2000/svg"
   xmlns:sodipodi="http://sodipodi.sourceforge.net/DTD/sodipodi-0.dtd"
   xmlns:inkscape="http://www.inkscape.org/namespaces/inkscape"
   width="624.24377"
   height="297.48627"
   id="svg2"
   version="1.1"
   inkscape:version="0.48.1 "
   sodipodi:docname="controlelement.svg">
  <sodipodi:namedview
     pagecolor="#ffffff"
     bordercolor="#666666"
     borderopacity="1"
     objecttolerance="10"
     gridtolerance="10"
     guidetolerance="10"
     inkscape:pageopacity="0"
     inkscape:pageshadow="2"
     inkscape:window-width="1280"
     inkscape:window-height="1004"
     id="namedview22"
     showgrid="false"
     fit-margin-top="0"
     fit-margin-left="0"
     fit-margin-right="0"
     fit-margin-bottom="0"
     inkscape:zoom="0.60625"
     inkscape:cx="301.60863"
     inkscape:cy="236.35803"
     inkscape:window-x="-8"
     inkscape:window-y="168"
     inkscape:window-maximized="1"
     inkscape:current-layer="g11" />
  <defs
     id="defs4">
    <filter
       id="filter3269"
       height="1.19363"
       y="-0.096819997"
       width="1.40565"
       x="-0.20282"
       color-interpolation-filters="sRGB">
      <feGaussianBlur
         id="feGaussianBlur3271"
         stdDeviation="10.94457" />
    </filter>
    <filter
       id="filter3371"
       height="1.13737"
       y="-0.068690002"
       width="1.2401"
       x="-0.12005"
       color-interpolation-filters="sRGB">
      <feGaussianBlur
         id="feGaussianBlur3373"
         stdDeviation="6.98822" />
    </filter>
    <filter
       color-interpolation-filters="sRGB"
       inkscape:collect="always"
       x="-0.13315918"
       width="1.2663183"
       y="-0.17460185"
       height="1.3492037"
       id="filter7676">
      <feGaussianBlur
         inkscape:collect="always"
         stdDeviation="4.2217398"
         id="feGaussianBlur7678" />
    </filter>
    <filter
       color-interpolation-filters="sRGB"
       inkscape:collect="always"
       id="filter7812">
      <feGaussianBlur
         inkscape:collect="always"
         stdDeviation="1.5536207"
         id="feGaussianBlur7814" />
    </filter>
  </defs>
  <metadata
     id="metadata7">image/svg+xml<rdf:RDF>
  <cc:Work
     rdf:about="">
    <dc:format>image/svg+xml</dc:format>
    <dc:type
       rdf:resource="http://purl.org/dc/dcmitype/StillImage" />
  </cc:Work>
</rdf:RDF>
</metadata>
  <g
     id="g11"
     transform="matrix(0.69272258,0,0,0.69272258,387.31951,-21.071341)">
    <title
       id="title13">Layer 1</title>
    <g
       display="inline"
       id="layer3"
       style="display:inline" />
    <path
       stroke-miterlimit="4"
       id="path3594"
       d="m 105.10701,169.61157 c 22.10966,29.89447 74.52142,45.14709 74.52084,75.62885 -4.6e-4,22.7041 8.70891,62.12396 -15.55557,81.04053 -16.10814,12.55811 -21.21136,22.3175 -68.62599,22.29199 0,58.42029 36.78424,74.93665 89.25055,74.93665 52.46622,0 89.25055,-16.51636 89.25055,-74.93665 -55.71219,0.0864 -49.62421,-7.67883 -69.79654,-22.01819 -21.85107,-15.53247 -14.38461,-61.67157 -14.38501,-81.31433 -5.8e-4,-30.48175 52.41119,-45.73438 74.52084,-75.62885 0,0 -40.3876,24.927 -80.18253,24.927 -39.79492,0 -78.99715,-24.927 -78.99715,-24.927 z"
       inkscape:connector-curvature="0"
       style="fill:#552200;fill-rule:nonzero;stroke-width:0.50000000000000000;stroke-linecap:round;stroke-miterlimit:4;stroke:#aa0000" />
    <path
       stroke-miterlimit="4"
       id="path3150"
       d="m 125.16193,121.86949 c -3.19003,11.91248 0.20413,36.19614 24.23929,74.52145 -42.94607,-21.73735 -51.13792,-63.09424 -42.95032,-83.03819 7.88762,-19.21313 27.01192,-36.19613 54.00684,-36.19613 -28.28769,16.18183 -32.31903,33.59682 -35.29581,44.71286 z"
       inkscape:connector-curvature="0"
       style="fill:#ffffff;stroke-width:5;stroke-linecap:round;stroke-miterlimit:4;filter:url(#filter3269);stroke:#aa0000" />
    <path
       stroke-miterlimit="4"
       d="m 120.90942,332.29523 c -7.69971,12.21637 -7.45039,27.67941 -4.67776,53.22964 -14.02903,-20.03403 -17.24236,-43.74585 -9.78075,-58.33969 7.29311,-14.26431 24.4604,-20.01431 57.40881,-48.97122 -13.82913,34.06693 -34.87053,41.26187 -42.9503,54.08127 z"
       id="path3273"
       inkscape:connector-curvature="0"
       style="fill:#ffffff;stroke-width:5;stroke-linecap:round;stroke-miterlimit:4;filter:url(#filter3371);stroke:#aa0000" />
    <rect
       stroke-miterlimit="4"
       rx="18.7815"
       ry="18.7815"
       y="32.918152"
       x="25.103729"
       height="28.914"
       width="314.41525"
       id="rect3563"
       style="fill:#800000;stroke:#aa0000;stroke-width:5;stroke-linecap:round;stroke-miterlimit:4" />
    <rect
       stroke-miterlimit="4"
       id="rect3163"
       width="314.41525"
       height="28.914"
       x="25.103729"
       y="428.44919"
       ry="18.7815"
       rx="18.7815"
       style="fill:#800000;stroke:#aa0000;stroke-width:5;stroke-linecap:round;stroke-miterlimit:4" />
    <path
       stroke-miterlimit="4"
       d="m 187.03854,427.20111 c 56.69174,0 103.35489,-20.20801 103.35489,-78.62817 0,-50.51184 -89.82581,-65.55615 -89.8266,-103.33252 -7.9e-4,-38.62805 89.8266,-52.78888 89.8266,-103.29956 0,-58.42017 -46.00485,-78.6283 -103.35489,-78.6283 -57.35004,0 -103.3549,20.20813 -103.3549,78.6283 0,50.51068 89.8274,64.67151 89.82661,103.29956 -7.9e-4,37.77637 -89.82661,52.82068 -89.82661,103.33252 0,58.42017 46.66315,78.62817 103.3549,78.62817 z"
       id="path3576"
       inkscape:connector-curvature="0"
       style="fill:none;stroke:#800000;stroke-width:8;stroke-linecap:round;stroke-miterlimit:4" />
  </g>
  <path
     inkscape:connector-curvature="0"
     style="fill:#000000;fill-rule:evenodd;stroke:#000000;stroke-width:0.67376906px;stroke-linecap:butt;stroke-linejoin:miter;stroke-opacity:1;display:inline"
     d="M 0.33688453,244.37156 C 2.1812745,236.05085 25.280385,225.32186 40.875565,217.74915 c 17.95094,-31.62432 46.033459,-54.18353 75.381855,-75.61012 -34.983585,5.26581 -67.957195,16.35033 -99.747095,38.34671 40.07697,-27.99233 81.814999,-51.07564 146.082705,-53.868 l 61.62864,-0.4565 c 14.40127,-3.49329 22.00541,-11.31203 29.9013,-18.9451 -2.83187,6.29884 -4.46587,12.271 -13.69525,20.31462 8.70882,-2.1596 13.75624,-6.93449 18.26034,-12.09747 -3.07781,4.43085 -3.4443,8.0483 -12.09748,14.15176 l 19.17336,-0.22826 c 17.18046,-4.11959 30.07185,-11.45599 42.45528,-19.17335 -7.1402,10.78604 -15.31791,16.40509 -23.28193,22.59717 27.36943,8.84601 45.51955,6.751 63.68293,-5.70636 -4.91591,5.09768 -10.07631,10.19536 -19.17336,15.29304 17.15331,1.58123 36.33272,-8.31867 55.23752,-16.66257 -9.99124,9.83382 -18.76497,20.11038 -35.15115,27.61877 32.44034,8.56511 48.13154,1.66948 65.28071,-3.88033 -7.52145,7.1194 -15.10982,14.20533 -27.3905,18.94511 25.20175,8.61393 38.26208,2.94383 53.63974,0 -8.12753,6.25325 -15.34013,13.00555 -29.9013,15.74954 17.17074,5.28213 33.03828,6.87184 46.56386,1.82603 -12.96642,11.90332 -28.04521,18.5257 -45.8791,18.26034 5.70409,7.09492 15.98682,9.86558 32.64035,6.61937 -12.11949,4.19984 -24.29546,8.32704 -44.73782,1.82603 l -3.42382,5.70636 c 13.11662,4.97383 17.52501,11.19168 22.36891,17.34733 -8.61524,-7.32144 -19.09667,-10.44397 -30.12955,-12.32573 -4.16854,4.16501 -6.05079,5.26169 -8.67366,7.07587 14.28035,5.4781 19.25007,10.95621 25.33622,16.43431 -10.34753,-6.02495 -20.69506,-10.24957 -31.04258,-11.41271 l -8.21715,4.33682 c 10.87,6.43043 16.76578,9.74497 24.4232,20.31463 -10.9968,-6.68724 -21.91672,-13.44545 -40.62925,-13.01048 l -17.80383,10.04318 c 7.11764,3.49246 13.94979,7.5559 19.85812,13.467 -16.66236,-9.16363 -33.17755,-12.95818 -53.18324,-4.79334 10.95174,5.95754 19.02182,14.43653 25.10796,24.65145 -12.64007,-11.1214 -26.01968,-18.37375 -41.08575,-20.99938 5.73478,4.33683 8.61656,8.67366 10.72795,13.01049 -12.12306,-9.98064 -26.90851,-13.45322 -44.50958,-10.04319 6.54142,3.79662 11.38916,7.7373 13.92351,13.92351 -15.87509,-13.93818 -42.72534,-15.85594 -71.21532,-15.9778 -36.81634,0.67003 -69.60913,-6.00215 -101.116606,-14.60827 -9.793079,-0.96592 -14.557669,1.21094 -19.629869,3.19556 -13.34211,2.04424 -26.65234,3.83349 -38.80322,-3.65207 -13.98402,-1.24703 -29.4220205,-3.05207 -31.69473047,-10.98156 z"
     id="path2261"
     sodipodi:nodetypes="ccccccccccccccccccccccccccccccccccccccccccccccc" />
  <path
     inkscape:connector-curvature="0"
     style="fill:#666666;fill-rule:evenodd;stroke:none;display:inline"
     d="m 40.933535,247.82073 c 6.7331,8.46503 18.18332,9.85437 29.67304,11.18446 5.12957,-1.4279 6.46609,-3.66861 19.401609,-3.42381 34.452616,9.2887 83.819976,11.69366 141.974126,10.04318 58.1247,3.35689 107.43173,-14.77928 146.0827,-58.88958 C 331.47145,185.46253 288.03721,160.79005 226.96072,155.60603 93.724364,138.43837 96.175044,237.62491 40.933535,247.82073 z"
     id="path2265"
     sodipodi:nodetypes="ccccccc" />
  <path
     inkscape:connector-curvature="0"
     style="opacity:0.89673899;fill:#999999;fill-opacity:1;fill-rule:evenodd;stroke:none;display:inline"
     d="m 51.889735,244.85343 c 10.04318,1.52169 19.4777,-0.91302 28.30352,0.91302 l 43.368305,15.52128 c -5.86315,3.21738 -34.866066,-7.7188 -38.803216,-5.4781 l -13.238749,2.73906 c -11.26183,-1.21392 -23.25933,-0.46606 -31.04257,-10.95621 l 11.41271,-2.73905 z"
     id="path2272"
     sodipodi:nodetypes="ccccccc" />
  <path
     inkscape:connector-curvature="0"
     style="fill:#808080;fill-rule:evenodd;stroke:none;display:inline"
     d="m 76.084685,230.24516 c 37.586945,-67.31392 86.058875,-77.94883 130.561405,-76.23691 60.72073,1.35932 111.07824,23.44508 159.77796,48.8464 -55.34875,85.77764 -274.954826,59.13186 -290.339365,27.39051 z"
     id="path2278"
     sodipodi:nodetypes="cccc" />
  <path
     inkscape:connector-curvature="0"
     style="fill:none;stroke:#000000;stroke-width:0.67376906px;stroke-linecap:butt;stroke-linejoin:miter;stroke-opacity:1;display:inline"
     d="m 76.997705,229.78865 c 0.15216,0 0.30433,0 0,0 z"
     id="path2276" />
  <path
     inkscape:connector-curvature="0"
     style="opacity:0.79891298;fill:#e6e6e6;fill-rule:evenodd;stroke:none;display:inline"
     d="M 89.779934,229.33214 C 131.60379,149.02771 306.09715,170.09373 340.85958,220.65848 302.513,284.12305 70.910795,258.69095 89.779934,229.33214 z"
     id="path2280"
     sodipodi:nodetypes="ccc" />
  <g
     transform="matrix(0.67376905,0,0,0.67376905,-13.958934,66.835059)"
     style="display:inline"
     id="g2413">
    <path
       transform="matrix(1.60987,0,0,1.51329,-128.612,-434.866)"
       d="m 374.00452,417.85684 c 0,37.60685 -33.36816,68.09322 -74.52988,68.09322 -41.16172,0 -74.52988,-30.48637 -74.52988,-68.09322 0,-37.60684 33.36816,-68.09321 74.52988,-68.09321 41.16172,0 74.52988,30.48637 74.52988,68.09321 z"
       sodipodi:ry="68.093216"
       sodipodi:rx="74.529884"
       sodipodi:cy="417.85684"
       sodipodi:cx="299.47464"
       id="path2283"
       style="fill:#000000;fill-rule:evenodd;stroke:#000000;stroke-width:1px;stroke-linecap:butt;stroke-linejoin:miter;stroke-opacity:1"
       sodipodi:type="arc" />
    <path
       transform="matrix(2.96492,0,0,3.42532,-751.055,-1270.47)"
       d="m 403.1389,428.3588 c 0,13.09691 -13.95396,23.71405 -31.16704,23.71405 -17.21308,0 -31.16704,-10.61714 -31.16704,-23.71405 0,-13.09692 13.95396,-23.71406 31.16704,-23.71406 17.21308,0 31.16704,10.61714 31.16704,23.71406 z"
       sodipodi:ry="23.714054"
       sodipodi:rx="31.167042"
       sodipodi:cy="428.3588"
       sodipodi:cx="371.97186"
       id="path3310"
       style="fill:#504416;fill-opacity:1;stroke:#000000;stroke-opacity:1;filter:url(#filter7676)"
       sodipodi:type="arc" />
    <path
       transform="matrix(1.19633,0,0,1.20137,-123.327,-300.65)"
       d="m 421.43262,408.70999 c 0,14.5937 -12.13388,26.42423 -27.10178,26.42423 -14.9679,0 -27.10178,-11.83053 -27.10178,-26.42423 0,-14.5937 12.13388,-26.42423 27.10178,-26.42423 14.9679,0 27.10178,11.83053 27.10178,26.42423 z"
       sodipodi:ry="26.424232"
       sodipodi:rx="27.101776"
       sodipodi:cy="408.70999"
       sodipodi:cx="394.33084"
       id="path4281"
       style="fill:#000000;stroke:none"
       sodipodi:type="arc" />
    <path
       inkscape:connector-curvature="0"
       sodipodi:nodetypes="ccccccc"
       id="path4285"
       d="m 391.78608,157.16074 c 14.5298,6.14801 17.6322,16.10515 21.68142,25.74668 14.16125,76.72787 -40.66829,88.50818 -69.78707,90.11341 -46.17242,-6.75197 -91.60944,-40.14929 -59.62391,-109.76219 2.41349,-6.50456 19.38477,-13.01739 27.77932,-12.87335 -33.36613,56.36026 1.13511,81.01202 30.4895,85.3706 42.37093,-0.31437 66.01392,-24.09948 49.46074,-78.59515 z"
       style="opacity:0.44021702;fill:#d5fff6;fill-opacity:1;fill-rule:evenodd;stroke:none" />
    <path
       inkscape:connector-curvature="0"
       sodipodi:nodetypes="cccc"
       id="path4287"
       d="m 298.96249,157.83828 c -14.83279,41.79875 -4.21843,61.96741 16.93861,73.1748 40.62695,18.42659 81.21996,1.95631 84.01551,-37.26495 -15.99631,66.34314 -125.5747,49.46527 -100.95412,-35.90985 z"
       style="fill:#d5fff6;fill-opacity:1;fill-rule:evenodd;stroke:none;filter:url(#filter7812)" />
    <g
       transform="matrix(1.0471,0,0,0.813144,-227.066,-21.5052)"
       id="g2246"
       style="fill:#ffffff;stroke:none;display:inline">
      <path
         inkscape:connector-curvature="0"
         style="fill:#ffffff;fill-rule:evenodd;stroke:none"
         d="m 508.02224,261.67934 -9.28406,-0.33382 -13.05571,2.99765 13.21396,-0.34439 9.12581,-2.31944 z"
         id="path9108" />
      <g
         style="fill:#ffffff;stroke:none"
         id="g9157">
        <path
           inkscape:connector-curvature="0"
           sodipodi:nodetypes="cccccc"
           style="fill:#ffffff;fill-rule:evenodd;stroke:none"
           d="m 566.73258,306.44537 -1.17417,9.27905 2.93543,13.25575 0.20843,-4.70621 0.37866,-8.54954 -2.34835,-9.27905 z"
           id="path9090" />
        <path
           inkscape:connector-curvature="0"
           style="fill:#ffffff;fill-rule:evenodd;stroke:none"
           d="m 532.12249,306.86912 -4.35457,8.2272 -1.90345,13.37973 5.20034,-12.13762 1.05768,-9.46931 z"
           id="path9092" />
        <path
           inkscape:connector-curvature="0"
           id="path9094"
           d="m 544.29582,310.84621 -1.17438,9.23418 2.93593,13.19168 0.58718,-13.19168 -2.34873,-9.23418 z"
           style="fill:#ffffff;fill-rule:evenodd;stroke:none" />
        <path
           inkscape:connector-curvature="0"
           id="path9084"
           d="m 516.9515,297.18907 -7.06869,6.05664 -6.67823,11.7491 9.28977,-9.38431 4.45715,-8.42143 z"
           style="fill:#ffffff;fill-rule:evenodd;stroke:none" />
        <path
           inkscape:connector-curvature="0"
           id="path9088"
           d="m 574.2663,299.66507 0.96871,8.7831 6.35216,10.46961 -2.55817,-12.05621 -4.7627,-7.1965 z"
           style="fill:#ffffff;fill-rule:evenodd;stroke:none" />
        <path
           inkscape:connector-curvature="0"
           style="fill:#ffffff;fill-rule:evenodd;stroke:none"
           d="m 580.72863,291.94055 4.6589,8.05878 10.32651,8.71798 -7.52325,-10.852 -7.46216,-5.92476 z"
           id="path9096" />
        <path
           inkscape:connector-curvature="0"
           style="fill:#ffffff;fill-rule:evenodd;stroke:none"
           d="m 509.59397,286.63183 -6.97824,6.13266 -7.43231,11.14442 9.36934,-9.32431 5.04121,-7.95277 z"
           id="path9098" />
        <path
           inkscape:connector-curvature="0"
           id="path9100"
           d="m 505.78712,277.56953 -8.50614,3.85194 -8.98697,10.30526 11.40361,-6.63792 6.0895,-7.51928 z"
           style="fill:#ffffff;fill-rule:evenodd;stroke:none" />
        <path
           inkscape:connector-curvature="0"
           style="fill:#ffffff;fill-rule:evenodd;stroke:none"
           d="m 506.39223,251.65549 -8.10142,-4.54668 -12.9797,-3.31128 11.90584,5.74267 9.17528,2.11529 z"
           id="path9102" />
        <path
           inkscape:connector-curvature="0"
           id="path9104"
           d="m 511.41741,238.4071 -6.0919,-7.03832 -11.78233,-6.61943 9.43063,9.24275 8.4436,4.415 z"
           style="fill:#ffffff;fill-rule:evenodd;stroke:none" />
        <path
           inkscape:connector-curvature="0"
           style="fill:#ffffff;fill-rule:evenodd;stroke:none"
           d="m 503.02107,273.51427 -9.33073,-0.12437 -12.85038,2.52146 13.21632,-0.4603 8.96479,-1.93679 z"
           id="path9110" />
      </g>
    </g>
  </g>
</svg>
