<svg width="83" height="83" xmlns="http://www.w3.org/2000/svg">
  <!-- Created with SVG-edit - http://svg-edit.googlecode.com/ -->
  <defs>
    <linearGradient y2="1" x2="1" y1="0" x1="0" id="svg_1">
      <stop stop-color="#0000ff" offset="0"/>
      <stop stop-color="#000064" offset="1"/>
    </linearGradient>
  </defs>
  <g>
    <title>Layer 1</title>
    <path fill="url(#svg_1)" stroke="#ffffff" stroke-width="0" stroke-dasharray="null" stroke-linejoin="null" stroke-linecap="null" d="m42.500004,6c-20.158379,0 -36.500004,16.343575 -36.500004,36.5c0,20.160324 16.341625,36.499985 36.500004,36.499985c20.160324,0 36.499996,-16.339661 36.499996,-36.499985c0,-20.156425 -16.339672,-36.5 -36.499996,-36.5zm11.877266,14.841492c2.345314,0 4.238205,3.724709 4.238205,8.315613s-1.898766,8.319244 -4.238205,8.319244c-2.34124,0 -4.240028,-3.724854 -4.240028,-8.315346s1.902634,-8.319511 4.240028,-8.319511zm-24.172211,0c2.341209,0 4.240021,3.724709 4.240021,8.315613s-1.896889,8.319244 -4.240021,8.319244s-4.238277,-3.724854 -4.238277,-8.315346s1.898846,-8.319511 4.238277,-8.319511zm12.34848,46.773575c-7.215607,0 -13.971428,-4.414505 -19.786476,-12.082138c6.020081,3.927597 12.609238,6.115837 19.522118,6.115837c7.342224,0 14.318367,-2.460442 20.631752,-6.867157c-5.939781,8.139366 -12.912071,12.833458 -20.367393,12.833458z" id="svg_5"/>
  </g>
</svg>