<svg width="130" height="170" xmlns="http://www.w3.org/2000/svg">
 <!-- Created with SVG-edit - http://svg-edit.googlecode.com/ -->
 <defs>
  <linearGradient id="svg_1" x1="0" y1="0" x2="1" y2="1">
   <stop offset="0" stop-color="#0000ff"/>
   <stop offset="1" stop-color="#000064"/>
  </linearGradient>
 </defs>
 <g>
  <title>Layer 1</title>
  <path id="svg_2" d="m101.877029,27.469353c-9.890076,-9.606775 -20.556694,-17.301182 -29.306862,-18.350343c-0.475792,-0.068141 -0.969238,-0.108211 -1.490479,-0.11901l-57.586096,0c-0.919422,0 -1.8258,0.356909 -2.472612,1.019922c-0.640328,0.646836 -1.020981,1.554322 -1.020981,2.479053l0,146.019397c0,0.918335 0.356905,1.797562 1.020981,2.466064c0.664213,0.658707 1.535984,1.015564 2.472612,1.015564l104.135763,0c0.919388,0 1.797546,-0.351501 2.461868,-1.015564c0.661835,-0.663101 1.031784,-1.542313 1.031784,-2.466064l0,-97.167114c-0.205643,-11.278854 -9.039932,-23.578712 -19.245979,-33.881905zm12.247963,127.53817l-97.150797,0l0,-139.033419l54.109896,0l0,0.011878c2.359993,-0.141682 4.395561,2.189132 5.955261,7.519261c1.416962,5.074829 1.773811,11.693079 1.769386,16.280195c0.010796,3.362541 -0.153473,5.619957 -0.153473,5.619957l-0.279053,3.696838l3.720726,0.04007c0.017159,0 8.596519,0.101608 17.011131,2.012726c8.086159,1.746834 14.408997,5.228539 14.999763,9.169834c0.021584,0.351601 0.027939,0.703072 0.021584,1.031788l0,93.650871l-0.004425,0z" stroke-linecap="null" stroke-linejoin="null" stroke-dasharray="null" stroke-width="0" stroke="#ffffff" fill="url(#svg_1)"/>
  <path id="svg_5" d="m66.36322,63.710251c-20.158379,0 -36.500002,16.343575 -36.500002,36.5c0,20.160324 16.341623,36.499985 36.500002,36.499985c20.160324,0 36.5,-16.339661 36.5,-36.499985c0,-20.156425 -16.339676,-36.5 -36.5,-36.5zm11.877266,14.841492c2.345314,0 4.238205,3.724709 4.238205,8.315613s-1.898766,8.319244 -4.238205,8.319244c-2.34124,0 -4.240028,-3.724854 -4.240028,-8.315346s1.902634,-8.319511 4.240028,-8.319511zm-24.172211,0c2.341209,0 4.240021,3.724709 4.240021,8.315613s-1.896889,8.319244 -4.240021,8.319244s-4.238277,-3.724854 -4.238277,-8.315346s1.898846,-8.319511 4.238277,-8.319511zm12.34848,46.773575c-7.215607,0 -13.971428,-4.414505 -19.786476,-12.082138c6.020081,3.927597 12.609238,6.115837 19.522118,6.115837c7.342224,0 14.318367,-2.460442 20.631752,-6.867157c-5.939781,8.139366 -12.912071,12.833458 -20.367393,12.833458z" stroke-linecap="null" stroke-linejoin="null" stroke-dasharray="null" stroke-width="0" stroke="#ffffff" fill="url(#svg_1)"/>
 </g>
</svg>