<svg width="450" height="490" xmlns="http://www.w3.org/2000/svg">
  <defs>
    <linearGradient y2="1" x2="1" id="svg_7">
      <stop offset="0" stop-opacity="0.996094" stop-color="#0000ff"/>
      <stop offset="1" stop-opacity="0.996094" stop-color="#000064"/>
    </linearGradient>
    <linearGradient y1="0" x1="0" y2="1" x2="1" id="svg_8">
      <stop offset="0" stop-opacity="0.996094" stop-color="#0000ff"/>
      <stop offset="1" stop-opacity="0.996094" stop-color="#000064"/>
    </linearGradient>
    <linearGradient y1="0" x1="0" y2="1" x2="1" id="svg_9">
      <stop offset="0" stop-opacity="0.992188" stop-color="#000000"/>
      <stop offset="1" stop-opacity="0.996094" stop-color="#000064"/>
    </linearGradient>
    <linearGradient y1="0" x1="0" y2="0" x2="1" id="svg_10">
      <stop offset="0" stop-opacity="0.992188" stop-color="#000000"/>
      <stop offset="1" stop-opacity="0.996094" stop-color="#000064"/>
    </linearGradient>
    <linearGradient y1="0" x1="0" y2="1" x2="1" id="svg_11">
      <stop offset="0" stop-opacity="0.992188" stop-color="#000000"/>
      <stop offset="1" stop-opacity="0.996094" stop-color="#000064"/>
    </linearGradient>
    <linearGradient y1="0" x1="0" y2="1" x2="1" id="svg_12">
      <stop offset="0" stop-opacity="0.992188" stop-color="#000000"/>
      <stop offset="1" stop-opacity="0.988281" stop-color="#640000"/>
    </linearGradient>
    <linearGradient y1="0" x1="0" y2="1" x2="1" id="svg_13">
      <stop offset="0" stop-opacity="0.992188" stop-color="#000000"/>
      <stop offset="1" stop-opacity="0.984375" stop-color="#000064"/>
    </linearGradient>
    <linearGradient y1="0" x1="0" y2="1" x2="1" id="svg_14">
      <stop offset="0" stop-opacity="0.992188" stop-color="#000000"/>
      <stop offset="1" stop-opacity="0.980469" stop-color="#000064"/>
    </linearGradient>
    <linearGradient y1="0" x1="0" y2="1" x2="1" id="svg_15">
      <stop offset="0" stop-opacity="0.992188" stop-color="#000000"/>
      <stop offset="1" stop-opacity="0.984375" stop-color="#000064"/>
    </linearGradient>
  </defs>
  <metadata id="metadata7">image/svg+xml</metadata>
  <g>
    <title>Layer 1</title>
    <g id="layer1">
      <path fill="#000096" fill-opacity="0.461187" fill-rule="nonzero" stroke="#0000fa" stroke-linecap="round" stroke-linejoin="round" stroke-miterlimit="4" d="m382.142822,219.857178a159.285706,159.285706 0 1 1 -318.571396,0a159.285706,159.285706 0 1 1 318.571396,0z" id="path3159"/>
      <path fill="#000096" fill-opacity="0.461187" fill-rule="nonzero" stroke="#0000fa" stroke-linecap="round" stroke-linejoin="round" stroke-miterlimit="4" d="m329.285706,219.857178a106.428574,106.428574 0 1 1 -212.857162,0a106.428574,106.428574 0 1 1 212.857162,0z" id="path3161"/>
      <path fill="#000096" fill-rule="nonzero" stroke="#0000fa" stroke-linecap="round" stroke-linejoin="round" stroke-miterlimit="4" d="m232.142838,219.857178a9.285712,9.285712 0 1 1 -18.571411,0a9.285712,9.285712 0 1 1 18.571411,0z" id="path3165"/>
      <path fill="#000096" fill-rule="evenodd" stroke="#0000fa" stroke-width="1px" id="path3189" d="m155.714279,219.857178l-130.714279,0"/>
      <path fill="#000096" fill-rule="evenodd" stroke="#0000fa" stroke-width="1px" id="path3191" d="m222.857132,152.714294l0,-130.714294"/>
      <path fill="#000096" fill-rule="evenodd" stroke="#0000fa" stroke-width="1px" id="path3193" d="m289.285706,219.857178l130.714325,0"/>
      <path fill="#000096" fill-rule="evenodd" stroke="#0000fa" stroke-width="1px" id="path3195" d="m222.857132,287.000031l0,130.714294"/>
    </g>
    <g id="svg_6">
      <polygon fill="url(#svg_15)" id="svg_5" points="223.463 218.002 222.837 216.924 222.924 217.594 222.385 217.185 223.01 218.266 247.032 408.101 290.864 357.205 356.031 470.079 365.304 464.726 365.757 464.465 375.028 459.112 309.863 346.237 375.853 333.724"/>
    </g>
  </g>
</svg>