<?xml version="1.0"?><svg width="793.7007874015749" height="1122.5196850393702" xmlns="http://www.w3.org/2000/svg">
 <title>hand</title>

 <metadata id="metadata7">image/svg+xmlSergio Luiz Araujo Silvahandcomputermousecursor</metadata>
 <g>
  <title>Layer 1</title>
  <g id="g3928">
   <path fill="#cccccc" fill-rule="nonzero" stroke-width="1.148979" d="m293.092133,184.266708c-32.305939,0 -62.251999,20.163437 -62.251999,48.18367a25.209249,21.12875 0 0 0 0,0.09758l1.916443,304.144547l-30.718185,-67.359833a25.209249,21.12875 0 0 0 -3.36792,-5.158936c-12.09285,-13.458252 -27.946045,-22.719574 -44.598572,-25.016968c-16.654297,-2.29892 -30.313049,0.951263 -43.49408,3.698425c-19.987717,4.166443 -31.453896,18.357971 -36.004387,31.733917c-4.323441,12.711212 -3.773041,26.42868 2.032722,39.714661l-0.058136,0l66.72258,195.85199a25.209249,21.12875 0 0 0 2.265228,4.575012l112.075073,166.8927l27.061401,76.316223a25.209249,21.12875 0 0 0 24.389252,15.087891l257.077057,-1.751587a25.209249,21.12875 0 0 0 24.447449,-16.841125l69.976074,-281.902222a25.209249,21.12875 0 0 0 0.232605,-1.021362c3.462219,-18.469299 2.230713,-49.515625 1.39325,-81.523987c-0.419678,-16.00415 -0.953735,-31.50061 -1.335205,-43.512146c-0.38324,-12.009949 -0.283325,-23.306458 -0.465088,-21.074585a25.209249,21.12875 0 0 0 0.058228,-1.458984l0,-94.471497a25.209249,21.12875 0 0 0 -0.581299,-4.574951c-3.044678,-11.496246 -7.308105,-22.317078 -17.072144,-31.781189c-9.0755,-8.796326 -25.079529,-14.337891 -40.126221,-13.628998l0,-0.193573c-0.692078,0 -1.34613,0.172211 -2.032715,0.193573c-0.461365,0.041168 -0.935608,-0.051819 -1.39325,0l0,0.146362c-10.50354,0.565582 -20.383789,3.568848 -28.512939,8.274963l0,-6.230621c0,-28.037018 -29.989746,-48.184723 -62.310059,-48.184723l-0.174438,0c-18.439941,0 -35.90448,6.726074 -47.675842,17.57135l0,-28.375458c0,-27.991272 -29.97702,-48.135986 -62.250183,-48.135986c-16.036652,0 -31.508362,4.951599 -43.030823,13.385071l0,-55.485535c0,-27.974518 -29.888062,-48.183823 -62.193878,-48.183823l0,0.000153z" id="path3926"/>
   <path fill="#999999" fill-rule="nonzero" stroke-width="1.148979" id="path3920" d="m304.818054,167.538574c-32.305847,0 -62.252014,20.163269 -62.252014,48.183517a25.209249,21.12875 0 0 0 0,0.097565l1.916534,304.144577l-30.720016,-67.359894a25.209249,21.12875 0 0 0 -3.36792,-5.158844c-12.09111,-13.458282 -27.944305,-22.719635 -44.598602,-25.017029c-16.652451,-2.29892 -30.31308,0.951294 -43.494072,3.698456c-19.985916,4.166412 -31.453896,18.357941 -36.002594,31.733917c-4.325256,12.711212 -3.773026,26.42865 2.030922,39.7146l-0.056305,0l66.722549,195.852051a25.209249,21.12875 0 0 0 2.263458,4.575012l112.076828,166.892639l27.061432,76.316284a25.209249,21.12875 0 0 0 24.389221,15.087952l257.077209,-1.751648a25.209249,21.12875 0 0 0 24.447388,-16.841125l69.974304,-281.900635a25.209249,21.12875 0 0 0 0.232544,-1.02301c3.464172,-18.467712 2.232544,-49.515625 1.395081,-81.523926c-0.419678,-16.004089 -0.953735,-31.50061 -1.337036,-43.512146c-0.38147,-12.009949 -0.281494,-23.306458 -0.464966,-21.07312a25.209249,21.12875 0 0 0 0.058044,-1.460449l0,-94.46994a25.209249,21.12875 0 0 0 -0.579407,-4.575043c-3.044678,-11.497711 -7.308105,-22.318573 -17.074036,-31.782654c-9.075562,-8.796387 -25.07959,-14.337921 -40.126221,-13.627472l0,-0.19516c-0.690308,0 -1.344238,0.172272 -2.032654,0.19516c-0.461426,0.039612 -0.933777,-0.053375 -1.393372,0l0,0.144836c-10.501587,0.565582 -20.381836,3.568817 -28.512817,8.274902l0,-6.23056c0,-28.037048 -29.987976,-48.183258 -62.30835,-48.183258l-0.174377,0c-18.440033,0 -35.906311,6.724579 -47.675842,17.569824l0,-28.375397c0,-27.991302 -29.978851,-48.135986 -62.251984,-48.135986c-16.034912,0 -31.508362,4.951538 -43.029053,13.385071l0,-55.48555c0,-27.974503 -29.889832,-48.183701 -62.193878,-48.183701l0,0.000183z"/>
   <g id="g3922">
    <path fill="#000000" fill-rule="nonzero" stroke="#000000" stroke-width="1.148979" stroke-miterlimit="4" stroke-dashoffset="0" id="path3917" d="m323.067291,161.972168c-31.581024,0 -60.855072,19.737198 -60.855072,47.164093a24.643751,20.681463 0 0 0 0,0.096054l1.872894,297.705063l-30.029709,-65.934448a24.643751,20.681463 0 0 0 -3.293411,-5.050629c-11.820374,-13.173157 -27.317535,-22.237854 -43.597656,-24.486481c-16.280075,-2.250122 -29.633636,0.931519 -42.5186,3.620667c-19.539024,4.078064 -30.749054,17.969269 -35.196014,31.061615c-4.227158,12.441437 -3.687637,25.869141 1.987312,38.874634l-0.05809,0l65.227501,191.705353a24.643751,20.681463 0 0 0 2.212616,4.477478l109.562653,163.360474l26.452911,74.700317a24.643751,20.681463 0 0 0 23.842438,14.7677l251.31134,-1.715027a24.643751,20.681463 0 0 0 23.898865,-16.482788l68.406555,-275.933838a24.643751,20.681463 0 0 0 0.227051,-1.001587c3.384338,-18.077454 2.181641,-48.466858 1.362366,-79.796753c-0.410522,-15.665649 -0.931885,-30.834412 -1.306091,-42.591309c-0.374146,-11.756927 -0.276062,-22.814087 -0.454041,-20.627991a24.643751,20.681463 0 0 0 0.056274,-1.429962l0,-92.469818a24.643751,20.681463 0 0 0 -0.566772,-4.477448c-2.977356,-11.253815 -7.144531,-21.846039 -16.690735,-31.110352c-8.872131,-8.610382 -24.516418,-14.03302 -39.226929,-13.339386l0,-0.190552c-0.674011,0 -1.315186,0.16922 -1.985596,0.190552c-0.452209,0.039673 -0.915405,-0.051788 -1.362366,0l0,0.143311c-10.267212,0.553406 -19.925903,3.492676 -27.873474,8.098145l0,-6.097961c0,-27.442474 -29.315735,-47.163361 -60.911377,-47.163361l-0.170715,0c-18.027649,0 -35.099701,6.582764 -46.605896,17.197845l0,-27.77478c0,-27.398254 -29.306671,-47.116074 -60.855042,-47.116074c-15.676971,0 -30.801697,4.84787 -42.066254,13.101517l0,-54.310181c0,-27.382217 -29.217712,-47.164093 -60.796936,-47.164093l0,0z"/>
    <path fill="#ffffff" fill-rule="nonzero" stroke="#000000" stroke-width="0.534572" stroke-miterlimit="4" stroke-dashoffset="0" id="rect3906" d="m323.041901,182.652725c-20.042267,0 -36.198761,11.801132 -36.198761,26.475906l2.156219,345.681c-0.564972,12.522156 -22.76886,14.741821 -26.954224,5.581177l-50.967484,-111.992523c-18.990402,-21.166107 -35.203278,-18.515045 -60.453552,-13.244843c-17.157516,3.58255 -24.262131,26.081085 -15.546219,44.202759l65.183929,191.706909l110.928741,165.409363l27.277588,76.904663l251.280518,-1.716553l68.439209,-275.959656c4.506897,-24.062744 -1.396912,-131.934479 -0.637573,-141.264435l0,-92.44693c-5.004639,-18.922028 -14.390869,-30.491394 -31.877197,-28.465393c-20.078491,0 -30.391113,13.790619 -30.391113,28.465393l0,91.500214c3.504089,12.403351 -26.765381,15.635223 -25.471985,-0.0625l0,-138.206177c0,-14.674805 -16.176514,-26.497284 -36.255066,-26.497284l-0.170715,0c-20.078552,0 -36.226013,11.822479 -36.226013,26.497284l0,110.992401c3.658539,13.417145 -35.855469,17.341125 -34.981689,-0.0625l0,-168.665649c0,-14.674805 -16.176575,-26.477417 -36.255127,-26.477417c-20.080322,0 -36.256836,11.802612 -36.256836,26.477417l0,177.294342c1.587616,12.299591 -29.650055,15.398895 -30.453003,-0.041199l0,-265.609863c0,-14.674774 -16.127472,-26.475906 -36.169647,-26.475906l0,0l0,0l0,0l0,0l0,0z"/>
   </g>
  </g>
  <g id="layer1"/>
 </g>
</svg>