<svg width="793.7007874015749" height="1122.5196850393702" xmlns="http://www.w3.org/2000/svg">
 <title>hand</title>
 <defs>
  <linearGradient id="svg_2">
   <stop offset="0" stop-color="#cccccc"/>
   <stop offset="1" stop-color="#333333"/>
  </linearGradient>
  <linearGradient y2="0" x2="1" y1="0" x1="0" id="svg_3">
   <stop offset="0" stop-color="#cccccc"/>
   <stop offset="1" stop-opacity="0.996094" stop-color="#0a0a0a"/>
  </linearGradient>
  <linearGradient y2="0" x2="1" y1="0" x1="0" id="svg_4">
   <stop offset="0" stop-color="#cccccc"/>
   <stop offset="1" stop-opacity="0.992188" stop-color="#969696"/>
  </linearGradient>
 </defs>
 <metadata id="metadata7">image/svg+xmlSergio Luiz Araujo Silvahandcomputermousecursor</metadata>
 <g>
  <title>Layer 1</title>
  <g id="g3922">
   <path stroke="#000000" d="m322.039276,211.797989c-19.213898,0 -34.702637,11.313385 -34.702637,25.381638l2.067108,331.393738c-0.541626,12.004639 -21.82782,14.132568 -25.840179,5.350525l-48.860977,-107.3638c-18.205521,-20.29129 -33.748306,-17.749786 -57.954971,-12.697418c-16.44838,3.434479 -23.259354,25.003143 -14.903671,42.375824l62.489822,183.783539l106.343994,158.572876l26.150177,73.726135l240.894897,-1.64563l65.610596,-264.554016c4.320618,-23.068237 -1.339172,-126.481506 -0.611206,-135.425873l0,-88.626038c-4.797791,-18.139984 -13.796082,-29.231171 -30.559692,-27.28891c-19.248657,0 -29.135071,13.220642 -29.135071,27.28891l0,87.718445c3.359253,11.890717 -25.659119,14.988983 -24.419189,-0.059937l0,-132.494019c0,-14.068268 -15.507935,-25.40213 -34.756592,-25.40213l-0.163696,0c-19.248688,0 -34.72876,11.333862 -34.72876,25.40213l0,106.405029c3.507324,12.862579 -34.373535,16.62439 -33.535858,-0.059937l0,-161.69458c0,-14.068268 -15.507996,-25.383087 -34.756683,-25.383087c-19.250397,0 -34.758331,11.314819 -34.758331,25.383087l0,169.966644c1.522003,11.79126 -28.424591,14.762451 -29.194336,-0.03949l0,-254.632019c0,-14.068253 -15.460938,-25.381638 -34.674744,-25.381638l0,0l0,0l0,0l0,0l0,0z" id="rect3906" stroke-dashoffset="0" stroke-miterlimit="4" fill-rule="nonzero" fill="#ffffff"/>
  </g>
  <g id="layer1"/>
 </g>
</svg>