<svg width="136" height="136" xmlns="http://www.w3.org/2000/svg">
 <defs>
  <radialGradient gradientTransform="matrix(1 0 0 1 0.4096 0)" r="105.1645" id="imagebot_20" gradientUnits="userSpaceOnUse" cy="1" cx="1">
   <stop stop-opacity="0.99609" stop-color="#f1f492" offset="0" id="imagebot_19"/>
   <stop stop-opacity="0.99609" stop-color="#cccc0a" offset="1" id="imagebot_18"/>
  </radialGradient>
 </defs>
 <g id="imagebot_2">
  <path fill="#67BA06" id="imagebot_17" d="M 52.0199 131.806 C 52.0199 134.411 80.6759 133.188 83.6219 132.623 C 88.5099 131.688 74.5389 129.501 73.3499 129.447 C 71.4409 129.362 52.0169 128.543 52.0199 131.806"/>
  <path fill="url(#imagebot_20)" id="imagebot_15" d="M 88.1675 126.635 C 88.1675 118.544 88.1675 110.451 88.1675 102.361 C 88.1675 98.3251 88.1675 94.2901 88.1675 90.2561 C 88.1675 87.9061 89.5205 88.7741 91.7665 88.7741 C 101.697 88.7741 111.63 88.7741 121.563 88.7721 C 124.622 88.7721 127.973 89.1711 130.652 87.3631 C 134.783 84.5721 134.292 79.9131 134.292 75.5981 C 134.292 68.9281 137.253 53.3401 130.649 48.8791 C 124.878 44.9811 112.182 47.4681 105.749 47.4681 C 102.816 47.4681 88.1705 49.2621 88.1705 45.9851 C 88.1705 36.3601 88.1705 26.7361 88.1685 17.1121 C 88.1685 9.16412 88.1455 1.34412 77.8195 1.34412 C 73.0785 1.34412 68.3375 1.34412 63.5935 1.34412 C 60.0805 1.34412 55.2615 0.575125 51.9095 1.99412 C 44.1885 5.26013 46.8625 19.3201 46.8625 25.8411 C 46.8625 27.5531 47.1345 47.4681 46.6135 47.4681 C 37.7545 47.4681 28.8965 47.4681 20.0375 47.4681 C 13.0095 47.4681 0.736489 45.5281 0.738489 56.0901 C 0.738489 64.2001 0.739489 72.3111 0.739489 80.4211 C 0.739489 91.0541 14.4065 88.7751 21.2975 88.7751 C 23.3695 88.7751 46.8625 88.5081 46.8625 89.0251 C 46.8625 99.0611 46.8635 109.096 46.8635 119.131 C 46.8635 122.379 46.2045 126.757 47.5115 129.852 C 49.7955 135.257 55.2075 134.898 60.0375 134.898 C 67.3985 134.896 88.1725 138.628 88.1675 126.635"/>
  <path fill="#ddea20" id="imagebot_14" d="M 7.25089 52.4001 C 9.85689 52.4001 8.63489 81.0561 8.06989 84.0031 C 7.13189 88.8921 4.94589 74.9201 4.89189 73.7321 C 4.80689 71.8251 3.98989 52.3971 7.25089 52.4001"/>
  <path fill="#e1e820" id="imagebot_13" d="M 131.423 52.4001 C 134.028 52.4001 132.808 81.0561 132.244 84.0031 C 131.306 88.8921 129.118 74.9201 129.064 73.7321 C 128.979 71.8251 128.165 52.3971 131.423 52.4001"/>
  <path fill="#b7b707" id="imagebot_12" d="M 52.5219 84.4871 C 55.1839 84.4901 53.8579 125.737 53.3269 129.54 C 52.9719 132.069 52.0409 131.812 51.5059 129.489 C 50.2849 124.188 50.2389 118.498 50.1159 113.089 C 50.0649 110.892 49.3279 84.4841 52.5219 84.4871"/>
  <path fill="#e3ea20" id="imagebot_11" d="M 90.7139 52.6651 C 90.7139 55.3201 126.588 53.9541 129.879 53.5511 C 131.439 53.3591 133.44 52.5681 130.856 51.7761 C 126.367 50.4031 121.244 50.4161 116.602 50.2761 C 114.51 50.2131 90.7139 49.4281 90.7139 52.6651"/>
  <path fill="#e3ea20" id="imagebot_10" d="M 7.25089 52.4001 C 7.25389 50.1491 49.8689 50.6011 49.8709 52.4011 C 49.8709 54.3261 7.25689 57.9801 7.25089 52.4001"/>
  <path fill="#eaea20" id="imagebot_9" d="M 52.0199 7.63312 C 52.0199 10.2391 80.6759 9.01513 83.6219 8.45113 C 88.5089 7.51612 74.5389 5.32813 73.3489 5.27413 C 71.4409 5.18913 52.0169 4.37112 52.0199 7.63312"/>
  <path fill="#e1e820" id="imagebot_8" d="M 51.6103 8.04272 C 49.3623 8.04272 49.8063 50.3447 51.6093 50.3447 C 53.5693 50.3457 57.1683 8.04272 51.6103 8.04272"/>
  <path fill="#eaea20" id="imagebot_7" d="M 84.7949 6.67112 C 82.5429 6.67112 83.5329 30.9191 83.5429 32.9061 C 83.5609 36.6151 83.1039 41.0671 84.2299 44.6711 C 85.0979 47.4511 86.4839 40.1601 86.5369 39.7491 C 86.9619 36.4131 89.8729 6.66512 84.7949 6.67112"/>
  <path fill="#b7b707" id="imagebot_6" d="M 84.7939 86.2057 C 82.8459 86.2007 83.5379 109.313 83.5379 111.32 C 83.5379 117.068 83.2709 122.924 83.8649 128.652 C 84.1929 131.827 85.3309 132.116 86.0359 128.863 C 86.7379 125.635 89.6079 86.1947 84.7939 86.2057"/>
  <path fill="#b1b707" id="imagebot_5" d="M 7.70089 83.7651 C 7.69789 81.5191 31.9509 82.5031 33.9349 82.5151 C 37.6459 82.5331 42.0969 82.0761 45.6999 83.2001 C 48.4819 84.0681 41.1879 85.4561 40.7799 85.5081 C 37.4459 85.9321 7.68989 88.8371 7.70089 83.7651"/>
  <path fill="#abb707" id="imagebot_4" d="M 86.9989 83.7691 C 86.9969 81.7981 109.218 82.5081 111.127 82.5081 C 116.874 82.5081 122.73 82.2451 128.459 82.8381 C 131.632 83.1661 131.924 84.3031 128.671 85.0101 C 125.434 85.7131 86.9989 88.6641 86.9989 83.7691"/>
  <path fill="#999409" id="imagebot_3" d="M 87.0329 3.06813 C 82.5079 -1.45588 72.5289 0.360125 66.7809 0.360125 C 59.8189 0.360125 48.5739 -1.56088 46.6609 7.74412 C 45.4419 13.6721 46.4729 20.6601 46.4729 26.6551 C 46.4729 33.2661 46.4729 39.8771 46.4729 46.4871 C 37.6399 46.4791 28.8079 46.4861 19.9739 46.4871 C 12.0089 46.4871 0.348889 44.9951 0.348889 56.5211 C 0.348889 64.3971 -0.436111 72.6781 0.348889 80.5121 C 0.348889 92.4321 16.2479 89.7551 23.9069 89.7551 C 26.6119 89.7551 46.4749 88.6591 46.4749 90.7421 C 46.4749 100.43 46.4749 110.12 46.4749 119.81 C 46.4749 128.779 47.8189 135.876 58.6419 135.876 C 63.5189 135.876 68.3969 135.876 73.2739 135.876 C 77.1829 135.878 82.1989 136.621 85.6229 134.332 C 92.2899 129.873 89.7409 116.317 89.7409 109.582 C 89.7409 104.554 89.7409 99.5261 89.7409 94.4961 C 89.7409 91.3851 88.6779 89.7541 91.9489 89.7541 C 101.921 89.7541 111.895 89.7541 121.866 89.7541 C 125.233 89.7541 128.841 90.1641 131.786 88.1731 C 136.25 85.1561 135.866 80.2701 135.866 75.5971 C 135.866 68.4321 138.827 52.8281 131.786 48.0671 C 128.841 46.0731 125.229 46.4851 121.866 46.4851 C 116.387 46.4851 110.91 46.4851 105.43 46.4851 C 100.936 46.4851 96.4429 46.4851 91.9489 46.4851 C 88.6779 46.4851 89.7409 44.8521 89.7409 41.7421 C 89.7409 31.7751 89.7409 21.8091 89.7409 11.8431 C 89.7399 8.60612 89.5099 5.54413 87.0329 3.06813 M 2.31189 80.5111 C 2.31189 72.5121 2.31089 64.5171 2.31089 56.5181 C 2.31089 46.1631 14.8129 48.4481 21.7209 48.4481 C 30.5449 48.4481 39.3679 48.4481 48.1909 48.4481 C 48.7009 48.4481 48.4349 28.6771 48.4349 26.9951 C 48.4349 21.0561 45.7209 6.40613 52.5169 3.06412 C 55.4349 1.62912 59.8229 2.32212 62.9389 2.32212 C 68.0969 2.32413 73.2529 2.32512 78.4099 2.32512 C 89.0559 2.32512 87.7779 11.5061 87.7779 19.2751 C 87.7779 28.6831 87.7779 38.0921 87.7779 47.5021 C 87.7779 50.8661 125.758 45.7031 131.173 50.0491 C 136.873 54.6271 133.902 70.3371 133.902 76.6391 C 133.902 80.6471 134.102 84.9441 129.819 87.0491 C 127.125 88.3721 123.187 87.7901 120.298 87.7901 C 110.375 87.7901 100.451 87.7901 90.5299 87.7901 C 88.4419 87.7901 87.7769 87.1421 87.7769 89.2441 C 87.7769 93.6661 87.7769 98.0891 87.7769 102.512 C 87.7769 110.339 88.7599 118.863 87.7769 126.636 C 87.7769 137.322 68.2939 133.913 61.7489 133.913 C 57.3929 133.911 51.9959 134.756 49.4019 130.268 C 47.8169 127.524 48.4349 123.336 48.4349 120.309 C 48.4349 109.953 48.4349 99.5971 48.4349 89.2441 C 48.4359 82.2711 2.29889 96.4881 2.31189 80.5111"/>
  <title>imagebot_2</title>
 </g>
 <metadata>image/svg+xmlOpen Clip Art LibraryArchitetto -- tasto 22010-03-28T09:23:50Drawing by Francesco 'Architetto' Rollandin. From OCAL 0.18 release.http://openclipart.org/detail/34693/architetto----tasto-2-by-anonymousAnonymousaddclip artclipartcrossgreeniconmathsplussignsymbol</metadata>
</svg>