<svg version="1.1" width="350" height="200" viewBox="0 0 350 200" xmlns:xlink="http://www.w3.org/1999/xlink" xmlns="http://www.w3.org/2000/svg">
  <desc>Created with Raven (http://www.aviary.com)</desc>
  <defs/>
  <g id="Layer_1A6B3A56-83B2-6FAB-B73A-67D5E752694B" opacity="1">
    <g id="Layer_5F488180-9095-28AF-4FF6-67D5E7BDEB56" opacity="1"/>
    <g id="Layer_3DC21395-F2E8-E498-1285-67D5E7E667E9" opacity="1">
      <path d="M2225 1253M2225 1253C2240 1216 2242 1200 2231 1200C2225 1200 2220 1191 2220 1180C2220 1167 2227 1160 2240 1160C2256 1160 2260 1167 2260 1196C2260 1215 2255 1240 2250 1251C2237 1275 2215 1277 2225 1253" id="ShapeObject_BFF966FA-CDAC-2B13-53EA-67D5E7FAE35B" stroke="none" style="fill:#000000;fill-opacity:1" transform="matrix(0.10000000894069672,0,0,0.10000000894069672,44,37)" opacity="1"/>
      <path d="M30 1084M30 1084C30 970 30 969 53 971C65 972 83 970 92 966C120 954 145 964 148 988C151 1008 148 1010 127 1005C87 995 70 1030 70 1122C70 1193 68 1200 50 1200C31 1200 30 1193 30 1084" id="ShapeObject_8D0B5ED8-1539-EDA1-4F67-67D5E840F23B" stroke="none" style="fill:#0000ff;fill-opacity:1" transform="matrix(0.10000000894069672,0,0,0.10000000894069672,44,37)" opacity="1"/>
      <path d="M223 1190M223 1190C168 1168 147 1056 187 1001C244 925 370 968 370 1065C370 1090 369 1090 290 1090C217 1090 210 1092 210 1109C210 1132 246 1160 274 1160C285 1160 303 1151 315 1140C328 1128 344 1122 353 1126C377 1135 374 1145 339 1174C307 1201 265 1207 223 1190M330 1043C330 1026 294 1000 272 1000C247 1000 210 1025 210 1042C210 1046 237 1050 270 1050C303 1050 330 1047 330 1043" id="ShapeObject_02FA628B-87FE-4D04-56A2-67D5E86EBD07" stroke="none" style="fill:#0000ff;fill-opacity:1" transform="matrix(0.10000000894069672,0,0,0.10000000894069672,44,37)" opacity="1"/>
      <path d="M440 1190M440 1190C429 1183 424 1157 421 1095C419 1031 415 1010 404 1010C396 1010 390 1001 390 990C390 979 397 970 405 970C415 970 420 960 420 942C420 926 428 910 440 902C459 891 460 892 460 930C460 963 463 970 480 970C493 970 500 977 500 990C500 1003 493 1010 480 1010C462 1010 460 1017 460 1073C460 1139 465 1153 493 1163C502 1166 510 1176 510 1185C510 1202 464 1206 440 1190" id="ShapeObject_FF391643-55C9-6EC1-78EB-67D5E89C369B" stroke="none" style="fill:#0000ff;fill-opacity:1" transform="matrix(0.10000000894069672,0,0,0.10000000894069672,44,37)" opacity="1"/>
      <path d="M560 1180M560 1180C543 1163 540 1147 540 1065C540 977 541 970 560 970C578 970 580 977 580 1053C580 1141 588 1160 625 1160C666 1160 680 1130 680 1047C680 977 682 970 700 970C719 970 720 977 720 1085C720 1193 719 1200 700 1200C689 1200 680 1193 680 1184C680 1170 678 1170 658 1184C627 1206 584 1204 560 1180" id="ShapeObject_283962D2-B9CF-CD41-F5F4-67D5E8B6C946" stroke="none" style="fill:#0000ff;fill-opacity:1" transform="matrix(0.10000000894069672,0,0,0.10000000894069672,44,37)" opacity="1"/>
      <path d="M780 1084M780 1084C780 970 780 969 803 971C815 972 833 970 842 966C870 954 895 964 898 988C901 1008 898 1010 877 1005C837 995 820 1030 820 1122C820 1193 818 1200 800 1200C781 1200 780 1193 780 1084" id="ShapeObject_EE8E8A7C-BE27-F05A-55C3-67D5E8D7B582" stroke="none" style="fill:#0000ff;fill-opacity:1" transform="matrix(0.10000000894069672,0,0,0.10000000894069672,44,37)" opacity="1"/>
      <path d="M930 1085M930 1085C930 977 931 970 950 970C961 970 970 975 970 981C970 986 980 984 992 976C1023 954 1066 956 1090 980C1107 997 1110 1013 1110 1100C1110 1193 1109 1200 1090 1200C1072 1200 1070 1193 1070 1112C1070 1019 1062 1000 1024 1000C986 1000 970 1036 970 1122C970 1193 968 1200 950 1200C931 1200 930 1193 930 1085" id="ShapeObject_5CA76BB9-E2B9-33E6-1F61-67D5E9044087" stroke="none" style="fill:#0000ff;fill-opacity:1" transform="matrix(0.10000000894069672,0,0,0.10000000894069672,44,37)" opacity="1"/>
      <path d="M1300 1105M1300 1105C1300 1027 1297 1010 1285 1010C1277 1010 1270 1001 1270 990C1270 979 1277 970 1285 970C1294 970 1300 961 1300 945C1300 909 1333 880 1374 880C1403 880 1407 883 1403 900C1400 913 1389 920 1375 920C1354 920 1340 937 1340 961C1340 966 1351 970 1365 970C1383 970 1390 975 1390 990C1390 1005 1383 1010 1365 1010C1340 1010 1340 1010 1340 1105C1340 1193 1339 1200 1320 1200C1301 1200 1300 1193 1300 1105" id="ShapeObject_9AD25C84-97EA-4123-FA43-67D5E9279FB8" stroke="none" style="fill:#ff0000;fill-opacity:1" transform="matrix(0.10000000894069672,0,0,0.10000000894069672,44,37)" opacity="1"/>
      <path d="M1422 1184M1422 1184C1394 1165 1392 1110 1418 1087C1428 1078 1461 1067 1490 1063C1532 1057 1546 1050 1548 1036C1556 998 1484 986 1452 1020C1429 1045 1400 1037 1407 1009C1419 964 1528 943 1568 978C1585 992 1589 1010 1593 1098C1597 1192 1596 1200 1578 1200C1568 1200 1560 1193 1560 1185C1560 1171 1557 1171 1530 1185C1493 1204 1450 1204 1422 1184M1528 1144C1555 1125 1559 1086 1533 1093C1523 1096 1498 1101 1478 1105C1451 1109 1440 1116 1440 1129C1440 1139 1443 1150 1447 1153C1459 1165 1505 1160 1528 1144" id="ShapeObject_811BAFAF-AB7A-8D44-1791-67D5E94136F4" stroke="none" style="fill:#ff0000;fill-opacity:1" transform="matrix(0.10000000894069672,0,0,0.10000000894069672,44,37)" opacity="1"/>
      <path d="M1650 1040M1650 1040C1650 887 1651 880 1670 880C1689 880 1690 887 1690 1040C1690 1193 1689 1200 1670 1200C1651 1200 1650 1193 1650 1040" id="ShapeObject_92798D31-7177-FEED-A04C-67D5E96391BC" stroke="none" style="fill:#ff0000;fill-opacity:1" transform="matrix(0.10000000894069672,0,0,0.10000000894069672,44,37)" opacity="1"/>
      <path d="M1774 1188M1774 1188C1762 1183 1748 1168 1742 1155C1727 1122 1756 1112 1785 1140C1807 1161 1845 1166 1869 1151C1893 1136 1873 1112 1828 1100C1764 1083 1740 1064 1740 1030C1740 980 1789 951 1852 964C1889 971 1910 987 1910 1007C1910 1028 1882 1034 1864 1015C1843 994 1786 998 1782 1022C1780 1034 1793 1042 1837 1055C1910 1076 1920 1085 1920 1125C1920 1186 1839 1220 1774 1188" id="ShapeObject_5DA4F572-C71D-1EAE-FD0E-67D5E985D4E0" stroke="none" style="fill:#ff0000;fill-opacity:1" transform="matrix(0.10000000894069672,0,0,0.10000000894069672,44,37)" opacity="1"/>
      <path d="M2013 1190M2013 1190C1958 1168 1937 1056 1977 1001C2034 925 2160 968 2160 1065C2160 1090 2159 1090 2080 1090C2007 1090 2000 1092 2000 1109C2000 1132 2036 1160 2064 1160C2075 1160 2093 1151 2105 1140C2118 1128 2134 1122 2143 1126C2167 1135 2164 1145 2129 1174C2097 1201 2055 1207 2013 1190M2120 1043C2120 1026 2084 1000 2062 1000C2037 1000 2000 1025 2000 1042C2000 1046 2027 1050 2060 1050C2093 1050 2120 1047 2120 1043" id="ShapeObject_82FC18B5-C735-B7A8-EB42-67D5E9AED733" stroke="none" style="fill:#ff0000;fill-opacity:1" transform="matrix(0.10000000894069672,0,0,0.10000000894069672,44,37)" opacity="1"/>
      <path d="M2220 990M2220 990C2220 977 2227 970 2240 970C2253 970 2260 977 2260 990C2260 1003 2253 1010 2240 1010C2227 1010 2220 1003 2220 990" id="ShapeObject_DE17A9BE-04A6-282D-1102-67D5E9CF368D" stroke="none" style="fill:#000000;fill-opacity:1" transform="matrix(0.10000000894069672,0,0,0.10000000894069672,44,37)" opacity="1"/>
      <path d="M2655 813M2655 813C2670 776 2672 760 2661 760C2655 760 2650 751 2650 740C2650 727 2657 720 2670 720C2686 720 2690 727 2690 756C2690 775 2685 800 2680 811C2667 835 2645 837 2655 813" id="ShapeObject_A13802B3-348D-4E08-03A6-67D5E9E7F79C" stroke="none" style="fill:#000000;fill-opacity:1" transform="matrix(0.10000000894069672,0,0,0.10000000894069672,44,37)" opacity="1"/>
      <path d="M630 644M630 644C630 530 630 529 653 531C665 532 683 530 692 526C720 514 745 524 748 548C751 568 748 570 727 565C687 555 670 590 670 682C670 753 668 760 650 760C631 760 630 753 630 644" id="ShapeObject_551793EB-BFDA-655A-AF75-67D5EA09E528" stroke="none" style="fill:#0000ff;fill-opacity:1" transform="matrix(0.10000000894069672,0,0,0.10000000894069672,44,37)" opacity="1"/>
      <path d="M823 750M823 750C768 728 747 616 787 561C844 485 970 528 970 625C970 650 969 650 890 650C817 650 810 652 810 669C810 692 846 720 874 720C885 720 903 711 915 700C928 688 944 682 953 686C977 695 974 705 939 734C907 761 865 767 823 750M930 603C930 586 894 560 872 560C847 560 810 585 810 602C810 606 837 610 870 610C903 610 930 607 930 603" id="ShapeObject_BBF648B5-3A23-621E-504F-67D5EA2ABCFB" stroke="none" style="fill:#0000ff;fill-opacity:1" transform="matrix(0.10000000894069672,0,0,0.10000000894069672,44,37)" opacity="1"/>
      <path d="M1040 750M1040 750C1029 743 1024 717 1021 655C1019 591 1015 570 1004 570C996 570 990 561 990 550C990 539 997 530 1005 530C1015 530 1020 520 1020 502C1020 486 1028 470 1040 462C1059 451 1060 452 1060 490C1060 523 1063 530 1080 530C1093 530 1100 537 1100 550C1100 563 1093 570 1080 570C1062 570 1060 577 1060 633C1060 699 1065 713 1093 723C1102 726 1110 736 1110 745C1110 762 1064 766 1040 750" id="ShapeObject_ACECDDBB-691C-503C-9F17-67D5EA4F704A" stroke="none" style="fill:#0000ff;fill-opacity:1" transform="matrix(0.10000000894069672,0,0,0.10000000894069672,44,37)" opacity="1"/>
      <path d="M1160 740M1160 740C1143 723 1140 707 1140 625C1140 537 1141 530 1160 530C1178 530 1180 537 1180 613C1180 701 1188 720 1225 720C1266 720 1280 690 1280 607C1280 537 1282 530 1300 530C1319 530 1320 537 1320 645C1320 753 1319 760 1300 760C1289 760 1280 753 1280 744C1280 730 1278 730 1258 744C1227 766 1184 764 1160 740" id="ShapeObject_11DA6232-763E-4BA9-17CB-67D5EA6EEA51" stroke="none" style="fill:#0000ff;fill-opacity:1" transform="matrix(0.10000000894069672,0,0,0.10000000894069672,44,37)" opacity="1"/>
      <path d="M1380 644M1380 644C1380 530 1380 529 1403 531C1415 532 1433 530 1442 526C1470 514 1495 524 1498 548C1501 568 1498 570 1477 565C1437 555 1420 590 1420 682C1420 753 1418 760 1400 760C1381 760 1380 753 1380 644" id="ShapeObject_0D14A799-28CD-6CE8-CA88-67D5EA8E81A1" stroke="none" style="fill:#0000ff;fill-opacity:1" transform="matrix(0.10000000894069672,0,0,0.10000000894069672,44,37)" opacity="1"/>
      <path d="M1530 645M1530 645C1530 537 1531 530 1550 530C1561 530 1570 535 1570 541C1570 546 1580 544 1592 536C1623 514 1666 516 1690 540C1707 557 1710 573 1710 660C1710 753 1709 760 1690 760C1672 760 1670 753 1670 672C1670 579 1662 560 1624 560C1586 560 1570 596 1570 682C1570 753 1568 760 1550 760C1531 760 1530 753 1530 645" id="ShapeObject_50BAC827-AFF9-2D22-E3BD-67D5EAAFCB60" stroke="none" style="fill:#0000ff;fill-opacity:1" transform="matrix(0.10000000894069672,0,0,0.10000000894069672,44,37)" opacity="1"/>
      <path d="M1910 750M1910 750C1899 743 1894 717 1891 655C1889 591 1885 570 1874 570C1866 570 1860 561 1860 550C1860 539 1867 530 1875 530C1885 530 1890 520 1890 502C1890 486 1898 470 1910 462C1929 451 1930 452 1930 490C1930 523 1933 530 1950 530C1963 530 1970 537 1970 550C1970 563 1963 570 1950 570C1932 570 1930 577 1930 633C1930 699 1935 713 1963 723C1972 726 1980 736 1980 745C1980 762 1934 766 1910 750" id="ShapeObject_F206B7A6-655D-51C9-1CF8-67D5EAD16672" stroke="none" style="fill:#ff0000;fill-opacity:1" transform="matrix(0.10000000894069672,0,0,0.10000000894069672,44,37)" opacity="1"/>
      <path d="M2010 644M2010 644C2010 530 2010 529 2033 531C2045 532 2063 530 2072 526C2100 514 2125 524 2128 548C2131 568 2128 570 2107 565C2067 555 2050 590 2050 682C2050 753 2048 760 2030 760C2011 760 2010 753 2010 644" id="ShapeObject_EB46F202-6271-8D87-C399-67D5EAF3AE1E" stroke="none" style="fill:#ff0000;fill-opacity:1" transform="matrix(0.10000000894069672,0,0,0.10000000894069672,44,37)" opacity="1"/>
      <path d="M2180 740M2180 740C2163 723 2160 707 2160 625C2160 537 2161 530 2180 530C2198 530 2200 537 2200 613C2200 701 2208 720 2245 720C2286 720 2300 690 2300 607C2300 537 2302 530 2320 530C2339 530 2340 537 2340 645C2340 753 2339 760 2320 760C2309 760 2300 753 2300 744C2300 730 2298 730 2278 744C2247 766 2204 764 2180 740" id="ShapeObject_D3F0DA28-6CB6-F782-31D1-67D5EB1435FF" stroke="none" style="fill:#ff0000;fill-opacity:1" transform="matrix(0.10000000894069672,0,0,0.10000000894069672,44,37)" opacity="1"/>
      <path d="M2443 750M2443 750C2388 728 2367 616 2407 561C2464 485 2590 528 2590 625C2590 650 2589 650 2510 650C2437 650 2430 652 2430 669C2430 692 2466 720 2494 720C2505 720 2523 711 2535 700C2548 688 2564 682 2573 686C2597 695 2594 705 2559 734C2527 761 2485 767 2443 750M2550 603C2550 586 2514 560 2492 560C2467 560 2430 585 2430 602C2430 606 2457 610 2490 610C2523 610 2550 607 2550 603" id="ShapeObject_CEFD04A3-FF66-C3AB-7DBD-67D5EB35BB58" stroke="none" style="fill:#ff0000;fill-opacity:1" transform="matrix(0.10000000894069672,0,0,0.10000000894069672,44,37)" opacity="1"/>
      <path d="M2650 550M2650 550C2650 537 2657 530 2670 530C2683 530 2690 537 2690 550C2690 563 2683 570 2670 570C2657 570 2650 563 2650 550" id="ShapeObject_76116382-452A-E354-2358-67D5EB68B589" stroke="none" style="fill:#000000;fill-opacity:1" transform="matrix(0.10000000894069672,0,0,0.10000000894069672,44,37)" opacity="1"/>
      <path d="M30 205M30 205C30 97 31 90 50 90C69 90 70 97 70 205C70 313 69 320 50 320C31 320 30 313 30 205" id="ShapeObject_4BE5743B-8741-2016-F1CC-67D5EC2FDB80" stroke="none" style="fill:#0000ff;fill-opacity:1" transform="matrix(0.10000000894069672,0,0,0.10000000894069672,44,37)" opacity="1"/>
      <path d="M140 225M140 225C140 147 137 130 125 130C117 130 110 121 110 110C110 99 117 90 125 90C134 90 140 81 140 65C140 29 173 0 214 0C243 0 247 3 243 20C240 33 229 40 215 40C194 40 180 57 180 81C180 86 191 90 205 90C223 90 230 95 230 110C230 125 223 130 205 130C180 130 180 130 180 225C180 313 179 320 160 320C141 320 140 313 140 225" id="ShapeObject_C22EE5F7-95B0-5901-2BCB-67D5EC522544" stroke="none" style="fill:#0000ff;fill-opacity:1" transform="matrix(0.10000000894069672,0,0,0.10000000894069672,44,37)" opacity="1"/>
      <path d="M30 20M30 20C30 7 37 0 50 0C63 0 70 7 70 20C70 33 63 40 50 40C37 40 30 33 30 20" id="ShapeObject_A724D936-DFFD-5C1E-9FD2-67D5EE02B42B" stroke="none" style="fill:#0000ff;fill-opacity:1" transform="matrix(0.10000000894069672,0,0,0.10000000894069672,44,37)" opacity="1"/>
      <g id="Layer_9C54854D-DB6C-CCF3-3F15-67D8867F7642" opacity="1"/>
    </g>
    <g id="Layer_609B8697-768F-7C3E-474D-67D5EE3446C6" opacity="1">
      <g id="Layer_FC7641CE-A586-6086-3894-67D5EE458250" opacity="1"/>
    </g>
    <g id="Layer_8EE2DDE3-E0F8-DD5A-244C-67D5EE889B21" opacity="1">
      <g id="Layer_BB975E2A-FADF-A299-67B9-67D5EE970BB3" opacity="1"/>
    </g>
  </g>
  <g id="Layer_9AB63273-B039-FD55-E553-67DA8E857447" opacity="1"/>
  <g id="Layer_94772C1B-0FE9-4D9F-1658-67DB86CE6280" opacity="1">
    <path d="M82 374M82 374C13 267 13 143 82 36C94 16 111 0 118 0C134 0 134 0 103 61C78 108 75 125 75 205C75 284 78 302 103 348C134 410 134 410 118 410C111 410 94 394 82 374" id="ShapeObject_7F02DF98-EAF4-15A0-B5E7-67DB86D11A32" stroke="none" style="fill:#000000;fill-opacity:1" transform="matrix(0.10000000894069672,0,0,0.10000000894069672,75,35)" opacity="1"/>
    <path d="M1168 353M1168 353C1191 303 1195 282 1195 205C1195 127 1191 107 1168 60C1153 30 1143 4 1145 2C1157 -11 1181 15 1209 71C1235 123 1240 145 1240 206C1240 268 1235 287 1207 342C1189 376 1167 406 1157 408C1143 411 1145 403 1168 353" id="ShapeObject_5CFACB45-7BE4-4A49-CB93-67DB86D20FC6" stroke="none" style="fill:#000000;fill-opacity:1" transform="matrix(0.10000000894069672,0,0,0.10000000894069672,75,35)" opacity="1"/>
    <path d="M240 300M240 300C240 285 247 280 265 280C283 280 290 285 290 300C290 315 283 320 265 320C247 320 240 315 240 300" id="ShapeObject_033DB8F2-D36C-D0BD-0F00-67DB86D298CD" stroke="none" style="fill:#000000;fill-opacity:1" transform="matrix(0.10000000894069672,0,0,0.10000000894069672,75,35)" opacity="1"/>
    <path d="M480 300M480 300C480 285 487 280 505 280C523 280 530 285 530 300C530 315 523 320 505 320C487 320 480 315 480 300" id="ShapeObject_BB50DE75-7877-4F74-9D22-67DB86D2163D" stroke="none" style="fill:#000000;fill-opacity:1" transform="matrix(0.10000000894069672,0,0,0.10000000894069672,75,35)" opacity="1"/>
    <path d="M720 300M720 300C720 285 727 280 745 280C763 280 770 285 770 300C770 315 763 320 745 320C727 320 720 315 720 300" id="ShapeObject_37769D57-A391-BC08-3070-67DB86D3AA46" stroke="none" style="fill:#000000;fill-opacity:1" transform="matrix(0.10000000894069672,0,0,0.10000000894069672,75,35)" opacity="1"/>
    <path d="M960 300M960 300C960 285 967 280 985 280C1003 280 1010 285 1010 300C1010 315 1003 320 985 320C967 320 960 315 960 300" id="ShapeObject_308110BA-48D7-12B2-8495-67DB86D39E9E" stroke="none" style="fill:#000000;fill-opacity:1" transform="matrix(0.10000000894069672,0,0,0.10000000894069672,75,35)" opacity="1"/>
    <path d="M250 222M250 222C250 203 262 182 290 155C312 133 330 106 330 95C330 68 300 40 272 40C250 40 216 67 209 89C203 106 170 92 170 73C170 65 183 45 199 29C238 -10 295 -11 339 26C385 64 382 108 330 164C308 188 290 217 290 229C290 243 284 250 270 250C255 250 250 243 250 222" id="ShapeObject_BC836553-8590-F16E-26E1-67DB86D42226" stroke="none" style="fill:#000000;fill-opacity:1" transform="matrix(0.10000000894069672,0,0,0.10000000894069672,75,35)" opacity="1"/>
    <path d="M490 222M490 222C490 203 502 182 530 155C552 133 570 106 570 95C570 68 540 40 512 40C490 40 456 67 449 89C443 106 410 92 410 73C410 65 423 45 439 29C478 -10 535 -11 579 26C625 64 622 108 570 164C548 188 530 217 530 229C530 243 524 250 510 250C495 250 490 243 490 222" id="ShapeObject_1677EF0A-E640-3B04-684E-67DB86D47955" stroke="none" style="fill:#000000;fill-opacity:1" transform="matrix(0.10000000894069672,0,0,0.10000000894069672,75,35)" opacity="1"/>
    <path d="M730 222M730 222C730 203 742 182 770 155C792 133 810 106 810 95C810 68 780 40 752 40C730 40 696 67 689 89C683 106 650 92 650 73C650 65 663 45 679 29C718 -10 775 -11 819 26C865 64 862 108 810 164C788 188 770 217 770 229C770 243 764 250 750 250C735 250 730 243 730 222" id="ShapeObject_B526569E-A984-376F-5DFC-67DB86D4B187" stroke="none" style="fill:#000000;fill-opacity:1" transform="matrix(0.10000000894069672,0,0,0.10000000894069672,75,35)" opacity="1"/>
    <path d="M970 222M970 222C970 203 982 182 1010 155C1032 133 1050 106 1050 95C1050 68 1020 40 992 40C970 40 936 67 929 89C923 106 890 92 890 73C890 65 903 45 919 29C958 -10 1015 -11 1059 26C1105 64 1102 108 1050 164C1028 188 1010 217 1010 229C1010 243 1004 250 990 250C975 250 970 243 970 222" id="ShapeObject_A8EB15F4-D418-12B3-F6AF-67DB86D5D1F1" stroke="none" style="fill:#000000;fill-opacity:1" transform="matrix(0.10000000894069672,0,0,0.10000000894069672,75,35)" opacity="1"/>
  </g>
</svg>