<svg width="500" height="500" xmlns="http://www.w3.org/2000/svg" xmlns:xlink="http://www.w3.org/1999/xlink">
  <title>clapperboard</title>
  <metadata id="metadata7">image/svg+xmlClapper-board2006-11-11Stellarismovies, clapper-board</metadata>
  <g>
    <title>Layer 1</title>
    <g id="svg_1">
      <rect transform="matrix(0 1 1 0 0 0)" y="18.083706" x="97.871676" height="49.550255" width="91.138451" id="rect2098" rx="10.342281" ry="10.405553" stroke-dashoffset="0" stroke-miterlimit="4" stroke-width="2" fill-rule="evenodd" fill="black"/>
      <rect id="rect1959" width="469.73599" height="280.578" x="19.726306" y="177.922666" rx="8.962941" ry="8.962941" stroke-dashoffset="0" stroke-miterlimit="4" stroke-width="4" fill-rule="evenodd" fill="black"/>
      <g id="g2026" transform="matrix(0.693704 0 0 0.689485 86.8173 194.397)">
        <rect id="rect1874" width="683.46167" height="71.428574" x="-99.874099" y="-69.708377" stroke-dashoffset="0" stroke-miterlimit="4" stroke-width="2" fill-rule="evenodd" fill="black"/>
        <g transform="matrix(1 0 0 0.970194 0.0000076294 14.0816)" id="g1896">
          <rect transform="matrix(1 0 0.465746 -0.884918 0 0)" y="19.048519" x="-36.245098" height="73.897057" width="65.392929" id="rect1888" stroke-dashoffset="0" stroke-miterlimit="4" stroke-width="2" fill-rule="evenodd" fill="white"/>
          <rect id="rect1890" width="65.392929" height="73.897026" x="131.203202" y="19.048419" transform="matrix(1 0 0.465746 -0.884918 0 0)" stroke-dashoffset="0" stroke-miterlimit="4" stroke-width="2" fill-rule="evenodd" fill="white"/>
          <rect transform="matrix(1 0 0.465746 -0.884918 0 0)" y="19.048329" x="298.651412" height="73.896996" width="65.392929" id="rect1892" stroke-dashoffset="0" stroke-miterlimit="4" stroke-width="2" fill-rule="evenodd" fill="white"/>
          <rect id="rect1894" width="65.392929" height="73.896965" x="466.099712" y="19.048239" transform="matrix(1 0 0.465746 -0.884918 0 0)" stroke-dashoffset="0" stroke-miterlimit="4" stroke-width="2" fill-rule="evenodd" fill="white"/>
        </g>
      </g>
      <rect id="rect2006" width="474.07544" height="49.253487" x="-473.846023" y="98.42565" transform="matrix(-0.992438 0.122747 0.12423 0.992253 0 0)" stroke-dashoffset="0" stroke-miterlimit="4" stroke-width="2" fill-rule="evenodd" fill="black"/>
      <g transform="matrix(-0.688395 0.0851418 0.0831092 0.663814 674.461 86.9883)" id="g2008">
        <rect transform="matrix(1 0 0.465746 -0.884918 0 0)" y="40.864259" x="255.779861" height="73.897057" width="65.392929" id="rect2010" stroke-dashoffset="0" stroke-miterlimit="4" stroke-width="2" fill-rule="evenodd" fill="white"/>
        <rect id="rect2012" width="65.392929" height="73.897026" x="423.228161" y="40.864159" transform="matrix(1 0 0.465746 -0.884918 0 0)" stroke-dashoffset="0" stroke-miterlimit="4" stroke-width="2" fill-rule="evenodd" fill="white"/>
        <rect transform="matrix(1 0 0.465746 -0.884918 0 0)" y="40.864069" x="590.676371" height="73.896996" width="65.392929" id="rect2014" stroke-dashoffset="0" stroke-miterlimit="4" stroke-width="2" fill-rule="evenodd" fill="white"/>
        <rect id="rect2016" width="65.392929" height="73.896965" x="758.124671" y="40.863979" transform="matrix(1 0 0.465746 -0.884918 0 0)" stroke-dashoffset="0" stroke-miterlimit="4" stroke-width="2" fill-rule="evenodd" fill="white"/>
      </g>
      <path id="path2022" d="m52.441002,116.261002a9.83421,9.7744 0 1 1 -19.668503,2.431999a9.83421,9.7744 0 1 1 19.668503,-2.431999z" stroke-dashoffset="0" stroke-miterlimit="4" marker-end="none" marker-mid="none" marker-start="none" stroke-width="4" stroke="white" fill-rule="evenodd" fill="white"/>
      <path d="m17.458099,195.645996l474.195892,0" id="path2024" stroke-width="0.691591px" stroke="#ccc" fill-rule="evenodd" fill="none"/>
      <path id="path1950" d="m38.649502,377.332001l431.8895,0" stroke-width="4" stroke="white" fill-rule="evenodd" fill="none"/>
      <g id="g1984" transform="matrix(0.693704 0 0 0.689485 86.8173 194.413)">
        <path id="path1952" d="m113.625999,360.098999l0,-93.833984" stroke-width="3.999994" stroke="white" fill-rule="evenodd" fill="none"/>
        <path d="m370.088013,360.098999l0,-93.833984" id="path1954" stroke-width="3.999994" stroke="white" fill-rule="evenodd" fill="none"/>
      </g>
    </g>
    <metadata id="svg_32">image/svg+xml</metadata>
    <desc>Created with Raven (http://www.aviary.com)</desc>
    <defs>
      <linearGradient id="svg_29">
        <stop id="svg_31" offset="0" stop-color="#dc0000"/>
        <stop id="svg_30" offset="1" stop-color="#320000"/>
      </linearGradient>
      <linearGradient xlink:href="#svg_29" id="svg_27" x1="-0.014286" y1="0.5" x2="1.014286" y2="0.5"/>
      <linearGradient id="svg_238">
        <stop offset="0" stop-color="#ffffff"/>
        <stop offset="1" stop-opacity="0.996094" stop-color="#646464"/>
      </linearGradient>
      <linearGradient y2="1" x2="1" y1="0" x1="0" id="svg_239">
        <stop offset="0" stop-color="#ffffff"/>
        <stop offset="1" stop-opacity="0.996094" stop-color="#646464"/>
      </linearGradient>
    </defs>
    <g id="svg_28" transform="matrix(1.37658 0 0 1.37658 -83.6174 -146.62)"/>

    <metadata id="svg_37">image/svg+xmlimage/svg+xml</metadata>

    <metadata id="svg_235">image/svg+xml</metadata>
    <desc>Created with Raven (http://www.aviary.com)</desc>

    <g transform="matrix(1.06516 0 0 1.06516 -758.422 -814.332)" id="svg_301"/>
    <g id="svg_340">
      <g transform="matrix(1.06516 0 0 1.06516 -758.422 -814.332)" id="svg_302">
        <g id="svg_337"/>
        <g id="svg_307">
          <path fill="#000000" id="svg_336" d="m1046.37915,1097.97998m0,0c1.5,-3.699951 1.700073,-5.299927 0.599976,-5.299927c-0.599976,0 -1.099976,-0.900024 -1.099976,-2c0,-1.300049 0.700073,-2 2,-2c1.599976,0 2,0.699951 2,3.599976c0,1.900024 -0.5,4.400024 -1,5.5c-1.299927,2.400024 -3.5,2.599976 -2.5,0.199951"/>
          <path fill="#0000ff" id="svg_335" d="m826.873596,1081.079956m0,0c0,-11.399902 0,-11.5 2.300049,-11.299927c1.199951,0.099976 3,-0.099976 3.899963,-0.5c2.799988,-1.200073 5.299988,-0.200073 5.600037,2.199951c0.299988,2 0,2.200073 -2.100037,1.700073c-4,-1 -5.700012,2.5 -5.700012,11.699951c0,7.099976 -0.199951,7.800049 -2,7.800049c-1.899963,0 -2,-0.700073 -2,-11.600098"/>
          <path fill="#0000ff" id="svg_334" d="m846.173645,1091.680054m0,0c-5.5,-2.200073 -7.600037,-13.400024 -3.600037,-18.900024c5.700012,-7.599976 18.299988,-3.300049 18.299988,6.400024c0,2.5 -0.099976,2.5 -8,2.5c-7.299988,0 -8,0.199951 -8,1.899902c0,2.300049 3.600037,5.100098 6.400024,5.100098c1.099976,0 2.900024,-0.900024 4.099976,-2c1.300049,-1.200073 2.900024,-1.800049 3.800049,-1.400024c2.399963,0.900024 2.099976,1.900024 -1.400024,4.799927c-3.200012,2.700073 -7.400024,3.300049 -11.599976,1.600098m10.699951,-14.700073c0,-1.699951 -3.599976,-4.299927 -5.799988,-4.299927c-2.5,0 -6.200012,2.5 -6.200012,4.199951c0,0.400024 2.700012,0.800049 6,0.800049c3.300049,0 6,-0.300049 6,-0.700073"/>
          <path fill="#0000ff" id="svg_333" d="m867.873596,1091.680054m0,0c-1.099976,-0.700073 -1.599976,-3.300049 -1.899963,-9.5c-0.200012,-6.400024 -0.600037,-8.5 -1.700012,-8.5c-0.799988,0 -1.400024,-0.900024 -1.400024,-2c0,-1.100098 0.700012,-2 1.5,-2c1,0 1.5,-1 1.5,-2.800049c0,-1.599976 0.800049,-3.199951 2,-4c1.900024,-1.099976 2,-1 2,2.800049c0,3.299927 0.300049,4 2,4c1.300049,0 2,0.699951 2,2c0,1.299927 -0.699951,2 -2,2c-1.799988,0 -2,0.699951 -2,6.299927c0,6.599976 0.5,8 3.300049,9c0.899963,0.300049 1.699951,1.300049 1.699951,2.200073c0,1.699951 -4.599976,2.099976 -7,0.5"/>
          <path fill="#0000ff" id="svg_332" d="m879.873596,1090.680054m0,0c-1.699951,-1.700073 -2,-3.300049 -2,-11.5c0,-8.800049 0.100037,-9.5 2,-9.5c1.800049,0 2,0.699951 2,8.299927c0,8.800049 0.800049,10.700073 4.5,10.700073c4.100037,0 5.5,-3 5.5,-11.300049c0,-7 0.200012,-7.699951 2,-7.699951c1.900024,0 2,0.699951 2,11.5c0,10.799927 -0.099976,11.5 -2,11.5c-1.099976,0 -2,-0.700073 -2,-1.600098c0,-1.399902 -0.199951,-1.399902 -2.199951,0c-3.100037,2.200073 -7.400024,2 -9.800049,-0.399902"/>
          <path fill="#0000ff" id="svg_331" d="m901.873596,1081.079956m0,0c0,-11.399902 0,-11.5 2.300049,-11.299927c1.199951,0.099976 3,-0.099976 3.899963,-0.5c2.799988,-1.200073 5.299988,-0.200073 5.600037,2.199951c0.299988,2 0,2.200073 -2.100037,1.700073c-4,-1 -5.700012,2.5 -5.700012,11.699951c0,7.099976 -0.199951,7.800049 -2,7.800049c-1.899963,0 -2,-0.700073 -2,-11.600098"/>
          <path fill="#0000ff" id="svg_330" d="m916.873596,1081.180054m0,0c0,-10.800049 0.100037,-11.5 2,-11.5c1.100037,0 2,0.5 2,1.099976c0,0.5 1,0.299927 2.200012,-0.5c3.100037,-2.200073 7.400024,-2 9.799988,0.400024c1.700012,1.699951 2,3.299927 2,12c0,9.299927 -0.099976,10 -2,10c-1.799988,0 -2,-0.700073 -2,-8.800049c0,-9.300049 -0.799988,-11.199951 -4.599976,-11.199951c-3.799988,0 -5.400024,3.599976 -5.400024,12.199951c0,7.099976 -0.199951,7.800049 -2,7.800049c-1.899963,0 -2,-0.700073 -2,-11.5"/>
          <path fill="#ff0000" id="svg_329" d="m953.873596,1083.180054m0,0c0,-7.800049 -0.299988,-9.5 -1.5,-9.5c-0.799988,0 -1.5,-0.900024 -1.5,-2c0,-1.100098 0.700012,-2 1.5,-2c0.900024,0 1.5,-0.900024 1.5,-2.5c0,-3.600098 3.300049,-6.5 7.400024,-6.5c2.900024,0 3.299988,0.299927 2.900024,2c-0.300049,1.299927 -1.400024,2 -2.800049,2c-2.099976,0 -3.5,1.699951 -3.5,4.099976c0,0.5 1.100037,0.900024 2.5,0.900024c1.800049,0 2.5,0.5 2.5,2c0,1.5 -0.699951,2 -2.5,2c-2.5,0 -2.5,0 -2.5,9.5c0,8.799927 -0.099976,9.5 -2,9.5c-1.899963,0 -2,-0.700073 -2,-9.5"/>
          <path fill="#ff0000" id="svg_328" d="m966.073608,1091.079956m0,0c-2.799988,-1.899902 -3,-7.399902 -0.399963,-9.699951c1,-0.900024 4.299988,-2 7.199951,-2.400024c4.200012,-0.599976 5.600037,-1.299927 5.800049,-2.699951c0.799988,-3.800049 -6.400024,-5 -9.600037,-1.599976c-2.299988,2.5 -5.200012,1.699951 -4.5,-1.100098c1.200012,-4.5 12.100037,-6.599976 16.100037,-3.099976c1.699951,1.400024 2.099976,3.200073 2.5,12c0.399963,9.400024 0.299988,10.200073 -1.5,10.200073c-1,0 -1.800049,-0.700073 -1.800049,-1.5c0,-1.400024 -0.299988,-1.400024 -3,0c-3.699951,1.899902 -8,1.899902 -10.799988,-0.100098m10.600037,-4c2.699951,-1.899902 3.099976,-5.799927 0.5,-5.099976c-1,0.300049 -3.5,0.800049 -5.5,1.200073c-2.700012,0.399902 -3.800049,1.099976 -3.800049,2.399902c0,1 0.300049,2.100098 0.700012,2.400024c1.200012,1.200073 5.799988,0.700073 8.100037,-0.900024"/>
          <path fill="#ff0000" id="svg_327" d="m988.873596,1076.680054m0,0c0,-15.300049 0.100037,-16 2,-16c1.900024,0 2,0.699951 2,16c0,15.299927 -0.099976,16 -2,16c-1.899963,0 -2,-0.700073 -2,-16"/>
          <path fill="#ff0000" id="svg_326" d="m1001.273621,1091.47998m0,0c-1.200012,-0.5 -2.599976,-2 -3.200012,-3.299927c-1.5,-3.300049 1.400024,-4.300049 4.299988,-1.5c2.200012,2.099976 6,2.599976 8.400024,1.099976c2.400024,-1.5 0.400024,-3.900024 -4.099976,-5.099976c-6.400024,-1.700073 -8.800049,-3.600098 -8.800049,-7c0,-5 4.900024,-7.900024 11.200012,-6.600098c3.700012,0.700073 5.799988,2.300049 5.799988,4.300049c0,2.099976 -2.799988,2.699951 -4.599976,0.800049c-2.099976,-2.100098 -7.799988,-1.700073 -8.200012,0.699951c-0.200012,1.199951 1.100037,2 5.5,3.300049c7.299988,2.099976 8.299988,3 8.299988,7c0,6.099976 -8.099976,9.5 -14.599976,6.299927"/>
          <path fill="#ff0000" id="svg_325" d="m1025.178711,1091.680054m0,0c-5.500061,-2.200073 -7.600098,-13.400024 -3.600098,-18.900024c5.700073,-7.599976 18.300537,-3.300049 18.300537,6.400024c0,2.5 -0.099976,2.5 -8.000244,2.5c-7.300293,0 -8.000305,0.199951 -8.000305,1.899902c0,2.300049 3.600159,5.100098 6.400208,5.100098c1.099976,0 2.900146,-0.900024 4.100098,-2c1.300171,-1.200073 2.900146,-1.800049 3.800171,-1.400024c2.400024,0.900024 2.100098,1.900024 -1.400024,4.799927c-3.200073,2.700073 -7.400269,3.300049 -11.600342,1.600098m10.700317,-14.700073c0,-1.699951 -3.600098,-4.299927 -5.800171,-4.299927c-2.500122,0 -6.200256,2.5 -6.200256,4.199951c0,0.400024 2.700134,0.800049 6.000183,0.800049c3.300171,0 6.000244,-0.300049 6.000244,-0.700073"/>
          <path fill="#000000" id="svg_324" d="m1045.87915,1071.680054m0,0c0,-1.300049 0.700073,-2 2,-2c1.300049,0 2,0.699951 2,2c0,1.299927 -0.699951,2 -2,2c-1.299927,0 -2,-0.700073 -2,-2"/>
          <path fill="#000000" id="svg_323" d="m1089.37915,1053.97998m0,0c1.5,-3.699951 1.700073,-5.299927 0.599976,-5.299927c-0.599976,0 -1.099976,-0.900024 -1.099976,-2c0,-1.300049 0.700073,-2 2,-2c1.599976,0 2,0.699951 2,3.599976c0,1.900024 -0.5,4.400024 -1,5.5c-1.299927,2.400024 -3.5,2.599976 -2.5,0.199951"/>
          <path fill="#0000ff" id="svg_322" d="m886.873596,1037.079956m0,0c0,-11.399902 0,-11.5 2.300049,-11.299927c1.199951,0.099976 3,-0.099976 3.899963,-0.5c2.799988,-1.200073 5.299988,-0.200073 5.600037,2.199951c0.299988,2 0,2.200073 -2.100037,1.700073c-4,-1 -5.700012,2.5 -5.700012,11.699951c0,7.099976 -0.199951,7.800049 -2,7.800049c-1.899963,0 -2,-0.700073 -2,-11.600098"/>
          <path fill="#0000ff" id="svg_321" d="m906.173645,1047.680054m0,0c-5.5,-2.200073 -7.600037,-13.400024 -3.600037,-18.900024c5.700012,-7.600037 18.299988,-3.300049 18.299988,6.400024c0,2.5 -0.099976,2.5 -8,2.5c-7.299988,0 -8,0.199951 -8,1.899902c0,2.300049 3.600037,5.100098 6.400024,5.100098c1.099976,0 2.900024,-0.900024 4.099976,-2c1.300049,-1.200073 2.900024,-1.800049 3.800049,-1.400024c2.399963,0.900024 2.099976,1.900024 -1.400024,4.799927c-3.200012,2.700073 -7.400024,3.300049 -11.599976,1.600098m10.699951,-14.700073c0,-1.699951 -3.599976,-4.299927 -5.799988,-4.299927c-2.5,0 -6.200012,2.5 -6.200012,4.199951c0,0.400024 2.700012,0.800049 6,0.800049c3.300049,0 6,-0.300049 6,-0.700073"/>
          <path fill="#0000ff" id="svg_320" d="m927.873596,1047.680054m0,0c-1.099976,-0.700073 -1.599976,-3.300049 -1.899963,-9.5c-0.200012,-6.400024 -0.600037,-8.5 -1.700012,-8.5c-0.799988,0 -1.400024,-0.900024 -1.400024,-2c0,-1.100098 0.700012,-2 1.5,-2c1,0 1.5,-1 1.5,-2.800049c0,-1.599976 0.800049,-3.200012 2,-4c1.900024,-1.099976 2,-1 2,2.799988c0,3.299988 0.300049,4.000061 2,4.000061c1.300049,0 2,0.699951 2,2c0,1.299927 -0.699951,2 -2,2c-1.799988,0 -2,0.699951 -2,6.299927c0,6.599976 0.5,8 3.300049,9c0.899963,0.300049 1.699951,1.300049 1.699951,2.200073c0,1.699951 -4.599976,2.099976 -7,0.5"/>
          <path fill="#0000ff" id="svg_319" d="m939.873596,1046.680054m0,0c-1.699951,-1.700073 -2,-3.300049 -2,-11.5c0,-8.800049 0.100037,-9.5 2,-9.5c1.800049,0 2,0.699951 2,8.299927c0,8.800049 0.800049,10.700073 4.5,10.700073c4.100037,0 5.5,-3 5.5,-11.300049c0,-7 0.200012,-7.699951 2,-7.699951c1.900024,0 2,0.699951 2,11.5c0,10.799927 -0.099976,11.5 -2,11.5c-1.099976,0 -2,-0.700073 -2,-1.600098c0,-1.399902 -0.199951,-1.399902 -2.199951,0c-3.100037,2.200073 -7.400024,2 -9.800049,-0.399902"/>
          <path fill="#0000ff" id="svg_318" d="m961.873596,1037.079956m0,0c0,-11.399902 0,-11.5 2.300049,-11.299927c1.199951,0.099976 3,-0.099976 3.899963,-0.5c2.799988,-1.200073 5.299988,-0.200073 5.600037,2.199951c0.299988,2 0,2.200073 -2.100037,1.700073c-4,-1 -5.700012,2.5 -5.700012,11.699951c0,7.099976 -0.199951,7.800049 -2,7.800049c-1.899963,0 -2,-0.700073 -2,-11.600098"/>
          <path fill="#0000ff" id="svg_317" d="m976.873596,1037.180054m0,0c0,-10.800049 0.100037,-11.5 2,-11.5c1.100037,0 2,0.5 2,1.099976c0,0.5 1,0.299927 2.200012,-0.5c3.100037,-2.200073 7.400024,-2 9.799988,0.400024c1.700012,1.699951 2,3.299927 2,12c0,9.299927 -0.099976,10 -2,10c-1.799988,0 -2,-0.700073 -2,-8.800049c0,-9.300049 -0.799988,-11.199951 -4.599976,-11.199951c-3.799988,0 -5.400024,3.599976 -5.400024,12.199951c0,7.099976 -0.199951,7.800049 -2,7.800049c-1.899963,0 -2,-0.700073 -2,-11.5"/>
          <path fill="#ff0000" id="svg_316" d="m1014.873596,1047.680054m0,0c-1.099976,-0.700073 -1.599976,-3.300049 -1.899963,-9.5c-0.200012,-6.400024 -0.600037,-8.5 -1.700012,-8.5c-0.799988,0 -1.400024,-0.900024 -1.400024,-2c0,-1.100098 0.700012,-2 1.5,-2c1,0 1.5,-1 1.5,-2.800049c0,-1.599976 0.800049,-3.200012 2,-4c1.900024,-1.099976 2,-1 2,2.799988c0,3.299988 0.305054,4.000061 2.005005,4.000061c1.300049,0 2,0.699951 2,2c0,1.299927 -0.699951,2 -2,2c-1.799988,0 -2.005005,0.699951 -2.005005,6.299927c0,6.599976 0.505005,8 3.305054,9c0.899963,0.300049 1.699951,1.300049 1.699951,2.200073c0,1.699951 -4.599976,2.099976 -7.005005,0.5"/>
          <path fill="#ff0000" id="svg_315" d="m1024.878662,1037.079956m0,0c0,-11.399902 0,-11.5 2.300049,-11.299927c1.200073,0.099976 3.000122,-0.099976 3.900146,-0.5c2.800049,-1.200073 5.300171,-0.200073 5.60022,2.199951c0.299927,2 0,2.200073 -2.100098,1.700073c-4.000122,-1 -5.700195,2.5 -5.700195,11.699951c0,7.099976 -0.199951,7.800049 -2.000122,7.800049c-1.900024,0 -2,-0.700073 -2,-11.600098"/>
          <path fill="#ff0000" id="svg_314" d="m1041.87915,1046.680054m0,0c-1.699951,-1.700073 -2,-3.300049 -2,-11.5c0,-8.800049 0.099976,-9.5 2,-9.5c1.800049,0 2,0.699951 2,8.299927c0,8.800049 0.800049,10.700073 4.5,10.700073c4.099976,0 5.5,-3 5.5,-11.300049c0,-7 0.200073,-7.699951 2,-7.699951c1.900024,0 2,0.699951 2,11.5c0,10.799927 -0.099976,11.5 -2,11.5c-1.099976,0 -2,-0.700073 -2,-1.600098c0,-1.399902 -0.199951,-1.399902 -2.199951,0c-3.099976,2.200073 -7.400024,2 -9.800049,-0.399902"/>
          <path fill="#ff0000" id="svg_313" d="m1068.179199,1047.680054m0,0c-5.5,-2.200073 -7.599976,-13.400024 -3.599976,-18.900024c5.699951,-7.600037 18.299927,-3.300049 18.299927,6.400024c0,2.5 -0.099976,2.5 -8,2.5c-7.299927,0 -8,0.199951 -8,1.899902c0,2.300049 3.599976,5.100098 6.400024,5.100098c1.099976,0 2.900024,-0.900024 4.099976,-2c1.300049,-1.200073 2.900024,-1.800049 3.800049,-1.400024c2.400024,0.900024 2.099976,1.900024 -1.400024,4.799927c-3.199951,2.700073 -7.400024,3.300049 -11.599976,1.600098m10.699951,-14.700073c0,-1.699951 -3.599976,-4.299927 -5.799927,-4.299927c-2.5,0 -6.200073,2.5 -6.200073,4.199951c0,0.400024 2.700073,0.800049 6,0.800049c3.300049,0 6,-0.300049 6,-0.700073"/>
          <path fill="#000000" id="svg_312" d="m1088.87915,1027.680054m0,0c0,-1.300049 0.700073,-2 2,-2c1.300049,0 2,0.699951 2,2c0,1.299927 -0.699951,2 -2,2c-1.299927,0 -2,-0.700073 -2,-2"/>
          <path fill="#0000ff" id="svg_311" d="m826.873596,993.179993m0,0c0,-10.799988 0.100037,-11.5 2,-11.5c1.900024,0 2,0.700012 2,11.5c0,10.799988 -0.099976,11.5 -2,11.5c-1.899963,0 -2,-0.700012 -2,-11.5"/>
          <path fill="#0000ff" id="svg_310" d="m837.873596,995.179993m0,0c0,-7.799988 -0.299988,-9.5 -1.5,-9.5c-0.799988,0 -1.5,-0.899963 -1.5,-2c0,-1.099976 0.700012,-2 1.5,-2c0.900024,0 1.5,-0.899963 1.5,-2.5c0,-3.599976 3.300049,-6.5 7.400024,-6.5c2.900024,0 3.299988,0.299988 2.900024,2c-0.300049,1.299988 -1.400024,2 -2.800049,2c-2.099976,0 -3.5,1.700012 -3.5,4.100037c0,0.5 1.100037,0.899963 2.5,0.899963c1.800049,0 2.5,0.5 2.5,2c0,1.5 -0.699951,2 -2.5,2c-2.5,0 -2.5,0 -2.5,9.5c0,8.799988 -0.099976,9.5 -2,9.5c-1.899963,0 -2,-0.700012 -2,-9.5"/>
          <path fill="#0000ff" id="svg_309" d="m826.873596,974.679993m0,0c0,-1.299988 0.700012,-2 2,-2c1.300049,0 2,0.700012 2,2c0,1.299988 -0.699951,2 -2,2c-1.299988,0 -2,-0.700012 -2,-2"/>
          <g id="svg_308"/>
        </g>
        <g id="svg_305">
          <g id="svg_306"/>
        </g>
        <g id="svg_303">
          <g id="svg_304"/>
        </g>
      </g>
      <g transform="matrix(1.06516 0 0 1.06516 -758.422 -814.332)" id="svg_290">
        <path fill="#ffffff" id="svg_300" d="m863.07373,1008.079834m0,0c-6.900024,-10.700012 -6.900024,-23.100037 0,-33.800049c1.200012,-2 2.899963,-3.599976 3.599976,-3.599976c1.600037,0 1.600037,0 -1.5,6.099976c-2.5,4.700012 -2.799988,6.400024 -2.799988,14.400024c0,7.900024 0.299988,9.700012 2.799988,14.299988c3.100037,6.199951 3.100037,6.199951 1.5,6.199951c-0.700012,0 -2.399963,-1.599976 -3.599976,-3.599915"/>
        <path fill="#ffffff" id="svg_299" d="m971.673767,1005.979797m0,0c2.299927,-5 2.699951,-7.099976 2.699951,-14.799988c0,-7.799988 -0.400024,-9.799988 -2.699951,-14.5c-1.5,-3 -2.5,-5.599976 -2.300049,-5.799988c1.199951,-1.299988 3.599976,1.299988 6.400024,6.899963c2.599976,5.200012 3.099976,7.400024 3.099976,13.5c0,6.200012 -0.5,8.100037 -3.300049,13.600037c-1.799927,3.400024 -4,6.400024 -5,6.599976c-1.399902,0.300049 -1.199951,-0.5 1.100098,-5.5"/>
        <path fill="#ffffff" id="svg_298" d="m878.873718,1000.67981m0,0c0,-1.5 0.700012,-2 2.5,-2c1.799988,0 2.5,0.5 2.5,2c0,1.5 -0.700012,2 -2.5,2c-1.799988,0 -2.5,-0.5 -2.5,-2"/>
        <path fill="#ffffff" id="svg_297" d="m902.873718,1000.67981m0,0c0,-1.5 0.700012,-2 2.5,-2c1.799988,0 2.5,0.5 2.5,2c0,1.5 -0.700012,2 -2.5,2c-1.799988,0 -2.5,-0.5 -2.5,-2"/>
        <path fill="#ffffff" id="svg_296" d="m926.873718,1000.67981m0,0c0,-1.5 0.700012,-2 2.5,-2c1.799988,0 2.5,0.5 2.5,2c0,1.5 -0.700012,2 -2.5,2c-1.799988,0 -2.5,-0.5 -2.5,-2"/>
        <path fill="#ffffff" id="svg_295" d="m950.873718,1000.67981m0,0c0,-1.5 0.699951,-2 2.5,-2c1.800049,0 2.5,0.5 2.5,2c0,1.5 -0.699951,2 -2.5,2c-1.800049,0 -2.5,-0.5 -2.5,-2"/>
        <path fill="#ffffff" id="svg_294" d="m879.873718,992.879822m0,0c0,-1.900024 1.200012,-4 4,-6.700012c2.200012,-2.200012 4,-4.900024 4,-6c0,-2.700012 -3,-5.5 -5.799988,-5.5c-2.200012,0 -5.600037,2.700012 -6.299988,4.900024c-0.600037,1.699951 -3.900024,0.299988 -3.900024,-1.600037c0,-0.799988 1.299988,-2.799988 2.900024,-4.399963c3.899963,-3.900024 9.599976,-4 14,-0.300049c4.599976,3.800049 4.299988,8.200012 -0.900024,13.800049c-2.200012,2.399963 -4,5.299988 -4,6.5c0,1.399963 -0.599976,2.099976 -2,2.099976c-1.5,0 -2,-0.700012 -2,-2.799988"/>
        <path fill="#ffffff" id="svg_293" d="m903.873718,992.879822m0,0c0,-1.900024 1.200012,-4 4,-6.700012c2.200012,-2.200012 4,-4.900024 4,-6c0,-2.700012 -3,-5.5 -5.799988,-5.5c-2.200012,0 -5.600037,2.700012 -6.299988,4.900024c-0.600037,1.699951 -3.900024,0.299988 -3.900024,-1.600037c0,-0.799988 1.299988,-2.799988 2.900024,-4.399963c3.899963,-3.900024 9.599976,-4 14,-0.300049c4.599976,3.800049 4.299988,8.200012 -0.900024,13.800049c-2.200012,2.399963 -4,5.299988 -4,6.5c0,1.399963 -0.599976,2.099976 -2,2.099976c-1.5,0 -2,-0.700012 -2,-2.799988"/>
        <path fill="#ffffff" id="svg_292" d="m927.873718,992.879822m0,0c0,-1.900024 1.200012,-4 4,-6.700012c2.200073,-2.200012 4,-4.900024 4,-6c0,-2.700012 -3,-5.5 -5.799988,-5.5c-2.200012,0 -5.600037,2.700012 -6.299988,4.900024c-0.600037,1.699951 -3.900024,0.299988 -3.900024,-1.600037c0,-0.799988 1.299988,-2.799988 2.900024,-4.399963c3.899963,-3.900024 9.599976,-4 14,-0.300049c4.599976,3.800049 4.300049,8.200012 -0.900024,13.800049c-2.200012,2.399963 -4,5.299988 -4,6.5c0,1.399963 -0.599976,2.099976 -2,2.099976c-1.5,0 -2,-0.700012 -2,-2.799988"/>
        <path fill="#ffffff" id="svg_291" d="m951.873718,992.879822m0,0c0,-1.900024 1.200073,-4 4,-6.700012c2.200073,-2.200012 4,-4.900024 4,-6c0,-2.700012 -3,-5.5 -5.799927,-5.5c-2.200073,0 -5.600098,2.700012 -6.300049,4.900024c-0.599976,1.699951 -3.900024,0.299988 -3.900024,-1.600037c0,-0.799988 1.300049,-2.799988 2.900024,-4.399963c3.900024,-3.900024 9.599976,-4 14,-0.300049c4.599976,3.800049 4.300049,8.200012 -0.900024,13.800049c-2.199951,2.399963 -4,5.299988 -4,6.5c0,1.399963 -0.599976,2.099976 -2,2.099976c-1.5,0 -2,-0.700012 -2,-2.799988"/>
      </g>
    </g>
  </g>
</svg>