<svg version="1.1" width="300" height="140" viewBox="0 0 300 140" xmlns:xlink="http://www.w3.org/1999/xlink" xmlns="http://www.w3.org/2000/svg">
  <desc>Created with Raven (http://www.aviary.com)</desc>
  <defs/>
  <g id="Layer_39CA0D9B-5B30-3BC9-C42B-675044164FAD" opacity="1">
    <path d="M37.84847613647036 273M37.84847613647036 273C40.74135329339802 303.8 69.4290517662641 305.75 106.6507378520668 305" id="ShapeObject_A6A37F9C-00F8-C961-C80C-6758F5F09E0E" stroke="#000000" stroke-opacity="1" stroke-width="2" stroke-linejoin="miter" stroke-miterlimit="4" style="fill:#ffffff;fill-opacity:0" transform="matrix(1.0370298624038696,0,0,1,-20.75,-241)" opacity="1"/>
  </g>
  <g id="Layer_49EBFC57-433F-5C90-94A9-67511D71CB2C" opacity="1"/>
  <g id="Layer_60F35E11-E9F2-0BF8-122C-67521665ED09" opacity="1">
    <path d="M84 42L154 42L154 69L84 69L84 42z" id="EGGNode_1311698535140" stroke="#b40000" stroke-opacity="1" stroke-width="2" stroke-linejoin="miter" stroke-miterlimit="4" style="fill:#b40000;fill-opacity:1" transform="matrix(1,0,0,1,37,24)" opacity="1"/>
    <path d="M84 42L154 42L154 69L84 69L84 42z" id="EGGNode_1311698535144" stroke="#2e4f4f" stroke-opacity="1" stroke-width="2" stroke-linejoin="miter" stroke-miterlimit="4" style="fill:#2e4f4f;fill-opacity:1" transform="matrix(1,0,0,1,37,-4)" opacity="1"/>
    <path d="M84 42L154 42L154 69L84 69L84 42z" id="EGGNode_1311698535148" stroke="#00b400" stroke-opacity="1" stroke-width="2" stroke-linejoin="miter" stroke-miterlimit="4" style="fill:#00b400;fill-opacity:1" transform="matrix(0.19452139735221863,1.9682623709356385e-16,0,2.0345118045806885,91.75,-47.5)" opacity="1"/>
  </g>
  <g id="Layer_1E82E6A7-9F8B-0C27-8808-675BD0BE5EF8" opacity="1"/>
  <g id="Layer_18AFA124-0991-A47B-C4F4-675C8E7CBEC8" opacity="1">
    <path d="M79 532L98 505L112 531L79 532z" id="EGGNode_1311698535168" stroke="#000000" stroke-opacity="1" stroke-width="2" stroke-linejoin="miter" stroke-miterlimit="4" style="fill:#000000;fill-opacity:1" transform="matrix(-0.014730533584952354,0.5112373232841492,-0.6279599070549011,-0.018093718215823174,426,23.5)" opacity="1"/>
    <path d="M39.487773192062704 297M39.487773192062704 297C65.28259450800108 296.8 108.5311080040698 286.75 125.02050779855752 326" id="EGGNode_1311707929542" stroke="#000000" stroke-opacity="1" stroke-width="2" stroke-linejoin="miter" stroke-miterlimit="4" style="fill:#ffffff;fill-opacity:0" transform="matrix(1.0370298624038696,0,0,1,150.25,-218)" opacity="1"/>
  </g>
</svg>