<svg version="1.1" width="140" height="100" viewBox="0 0 140 100" xmlns:xlink="http://www.w3.org/1999/xlink" xmlns="http://www.w3.org/2000/svg">
  <desc>Created with Raven (http://www.aviary.com)</desc>
  <defs/>
  <g id="Layer_DCCB221B-BFEA-FFC1-DF2E-67EBEB888B80" opacity="1"/>
  <g id="Layer_C4883A2E-5E09-C371-1592-67EC7D753712" opacity="1">
    <path d="M82 374M82 374C13 267 13 143 82 36C94 16 111 0 118 0C134 0 134 0 103 61C78 108 75 125 75 205C75 284 78 302 103 348C134 410 134 410 118 410C111 410 94 394 82 374" id="ShapeObject_D1A93989-B3B7-B181-1FD5-67EC7D812BB4" stroke="none" style="fill:#0000ff;fill-opacity:1" transform="matrix(0.10000000894069672,0,0,0.10000000894069672,23,27)" opacity="1"/>
    <path d="M428 353M428 353C451 303 455 282 455 205C455 127 451 107 428 60C413 30 403 4 405 2C417 -11 441 15 469 71C495 123 500 145 500 206C500 268 495 287 467 342C449 376 427 406 417 408C403 411 405 403 428 353" id="ShapeObject_692BAA26-A299-534D-F8C8-67EC7D84F5C5" stroke="none" style="fill:#0000ff;fill-opacity:1" transform="matrix(0.10000000894069672,0,0,0.10000000894069672,23,27)" opacity="1"/>
    <path d="M160 314M160 314C160 310 176 285 195 259C214 232 230 207 230 202C230 198 214 171 195 142L159 90L184 90C201 90 215 100 230 125C242 144 255 160 258 160C262 160 276 144 289 125C305 101 320 90 337 90C362 90 362 90 326 139C306 166 290 193 290 199C290 205 306 232 325 259C366 315 367 320 340 320C328 320 310 304 294 280C279 258 264 240 260 240C256 240 241 258 226 280C210 304 192 320 180 320C169 320 160 317 160 314" id="ShapeObject_654342C0-FF43-2466-5B8B-67EC7D858F7D" stroke="none" style="fill:#000000;fill-opacity:1" transform="matrix(0.10000000894069672,0,0,0.10000000894069672,23,27)" opacity="1"/>
    <path d="M660 210M660 210C660 191 667 190 770 190C873 190 880 191 880 210C880 229 873 230 770 230C667 230 660 229 660 210" id="ShapeObject_9A946872-09C3-5825-79C1-67EC7D854516" stroke="none" style="fill:#0000ff;fill-opacity:1" transform="matrix(0.10000000894069672,0,0,0.10000000894069672,23,27)" opacity="1"/>
    <path d="M660 120M660 120C660 101 667 100 770 100C873 100 880 101 880 120C880 139 873 140 770 140C667 140 660 139 660 120" id="ShapeObject_E622E861-3176-F5EE-6624-67EC7D86F28A" stroke="none" style="fill:#0000ff;fill-opacity:1" transform="matrix(0.10000000894069672,0,0,0.10000000894069672,23,27)" opacity="1"/>
  </g>
</svg>