<?xml version="1.0" encoding="UTF-8" standalone="no"?>
<!-- Created with Inkscape (http://www.inkscape.org/) -->

<svg
   xmlns:dc="http://purl.org/dc/elements/1.1/"
   xmlns:cc="http://creativecommons.org/ns#"
   xmlns:rdf="http://www.w3.org/1999/02/22-rdf-syntax-ns#"
   xmlns:svg="http://www.w3.org/2000/svg"
   xmlns="http://www.w3.org/2000/svg"
   xmlns:xlink="http://www.w3.org/1999/xlink"
   xmlns:sodipodi="http://sodipodi.sourceforge.net/DTD/sodipodi-0.dtd"
   xmlns:inkscape="http://www.inkscape.org/namespaces/inkscape"
   width="273.34378"
   height="266.81189"
   id="svg2"
   version="1.1"
   inkscape:version="0.48.0 r9654"
   sodipodi:docname="New document 1">
  <sodipodi:namedview
     id="base"
     pagecolor="#ffffff"
     bordercolor="#666666"
     borderopacity="1.0"
     inkscape:pageopacity="0.0"
     inkscape:pageshadow="2"
     inkscape:zoom="1"
     inkscape:cx="209.03613"
     inkscape:cy="1067.2539"
     inkscape:document-units="px"
     inkscape:current-layer="layer1"
     showgrid="false"
     inkscape:window-width="1280"
     inkscape:window-height="975"
     inkscape:window-x="-4"
     inkscape:window-y="-4"
     inkscape:window-maximized="1"
     fit-margin-top="0"
     fit-margin-left="0"
     fit-margin-right="0"
     fit-margin-bottom="0" />
  <defs
     id="defs4">
    <linearGradient
       inkscape:collect="always"
       id="linearGradient7235">
      <stop
         style="stop-color:#ffaaaa;stop-opacity:1;"
         offset="0"
         id="stop7237" />
      <stop
         id="stop7243"
         offset="0.64127499"
         style="stop-color:#ff0000;stop-opacity:1" />
      <stop
         style="stop-color:#800000;stop-opacity:1"
         offset="1"
         id="stop7239" />
    </linearGradient>
    <radialGradient
       inkscape:collect="always"
       xlink:href="#linearGradient7235"
       id="radialGradient7241"
       cx="287.89722"
       cy="334.01669"
       fx="293.44379"
       fy="328.38278"
       r="8.1865768"
       gradientUnits="userSpaceOnUse" />
    <radialGradient
       inkscape:collect="always"
       xlink:href="#linearGradient7235"
       id="radialGradient7476"
       gradientUnits="userSpaceOnUse"
       cx="287.89722"
       cy="334.01669"
       fx="293.44379"
       fy="328.38278"
       r="8.1865768" />
  </defs>
  <metadata
     id="metadata7">
    <rdf:RDF>
      <cc:Work
         rdf:about="">
        <dc:format>image/svg+xml</dc:format>
        <dc:type
           rdf:resource="http://purl.org/dc/dcmitype/StillImage" />
        <dc:title></dc:title>
      </cc:Work>
    </rdf:RDF>
  </metadata>
  <g
     id="layer1"
     inkscape:groupmode="layer"
     inkscape:label="Layer 1"
     transform="translate(-76.865764,-328.33012)">
    <g
       id="g7459">
      <path
         inkscape:connector-curvature="0"
         id="path7231"
         d="m 259.15092,372.5459 30.04752,-36.33654"
         style="fill:none;stroke:#000000;stroke-width:3;stroke-linecap:butt;stroke-linejoin:miter;stroke-opacity:1" />
      <path
         inkscape:connector-curvature="0"
         d="M 76.865764,504.51892 233.39241,566.01153 243.99503,595.142 87.468388,533.64939 z"
         id="path7145"
         style="fill:#4d4d4d;stroke:none" />
      <path
         inkscape:connector-curvature="0"
         d="M 233.39241,566.01153 339.60692,380.13614 350.20954,409.26661 243.99503,595.142 z"
         id="path7147"
         style="fill:#1a1a1a;stroke:none" />
      <path
         style="fill:#e6e6e6;stroke:none"
         d="M 192.86319,345.19716 76.865764,504.51892 233.39241,566.01153 339.60692,380.13614 z"
         id="path6944"
         inkscape:connector-curvature="0" />
      <path
         sodipodi:nodetypes="ccccc"
         inkscape:connector-curvature="0"
         id="rect7174"
         d="m 383.61737,313.13626 114.90388,0 1.84338,41.12437 -116.74726,0.58436 z"
         style="fill:#b5dfac;fill-opacity:1;fill-rule:evenodd;stroke:#4d4d4d;stroke-width:1.02455366px;stroke-linecap:butt;stroke-linejoin:miter;stroke-opacity:1"
         transform="matrix(0.96409691,0.26555064,-0.54614591,0.83769007,0,0)" />
      <path
         id="path7198"
         d="m 199.25,372.09375 c -0.64291,0.0673 -1.23708,0.51856 -1.8125,1.34375 l 1.09375,1.40625 5.375,1.5 1.90625,-2.4375 -6.5625,-1.8125 z m -2.15625,1.96875 -4.3125,8.40625 0.0625,0.78125 2.1875,-1.625 3.15625,-6.125 -1.09375,-1.4375 z m 12.53125,0.90625 c -0.6429,0.0673 -1.23708,0.51856 -1.8125,1.34375 l 1.09375,1.4375 4.78125,1.3125 1.90625,-2.40625 -5.96875,-1.6875 z M 216,376.75 l -1.9375,2.4375 -3.46875,6.78125 0.1875,2.28125 0.75,-0.53125 4.625,-9.0625 c 0.30931,-0.89943 0.26524,-1.542 -0.15625,-1.90625 z m -8.53125,0.21875 -4.3125,8.40625 0.0625,0.75 2.1875,-1.59375 3.15625,-6.15625 -1.09375,-1.40625 z M 220,377.875 c -0.6429,0.0673 -1.23708,0.51855 -1.8125,1.34375 l 1.09375,1.40625 4.78125,1.34375 1.90625,-2.4375 L 220,377.875 z m 6.375,1.78125 -1.9375,2.40625 -3.46875,6.8125 0.1875,2.28125 0.75,-0.5625 4.625,-9.03125 c 0.30932,-0.89943 0.26524,-1.542 -0.15625,-1.90625 z m -8.53125,0.1875 -4.34375,8.4375 0.0937,0.75 2.1875,-1.625 3.15625,-6.125 -1.09375,-1.4375 z m 12.53125,0.9375 c -0.6429,0.0673 -1.23707,0.51855 -1.8125,1.34375 l 1.09375,1.40625 4.75,1.3125 1.9375,-2.40625 -5.96875,-1.65625 z m 6.375,1.75 -1.9375,2.4375 -3.46875,6.78125 0.1875,2.28125 0.75,-0.53125 4.625,-9.0625 c 0.30932,-0.89943 0.26524,-1.542 -0.15625,-1.90625 z m -42.21875,0.0625 -1.46875,1.09375 0.15625,1.5 5.15625,1.4375 1.46875,-1.0625 -0.125,-1.5 -5.1875,-1.46875 z m 33.65625,0.15625 -4.3125,8.40625 0.0937,0.75 2.1875,-1.59375 3.15625,-6.15625 -1.125,-1.40625 z m 12.5625,0.90625 c -0.6429,0.0673 -1.23708,0.51855 -1.8125,1.34375 l 1.09375,1.40625 4.75,1.34375 1.9375,-2.40625 -5.96875,-1.6875 z m 6.375,1.78125 -1.9375,2.4375 -3.46875,6.78125 0.1875,2.28125 0.71875,-0.53125 4.65625,-9.0625 c 0.30932,-0.89943 0.26523,-1.542 -0.15625,-1.90625 z m -8.5625,0.21875 -4.3125,8.40625 0.0625,0.75 2.21875,-1.59375 3.15625,-6.15625 -1.125,-1.40625 z M 200.09375,386 l -2.1875,1.625 -3.5,6.78125 -0.71875,2.75 c 0.64287,-0.0673 1.23706,-0.51853 1.8125,-1.34375 l 4.65625,-9.0625 -0.0625,-0.75 z m 51.03125,0.5625 c -0.6429,0.0673 -1.23707,0.51856 -1.8125,1.34375 l 1.09375,1.40625 4.75,1.34375 1.9375,-2.4375 -5.96875,-1.65625 z m -48.25,0.21875 -0.71875,0.53125 -4.3125,8.40625 2.09375,-0.5 3.125,-6.15625 -0.1875,-2.28125 z m 54.625,1.5625 -1.9375,2.40625 -3.46875,6.8125 0.1875,2.25 0.71875,-0.53125 4.65625,-9.0625 c 0.30932,-0.89943 0.26524,-1.51075 -0.15625,-1.875 z m -8.5625,0.1875 -4.3125,8.40625 0.0625,0.78125 2.21875,-1.625 3.125,-6.125 -1.09375,-1.4375 z m -38.46875,0.375 -2.21875,1.59375 -3.46875,6.8125 -0.71875,2.75 c 0.64288,-0.0673 1.23705,-0.51853 1.8125,-1.34375 l 4.65625,-9.0625 -0.0625,-0.75 z M 261.5,389.4375 c -0.6429,0.0673 -1.26832,0.51856 -1.84375,1.34375 l 1.125,1.4375 4.75,1.3125 1.9375,-2.40625 -5.96875,-1.6875 z m -48.25,0.25 -0.71875,0.53125 -4.34375,8.40625 2.125,-0.53125 3.125,-6.15625 -0.1875,-2.25 z m 54.625,1.53125 -1.9375,2.4375 -3.5,6.78125 0.21875,2.28125 0.71875,-0.53125 4.65625,-9.0625 c 0.30932,-0.89943 0.26524,-1.542 -0.15625,-1.90625 z m -8.5625,0.21875 -4.3125,8.40625 0.0625,0.75 L 257.25,399 l 3.15625,-6.15625 -1.09375,-1.40625 z m -38.46875,0.34375 -2.21875,1.625 -3.46875,6.78125 -0.71875,2.75 c 0.64288,-0.0673 1.23706,-0.51853 1.8125,-1.34375 l 4.65625,-9.03125 -0.0625,-0.78125 z m 51.03125,0.5625 c -0.6429,0.0673 -1.26833,0.51855 -1.84375,1.34375 l 1.125,1.40625 4.75,1.34375 1.9375,-2.4375 -5.96875,-1.65625 z m -48.25,0.21875 -0.75,0.53125 -4.3125,8.4375 2.09375,-0.53125 3.15625,-6.15625 -0.1875,-2.28125 z m -34.40625,0.40625 -2.09375,0.5 c -0.30934,0.89945 -0.26526,1.54202 0.15625,1.90625 l 6,1.6875 0.71875,-2.78125 -4.78125,-1.3125 z m 89.03125,1.15625 -1.9375,2.40625 -3.5,6.8125 0.21875,2.28125 0.71875,-0.5625 4.65625,-9.03125 c 0.30932,-0.89943 0.26524,-1.542 -0.15625,-1.90625 z m -8.5625,0.1875 -4.3125,8.4375 0.0625,0.75 2.1875,-1.625 3.15625,-6.125 -1.09375,-1.4375 z m -38.5,0.375 -2.1875,1.59375 -3.46875,6.8125 -0.75,2.75 c 0.64288,-0.0673 1.26831,-0.51854 1.84375,-1.34375 l 4.65625,-9.0625 -0.0937,-0.75 z M 234,395.46875 233.25,396 l -4.3125,8.40625 2.09375,-0.53125 3.15625,-6.125 L 234,395.46875 z m -34.40625,0.375 L 197.5,396.375 c -0.30933,0.89945 -0.26526,1.54202 0.15625,1.90625 l 6,1.65625 0.71875,-2.75 -4.78125,-1.34375 z m 41.96875,1.71875 -2.1875,1.625 -3.46875,6.78125 -0.75,2.75 c 0.64288,-0.0673 1.2683,-0.48729 1.84375,-1.3125 l 4.65625,-9.0625 -0.0937,-0.78125 z m 2.8125,0.78125 -0.75,0.5625 -4.3125,8.40625 2.09375,-0.53125 3.15625,-6.15625 -0.1875,-2.28125 z m -34.40625,0.40625 -2.09375,0.53125 c -0.30934,0.89945 -0.26526,1.51077 0.15625,1.875 l 6,1.6875 0.71875,-2.75 -4.78125,-1.34375 z m 41.96875,1.71875 -2.1875,1.59375 -3.46875,6.8125 -0.75,2.75 c 0.64287,-0.0673 1.2683,-0.51853 1.84375,-1.34375 l 4.625,-9.0625 -0.0625,-0.75 z m 2.8125,0.78125 -0.75,0.53125 -4.3125,8.40625 2.09375,-0.53125 3.15625,-6.125 L 254.75,401.25 z m -34.40625,0.375 -2.09375,0.53125 c -0.30934,0.89946 -0.26527,1.54202 0.15625,1.90625 l 6,1.65625 0.71875,-2.75 -4.78125,-1.34375 z m 64.8125,1.71875 -2.9375,5.75 -0.0312,0 c 0.0693,-0.6213 -0.0201,-1.13826 -0.25,-1.53125 -0.22996,-0.39296 -0.55016,-0.63322 -0.96875,-0.75 -0.51827,-0.14457 -1.06357,-0.0979 -1.625,0.125 -0.56145,0.2229 -1.11698,0.55776 -1.65625,1.03125 -0.53928,0.4735 -1.03245,1.04023 -1.53125,1.71875 -0.4988,0.67855 -0.95023,1.42043 -1.34375,2.1875 -0.40853,0.79634 -0.75347,1.56937 -1,2.34375 -0.24654,0.77438 -0.37415,1.48479 -0.40625,2.125 -0.0321,0.6402 0.0598,1.17523 0.28125,1.625 0.22143,0.44978 0.58814,0.75648 1.125,0.90625 0.4547,0.12686 0.95204,0.11369 1.46875,-0.0625 0.5167,-0.17619 1.0484,-0.53729 1.59375,-1.09375 l 0.0312,0 -0.75,1.46875 1.84375,0.5 8.09375,-15.78125 -1.9375,-0.5625 z m -22.84375,0.0312 -2.1875,1.59375 -3.46875,6.8125 -0.75,2.75 c 0.64288,-0.0673 1.26831,-0.51853 1.84375,-1.34375 l 4.625,-9.0625 -0.0625,-0.75 z m 2.8125,0.78125 -0.75,0.53125 -4.3125,8.40625 2.09375,-0.53125 3.15625,-6.15625 -0.1875,-2.25 z m 23.65625,0.1875 -8.125,15.8125 4.71875,1.3125 c 0.43665,0.1218 0.93298,0.15525 1.4375,0.0937 0.5045,-0.0615 0.98777,-0.22119 1.5,-0.5 0.51223,-0.27881 1.01006,-0.6893 1.5,-1.21875 0.48992,-0.52946 0.96646,-1.20365 1.375,-2 0.5069,-0.98811 0.77995,-1.87309 0.84375,-2.65625 0.0638,-0.78314 -0.13748,-1.39588 -0.59375,-1.84375 0.60161,-0.22016 1.15269,-0.55628 1.65625,-1.03125 0.50353,-0.47497 0.97407,-1.12475 1.375,-1.90625 0.37849,-0.73781 0.61151,-1.3629 0.71875,-1.90625 0.10719,-0.54333 0.0864,-0.99636 -0.0312,-1.375 -0.1177,-0.37862 -0.31093,-0.69832 -0.625,-0.9375 -0.31413,-0.23912 -0.72367,-0.43308 -1.1875,-0.5625 l -4.5625,-1.28125 z m -58.0625,0.1875 -2.09375,0.53125 c -0.30934,0.89946 -0.26526,1.51077 0.15625,1.875 l 6,1.6875 0.71875,-2.75 -4.78125,-1.34375 z m 41.96875,1.71875 -2.1875,1.625 -3.5,6.78125 -0.71875,2.75 c 0.64288,-0.0673 1.26831,-0.51853 1.84375,-1.34375 l 4.625,-9.03125 -0.0625,-0.78125 z m -31.59375,1.1875 -2.09375,0.5 c -0.30934,0.89945 -0.26526,1.54202 0.15625,1.90625 l 6,1.6875 0.71875,-2.78125 -4.78125,-1.3125 z m 48.4375,0.21875 2,0.5625 c 0.19125,0.0534 0.38045,0.11745 0.53125,0.21875 0.15081,0.10126 0.2442,0.2354 0.3125,0.40625 0.0683,0.17087 0.0704,0.39758 0.0312,0.65625 -0.0393,0.2587 -0.15462,0.56883 -0.34375,0.9375 -0.34064,0.664 -0.69686,1.11717 -1.09375,1.34375 -0.39693,0.22656 -0.77429,0.29405 -1.15625,0.1875 l -2.1875,-0.625 1.90625,-3.6875 z m -9.71875,1.625 c 0.16067,-0.0142 0.30955,-0.0131 0.46875,0.0312 0.30923,0.0863 0.51725,0.26501 0.625,0.53125 0.10809,0.26627 0.13205,0.60021 0.0937,0.96875 -0.0383,0.36857 -0.13995,0.76081 -0.3125,1.21875 -0.17256,0.45797 -0.35936,0.91809 -0.59375,1.375 -0.24227,0.47223 -0.53092,0.91647 -0.8125,1.34375 -0.28157,0.4273 -0.56991,0.81388 -0.875,1.125 -0.3051,0.31112 -0.61775,0.5405 -0.9375,0.6875 -0.31976,0.1471 -0.61911,0.18255 -0.9375,0.0937 -0.30035,-0.0838 -0.52107,-0.25757 -0.625,-0.53125 -0.10368,-0.27368 -0.13055,-0.61404 -0.0937,-1 0.0368,-0.38596 0.14902,-0.82102 0.3125,-1.28125 0.16346,-0.46023 0.33549,-0.90125 0.5625,-1.34375 0.24203,-0.47178 0.53005,-0.92493 0.8125,-1.34375 0.28243,-0.41881 0.56913,-0.76008 0.875,-1.0625 0.30587,-0.30241 0.61316,-0.54177 0.9375,-0.6875 0.16217,-0.0729 0.33933,-0.11079 0.5,-0.125 z m -28.34375,1.03125 -2.09375,0.53125 c -0.30934,0.89945 -0.26527,1.54202 0.15625,1.90625 l 5.96875,1.65625 0.75,-2.75 -4.78125,-1.34375 z m 10.34375,2.90625 -2.09375,0.53125 c -0.30934,0.89945 -0.23402,1.51077 0.1875,1.875 l 5.96875,1.6875 0.75,-2.75 -4.8125,-1.34375 z m 24.59375,0.5 2.34375,0.65625 c 0.46384,0.1294 0.73953,0.38719 0.84375,0.8125 0.1042,0.4253 -0.0526,1.06381 -0.46875,1.875 -0.21201,0.41325 -0.43365,0.72752 -0.65625,0.96875 -0.22263,0.24126 -0.43135,0.41697 -0.65625,0.53125 -0.2249,0.11424 -0.46235,0.1745 -0.6875,0.1875 -0.22517,0.013 -0.41597,-0.004 -0.625,-0.0625 l -2.3125,-0.625 2.21875,-4.34375 z"
         style="font-size:29.87902069px;font-style:normal;font-variant:normal;font-weight:normal;font-stretch:normal;text-align:end;line-height:125%;letter-spacing:0px;word-spacing:0px;writing-mode:lr-tb;text-anchor:end;fill:#000000;fill-opacity:1;stroke:none;font-family:Digital-7;-inkscape-font-specification:Digital-7"
         inkscape:connector-curvature="0" />
      <path
         transform="translate(2,2)"
         d="m 295.58379,334.01669 c 0,4.24518 -3.44139,7.68658 -7.68657,7.68658 -4.24518,0 -7.68658,-3.4414 -7.68658,-7.68658 0,-4.24518 3.4414,-7.68657 7.68658,-7.68657 4.24518,0 7.68657,3.44139 7.68657,7.68657 z"
         sodipodi:ry="7.6865764"
         sodipodi:rx="7.6865764"
         sodipodi:cy="334.01669"
         sodipodi:cx="287.89722"
         id="path7233"
         style="fill:url(#radialGradient7476);fill-opacity:1;fill-rule:evenodd;stroke:none"
         sodipodi:type="arc" />
      <path
         id="path7418"
         d="m 176.5625,415.21875 c -1.83668,0.009 -3.80746,0.97862 -4.59375,2.0625 -0.52575,0.72473 -0.50555,1.17113 -0.34375,1.59375 0.1618,0.42262 0.61658,0.93939 1.65625,1.28125 2.08275,0.68483 5.22366,-0.3234 6.28125,-1.78125 0.52933,-0.72966 0.50127,-1.1747 0.34375,-1.59375 -0.15752,-0.41905 -0.58742,-0.94008 -1.625,-1.28125 -0.53795,-0.17689 -1.12406,-0.28423 -1.71875,-0.28125 z m 15.84375,5.21875 c -1.83668,0.009 -3.80746,0.97862 -4.59375,2.0625 -0.52575,0.72473 -0.50555,1.17113 -0.34375,1.59375 0.1618,0.42262 0.61658,0.93939 1.65625,1.28125 2.07008,0.68067 5.21846,-0.34749 6.28125,-1.8125 0.52934,-0.72966 0.50127,-1.1747 0.34375,-1.59375 -0.15752,-0.41905 -0.58742,-0.94008 -1.625,-1.28125 -0.48734,-0.16025 -1.06925,-0.25325 -1.71875,-0.25 z m 15.84375,5.21875 c -1.8366,0.009 -3.76662,0.96542 -4.5625,2.0625 -0.52933,0.72966 -0.50127,1.1747 -0.34375,1.59375 0.15752,0.41905 0.58742,0.94008 1.625,1.28125 2.06593,0.6793 5.25688,-0.35736 6.3125,-1.8125 0.52575,-0.72472 0.50555,-1.17112 0.34375,-1.59375 -0.1618,-0.42263 -0.61659,-0.93939 -1.65625,-1.28125 -0.48734,-0.16025 -1.06925,-0.25325 -1.71875,-0.25 z m -40.8125,2.125 c -1.83659,0.009 -3.76665,0.96545 -4.5625,2.0625 -0.52933,0.72966 -0.50127,1.1747 -0.34375,1.59375 0.15752,0.41905 0.58742,0.94008 1.625,1.28125 2.06594,0.67932 5.25686,-0.35734 6.3125,-1.8125 0.52575,-0.72473 0.50555,-1.17113 0.34375,-1.59375 -0.1618,-0.42262 -0.61658,-0.93939 -1.65625,-1.28125 -0.48734,-0.16025 -1.06925,-0.25325 -1.71875,-0.25 z m 56.65625,3.0625 c -1.83658,0.009 -3.76664,0.96544 -4.5625,2.0625 -0.52933,0.72966 -0.50127,1.17469 -0.34375,1.59375 0.15752,0.41906 0.58743,0.94009 1.625,1.28125 2.07859,0.68347 5.26205,-0.33325 6.3125,-1.78125 0.52574,-0.72472 0.50555,-1.17112 0.34375,-1.59375 -0.1618,-0.42263 -0.61659,-0.93939 -1.65625,-1.28125 -0.53795,-0.17689 -1.12406,-0.28423 -1.71875,-0.28125 z M 183.28125,433 c -1.83657,0.009 -3.76662,0.96543 -4.5625,2.0625 -0.52934,0.72967 -0.50127,1.1747 -0.34375,1.59375 0.15752,0.41905 0.58741,0.94007 1.625,1.28125 2.06594,0.67931 5.25687,-0.35736 6.3125,-1.8125 0.52933,-0.72966 0.50127,-1.1747 0.34375,-1.59375 -0.15752,-0.41905 -0.58742,-0.94008 -1.625,-1.28125 -0.4707,-0.15478 -1.10078,-0.25325 -1.75,-0.25 z m 56.6875,3.0625 c -1.83667,0.009 -3.80745,0.97862 -4.59375,2.0625 -0.52575,0.72473 -0.50555,1.17113 -0.34375,1.59375 0.1618,0.42262 0.61659,0.9394 1.65625,1.28125 2.08273,0.68483 5.22365,-0.32339 6.28125,-1.78125 0.52933,-0.72967 0.50127,-1.1747 0.34375,-1.59375 -0.15752,-0.41905 -0.58742,-0.94008 -1.625,-1.28125 -0.53795,-0.17689 -1.12406,-0.28423 -1.71875,-0.28125 z m -40.8125,2.125 c -1.83667,0.009 -3.80744,0.97861 -4.59375,2.0625 -0.52575,0.72472 -0.50555,1.17113 -0.34375,1.59375 0.1618,0.42262 0.61659,0.93939 1.65625,1.28125 2.08276,0.68484 5.22364,-0.32338 6.28125,-1.78125 0.52933,-0.72966 0.50127,-1.1747 0.34375,-1.59375 -0.15752,-0.41905 -0.58742,-0.94008 -1.625,-1.28125 -0.53795,-0.17689 -1.12406,-0.28423 -1.71875,-0.28125 z m -40.8125,2.15625 c -1.83668,0.009 -3.80744,0.97861 -4.59375,2.0625 -0.52835,0.72831 -0.50231,1.1512 -0.34375,1.5625 0.15856,0.4113 0.61027,0.93731 1.65625,1.28125 2.08278,0.68484 5.22365,-0.32339 6.28125,-1.78125 0.52934,-0.72966 0.50127,-1.1747 0.34375,-1.59375 -0.15752,-0.41905 -0.58742,-0.94008 -1.625,-1.28125 -0.48734,-0.16025 -1.06925,-0.25325 -1.71875,-0.25 z m 97.46875,0.9375 c -1.83667,0.009 -3.80744,0.97861 -4.59375,2.0625 -0.52575,0.72472 -0.50555,1.17112 -0.34375,1.59375 0.1618,0.42263 0.6166,0.9394 1.65625,1.28125 2.08275,0.68484 5.22364,-0.32339 6.28125,-1.78125 0.52934,-0.72966 0.50127,-1.1747 0.34375,-1.59375 -0.15752,-0.41905 -0.58742,-0.94008 -1.625,-1.28125 -0.53795,-0.17689 -1.12406,-0.28423 -1.71875,-0.28125 z M 215,443.40625 c -1.83666,0.009 -3.80746,0.97863 -4.59375,2.0625 -0.52576,0.72474 -0.50555,1.17113 -0.34375,1.59375 0.1618,0.42262 0.61659,0.93939 1.65625,1.28125 2.08276,0.68484 5.22365,-0.3234 6.28125,-1.78125 0.52933,-0.72967 0.50127,-1.1747 0.34375,-1.59375 -0.15752,-0.41905 -0.58742,-0.94008 -1.625,-1.28125 -0.53795,-0.17689 -1.12406,-0.28423 -1.71875,-0.28125 z m -40.8125,2.125 c -1.8366,0.009 -3.76664,0.96544 -4.5625,2.0625 -0.52933,0.72966 -0.50127,1.1747 -0.34375,1.59375 0.15752,0.41905 0.58742,0.94008 1.625,1.28125 2.07861,0.68347 5.26207,-0.33327 6.3125,-1.78125 0.52575,-0.72472 0.50555,-1.17113 0.34375,-1.59375 -0.1618,-0.42262 -0.61659,-0.9394 -1.65625,-1.28125 -0.53795,-0.17689 -1.12406,-0.28423 -1.71875,-0.28125 z M 271.65625,446.5 c -1.83658,0.009 -3.76661,0.96541 -4.5625,2.0625 -0.52933,0.72966 -0.50127,1.17469 -0.34375,1.59375 0.15752,0.41906 0.58743,0.94008 1.625,1.28125 2.06594,0.67932 5.25686,-0.35734 6.3125,-1.8125 0.52575,-0.72472 0.50555,-1.17113 0.34375,-1.59375 -0.1618,-0.42262 -0.61659,-0.9394 -1.65625,-1.28125 -0.48734,-0.16025 -1.06925,-0.25325 -1.71875,-0.25 z m -40.8125,2.125 c -1.83659,0.009 -3.76664,0.96544 -4.5625,2.0625 -0.52933,0.72966 -0.50127,1.1747 -0.34375,1.59375 0.15752,0.41905 0.58742,0.94008 1.625,1.28125 2.07859,0.68347 5.26207,-0.33328 6.3125,-1.78125 0.52575,-0.72472 0.50555,-1.17112 0.34375,-1.59375 -0.1618,-0.42263 -0.61659,-0.93939 -1.65625,-1.28125 -0.53795,-0.17689 -1.12406,-0.28423 -1.71875,-0.28125 z m -40.8125,2.125 c -1.83658,0.009 -3.76665,0.96546 -4.5625,2.0625 -0.52934,0.72966 -0.50127,1.1747 -0.34375,1.59375 0.15752,0.41905 0.58743,0.94008 1.625,1.28125 2.07862,0.68347 5.26206,-0.33326 6.3125,-1.78125 0.52575,-0.72472 0.50555,-1.17113 0.34375,-1.59375 -0.1618,-0.42262 -0.61659,-0.9394 -1.65625,-1.28125 -0.53795,-0.17689 -1.12406,-0.28423 -1.71875,-0.28125 z m -40.8125,2.125 c -1.83661,0.009 -3.76665,0.96544 -4.5625,2.0625 -0.52933,0.72966 -0.50127,1.1747 -0.34375,1.59375 0.15752,0.41905 0.58742,0.94008 1.625,1.28125 2.0786,0.68347 5.26207,-0.33328 6.3125,-1.78125 0.52575,-0.72472 0.50555,-1.17113 0.34375,-1.59375 -0.1618,-0.42262 -0.61659,-0.93939 -1.65625,-1.28125 -0.53795,-0.17689 -1.12406,-0.28423 -1.71875,-0.28125 z m 97.46875,0.96875 c -1.83658,0.009 -3.76664,0.96544 -4.5625,2.0625 -0.52934,0.72967 -0.50127,1.1747 -0.34375,1.59375 0.15752,0.41905 0.58742,0.94008 1.625,1.28125 2.06592,0.67931 5.25689,-0.35737 6.3125,-1.8125 0.52575,-0.72472 0.50555,-1.17113 0.34375,-1.59375 -0.1618,-0.42262 -0.61659,-0.9394 -1.65625,-1.28125 -0.48734,-0.16025 -1.06925,-0.25325 -1.71875,-0.25 z m -40.8125,2.125 c -1.83658,0.009 -3.76664,0.96544 -4.5625,2.0625 -0.52934,0.72967 -0.50127,1.1747 -0.34375,1.59375 0.15752,0.41905 0.58742,0.94008 1.625,1.28125 2.07862,0.68347 5.26209,-0.33329 6.3125,-1.78125 0.52575,-0.72472 0.50555,-1.17112 0.34375,-1.59375 -0.1618,-0.42263 -0.61659,-0.9394 -1.65625,-1.28125 -0.53795,-0.17689 -1.12406,-0.28423 -1.71875,-0.28125 z m -40.8125,2.125 c -1.8366,0.009 -3.76665,0.96545 -4.5625,2.0625 -0.52575,0.72473 -0.50555,1.17113 -0.34375,1.59375 0.1618,0.42262 0.61658,0.93939 1.65625,1.28125 2.08276,0.68484 5.22365,-0.32338 6.28125,-1.78125 0.52934,-0.72966 0.50127,-1.1747 0.34375,-1.59375 -0.15752,-0.41905 -0.58742,-0.94008 -1.625,-1.28125 -0.52133,-0.17142 -1.15558,-0.28423 -1.75,-0.28125 z m 97.5,0.9375 c -1.83667,0.009 -3.80746,0.97862 -4.59375,2.0625 -0.52576,0.72473 -0.50555,1.17113 -0.34375,1.59375 0.1618,0.42262 0.61658,0.93939 1.65625,1.28125 2.08274,0.68483 5.22365,-0.3234 6.28125,-1.78125 0.52934,-0.72966 0.50127,-1.1747 0.34375,-1.59375 -0.15752,-0.41905 -0.58742,-0.94008 -1.625,-1.28125 -0.53795,-0.17689 -1.12406,-0.28423 -1.71875,-0.28125 z M 221.75,461.1875 c -1.83667,0.009 -3.80746,0.97862 -4.59375,2.0625 -0.52575,0.72472 -0.50555,1.17113 -0.34375,1.59375 0.1618,0.42262 0.61659,0.9394 1.65625,1.28125 2.0701,0.68068 5.21847,-0.34748 6.28125,-1.8125 0.52933,-0.72966 0.50127,-1.1747 0.34375,-1.59375 -0.15752,-0.41905 -0.58741,-0.94007 -1.625,-1.28125 -0.48734,-0.16025 -1.06925,-0.25325 -1.71875,-0.25 z m -40.8125,2.125 c -1.83668,0.009 -3.80746,0.97862 -4.59375,2.0625 -0.52575,0.72472 -0.50555,1.17113 -0.34375,1.59375 0.1618,0.42262 0.61659,0.93939 1.65625,1.28125 2.08277,0.68484 5.22365,-0.32339 6.28125,-1.78125 0.52934,-0.72967 0.50127,-1.1747 0.34375,-1.59375 -0.15752,-0.41905 -0.58742,-0.94008 -1.625,-1.28125 -0.53795,-0.17689 -1.12406,-0.28423 -1.71875,-0.28125 z m -40.8125,2.125 c -1.83668,0.009 -3.80744,0.97861 -4.59375,2.0625 -0.52575,0.72473 -0.50555,1.17113 -0.34375,1.59375 0.1618,0.42262 0.61658,0.93939 1.65625,1.28125 2.08276,0.68484 5.22367,-0.32341 6.28125,-1.78125 0.52934,-0.72967 0.50127,-1.1747 0.34375,-1.59375 -0.15752,-0.41905 -0.58742,-0.94008 -1.625,-1.28125 -0.53795,-0.17689 -1.12406,-0.28423 -1.71875,-0.28125 z m 97.46875,0.9375 c -1.83668,0.009 -3.80746,0.97862 -4.59375,2.0625 -0.52575,0.72473 -0.50555,1.17113 -0.34375,1.59375 0.1618,0.42262 0.61659,0.9394 1.65625,1.28125 2.08274,0.68484 5.22365,-0.32339 6.28125,-1.78125 0.52934,-0.72967 0.50127,-1.1747 0.34375,-1.59375 -0.15752,-0.41905 -0.58741,-0.94007 -1.625,-1.28125 -0.53795,-0.17689 -1.12406,-0.28423 -1.71875,-0.28125 z m -40.8125,2.15625 c -1.83669,0.009 -3.80746,0.97862 -4.59375,2.0625 -0.52575,0.72472 -0.50555,1.17112 -0.34375,1.59375 0.1618,0.42263 0.61659,0.9394 1.65625,1.28125 2.06594,0.67932 5.25687,-0.35735 6.3125,-1.8125 0.52575,-0.72472 0.50555,-1.17112 0.34375,-1.59375 -0.1618,-0.42263 -0.61659,-0.9394 -1.65625,-1.28125 -0.48734,-0.16025 -1.06925,-0.25325 -1.71875,-0.25 z m -40.8125,2.125 c -1.83661,0.009 -3.76665,0.96544 -4.5625,2.0625 -0.52934,0.72967 -0.50127,1.1747 -0.34375,1.59375 0.15752,0.41905 0.58741,0.94007 1.625,1.28125 2.0786,0.68347 5.26207,-0.33328 6.3125,-1.78125 0.52575,-0.72473 0.50555,-1.17113 0.34375,-1.59375 -0.1618,-0.42262 -0.61659,-0.93939 -1.65625,-1.28125 -0.53795,-0.17689 -1.12406,-0.28423 -1.71875,-0.28125 z m 97.46875,0.9375 c -1.8366,0.009 -3.76665,0.96545 -4.5625,2.0625 -0.52934,0.72967 -0.50127,1.1747 -0.34375,1.59375 0.15752,0.41905 0.58742,0.94008 1.625,1.28125 2.07859,0.68347 5.26206,-0.33326 6.3125,-1.78125 0.52575,-0.72472 0.50555,-1.17113 0.34375,-1.59375 -0.1618,-0.42262 -0.61659,-0.93939 -1.65625,-1.28125 -0.53797,-0.17689 -1.12406,-0.28423 -1.71875,-0.28125 z m -40.8125,2.125 c -1.83659,0.009 -3.76665,0.96545 -4.5625,2.0625 -0.52934,0.72967 -0.50127,1.1747 -0.34375,1.59375 0.15752,0.41905 0.58742,0.94008 1.625,1.28125 2.07859,0.68347 5.26207,-0.33328 6.3125,-1.78125 0.52575,-0.72472 0.50555,-1.17113 0.34375,-1.59375 -0.1618,-0.42262 -0.61659,-0.93939 -1.65625,-1.28125 -0.53797,-0.17689 -1.12406,-0.28423 -1.71875,-0.28125 z m -40.8125,2.15625 c -1.83661,0.009 -3.76665,0.96544 -4.5625,2.0625 -0.52933,0.72966 -0.50127,1.1747 -0.34375,1.59375 0.15752,0.41905 0.58741,0.94008 1.625,1.28125 2.06592,0.6793 5.25688,-0.35737 6.3125,-1.8125 0.52575,-0.72472 0.50555,-1.17113 0.34375,-1.59375 -0.1618,-0.42262 -0.61659,-0.9394 -1.65625,-1.28125 -0.48734,-0.16025 -1.06925,-0.25325 -1.71875,-0.25 z M 131,478 c -1.8366,0.009 -3.76664,0.96544 -4.5625,2.0625 -0.52934,0.72967 -0.50127,1.1747 -0.34375,1.59375 0.15752,0.41905 0.58742,0.94008 1.625,1.28125 2.07858,0.68347 5.26206,-0.33327 6.3125,-1.78125 0.52576,-0.72473 0.50555,-1.17113 0.34375,-1.59375 -0.1618,-0.42262 -0.61658,-0.93939 -1.65625,-1.28125 C 132.18075,478.10435 131.59467,477.99702 131,478 z m 97.46875,0.9375 c -1.83661,0.009 -3.76664,0.96543 -4.5625,2.0625 -0.52934,0.72966 -0.50127,1.1747 -0.34375,1.59375 0.15752,0.41905 0.58742,0.94008 1.625,1.28125 2.0786,0.68347 5.26207,-0.33328 6.3125,-1.78125 0.52575,-0.72472 0.50555,-1.17113 0.34375,-1.59375 -0.1618,-0.42262 -0.61659,-0.93939 -1.65625,-1.28125 -0.53797,-0.17689 -1.12406,-0.28423 -1.71875,-0.28125 z m -40.8125,2.125 c -1.8366,0.009 -3.76665,0.96545 -4.5625,2.0625 -0.52575,0.72472 -0.50555,1.17112 -0.34375,1.59375 0.1618,0.42263 0.61659,0.9394 1.65625,1.28125 2.08276,0.68484 5.22364,-0.32339 6.28125,-1.78125 0.52933,-0.72966 0.50127,-1.1747 0.34375,-1.59375 -0.15752,-0.41905 -0.58742,-0.94008 -1.625,-1.28125 -0.52136,-0.17143 -1.1556,-0.28423 -1.75,-0.28125 z m -40.78125,2.15625 c -1.8367,0.009 -3.80746,0.97862 -4.59375,2.0625 -0.52575,0.72472 -0.50555,1.17113 -0.34375,1.59375 0.1618,0.42262 0.61658,0.93939 1.65625,1.28125 2.07009,0.68067 5.21844,-0.34748 6.28125,-1.8125 0.52934,-0.72967 0.50127,-1.1747 0.34375,-1.59375 -0.15752,-0.41905 -0.58741,-0.94007 -1.625,-1.28125 -0.48734,-0.16025 -1.06925,-0.25325 -1.71875,-0.25 z m 97.46875,0.9375 c -1.83669,0.009 -3.80746,0.97863 -4.59375,2.0625 -0.52575,0.72472 -0.50555,1.17113 -0.34375,1.59375 0.1618,0.42262 0.61659,0.93939 1.65625,1.28125 2.08275,0.68484 5.22366,-0.32339 6.28125,-1.78125 0.52933,-0.72966 0.50127,-1.1747 0.34375,-1.59375 -0.15752,-0.41905 -0.58742,-0.94008 -1.625,-1.28125 -0.53795,-0.17689 -1.12406,-0.28423 -1.71875,-0.28125 z m -40.8125,2.125 c -1.8367,0.009 -3.80744,0.97861 -4.59375,2.0625 -0.52575,0.72472 -0.50555,1.17113 -0.34375,1.59375 0.1618,0.42262 0.61659,0.9394 1.65625,1.28125 2.08274,0.68483 5.22366,-0.3234 6.28125,-1.78125 0.52933,-0.72965 0.50127,-1.17469 0.34375,-1.59375 -0.15752,-0.41906 -0.58743,-0.94008 -1.625,-1.28125 -0.53797,-0.17689 -1.12406,-0.28423 -1.71875,-0.28125 z m -40.8125,2.125 c -1.8367,0.009 -3.80744,0.97861 -4.59375,2.0625 -0.52575,0.72472 -0.50555,1.17113 -0.34375,1.59375 0.1618,0.42262 0.61659,0.93939 1.65625,1.28125 2.08273,0.68483 5.22365,-0.32339 6.28125,-1.78125 0.52933,-0.72966 0.50127,-1.1747 0.34375,-1.59375 -0.15752,-0.41905 -0.58742,-0.94008 -1.625,-1.28125 -0.53795,-0.17689 -1.12406,-0.28423 -1.71875,-0.28125 z m -40.8125,2.15625 c -1.83669,0.009 -3.80745,0.97861 -4.59375,2.0625 -0.52575,0.72472 -0.50555,1.17113 -0.34375,1.59375 0.1618,0.42262 0.61659,0.9394 1.65625,1.28125 2.07009,0.68068 5.21843,-0.34746 6.28125,-1.8125 0.52933,-0.72966 0.50127,-1.17469 0.34375,-1.59375 -0.15752,-0.41906 -0.58742,-0.94008 -1.625,-1.28125 -0.48734,-0.16025 -1.06925,-0.25325 -1.71875,-0.25 z M 219.375,491.5 c -1.83668,0.009 -3.80746,0.97862 -4.59375,2.0625 -0.52575,0.72472 -0.50555,1.17113 -0.34375,1.59375 0.1618,0.42262 0.61659,0.9394 1.65625,1.28125 2.08275,0.68484 5.22366,-0.32339 6.28125,-1.78125 0.52933,-0.72966 0.50127,-1.17469 0.34375,-1.59375 -0.15752,-0.41906 -0.58743,-0.94008 -1.625,-1.28125 -0.53795,-0.17689 -1.12406,-0.28423 -1.71875,-0.28125 z m -40.8125,2.125 c -1.8366,0.009 -3.76665,0.96545 -4.5625,2.0625 -0.52933,0.72967 -0.50127,1.1747 -0.34375,1.59375 0.15752,0.41905 0.58742,0.94008 1.625,1.28125 2.07857,0.68348 5.26207,-0.33328 6.3125,-1.78125 0.52576,-0.72473 0.50555,-1.17113 0.34375,-1.59375 -0.1618,-0.42262 -0.61658,-0.93939 -1.65625,-1.28125 -0.53795,-0.17689 -1.12406,-0.28423 -1.71875,-0.28125 z m -41.15625,2.15625 c -1.74955,0.10478 -3.47472,1.00565 -4.21875,2.03125 -0.52934,0.72966 -0.50127,1.1747 -0.34375,1.59375 0.15752,0.41905 0.58742,0.94008 1.625,1.28125 2.07858,0.68347 5.26205,-0.33326 6.3125,-1.78125 0.52575,-0.72473 0.50555,-1.17112 0.34375,-1.59375 -0.1618,-0.42263 -0.6166,-0.9394 -1.65625,-1.28125 -0.0601,-0.0197 -0.20175,-0.0458 -0.40625,-0.0937 -0.52401,-0.12297 -1.07947,-0.19079 -1.65625,-0.15625 z m 97.8125,0.9375 c -1.83659,0.009 -3.76665,0.96545 -4.5625,2.0625 -0.52934,0.72967 -0.50127,1.1747 -0.34375,1.59375 0.15752,0.41905 0.58742,0.94008 1.625,1.28125 2.07858,0.68347 5.26207,-0.33327 6.3125,-1.78125 0.52575,-0.72472 0.50555,-1.17113 0.34375,-1.59375 -0.1618,-0.42262 -0.61659,-0.93939 -1.65625,-1.28125 -0.53795,-0.17689 -1.12406,-0.28423 -1.71875,-0.28125 z m -40.8125,2.125 c -1.83659,0.009 -3.76663,0.96543 -4.5625,2.0625 -0.52933,0.72966 -0.50127,1.1747 -0.34375,1.59375 0.15752,0.41905 0.58742,0.94008 1.625,1.28125 2.07856,0.68347 5.26208,-0.33327 6.3125,-1.78125 0.52575,-0.72471 0.50555,-1.17112 0.34375,-1.59375 -0.1618,-0.42263 -0.61659,-0.9394 -1.65625,-1.28125 -0.53795,-0.17689 -1.12406,-0.28423 -1.71875,-0.28125 z M 153.25,501 c -1.74954,0.10478 -3.47472,1.00565 -4.21875,2.03125 -0.52933,0.72967 -0.50127,1.1747 -0.34375,1.59375 0.15752,0.41905 0.58742,0.94008 1.625,1.28125 2.07858,0.68347 5.26206,-0.33328 6.3125,-1.78125 0.52575,-0.72473 0.50555,-1.17113 0.34375,-1.59375 -0.1618,-0.42262 -0.6166,-0.9394 -1.65625,-1.28125 -0.1267,-0.0416 -0.22026,-0.0575 -0.375,-0.0937 -0.51078,-0.11987 -1.1142,-0.19059 -1.6875,-0.15625 z m 57,3.0625 c -1.83658,0.009 -3.76665,0.96545 -4.5625,2.0625 -0.52933,0.72966 -0.50127,1.1747 -0.34375,1.59375 0.15752,0.41905 0.58742,0.94008 1.625,1.28125 2.07858,0.68347 5.26206,-0.33327 6.3125,-1.78125 0.52933,-0.72966 0.50127,-1.1747 0.34375,-1.59375 -0.15752,-0.41905 -0.58742,-0.94008 -1.625,-1.28125 -0.52131,-0.17142 -1.15558,-0.28423 -1.75,-0.28125 z m -41.125,2.125 c -1.73135,0.10369 -3.50877,1.04076 -4.25,2.0625 -0.52574,0.72472 -0.50555,1.17112 -0.34375,1.59375 0.1618,0.42263 0.6166,0.9394 1.65625,1.28125 2.08276,0.68484 5.22364,-0.32339 6.28125,-1.78125 0.52933,-0.72966 0.50127,-1.17469 0.34375,-1.59375 -0.15752,-0.41906 -0.58743,-0.94009 -1.625,-1.28125 -0.26262,-0.0863 -0.41316,-0.12662 -0.40625,-0.125 -0.52401,-0.12297 -1.07947,-0.19079 -1.65625,-0.15625 z m 57,3.09375 c -1.83669,0.009 -3.80744,0.9786 -4.59375,2.0625 -0.52575,0.72472 -0.50555,1.17113 -0.34375,1.59375 0.1618,0.42262 0.61659,0.93939 1.65625,1.28125 2.0701,0.68068 5.21845,-0.34748 6.28125,-1.8125 0.52933,-0.72966 0.50127,-1.17469 0.34375,-1.59375 -0.15752,-0.41906 -0.58742,-0.94008 -1.625,-1.28125 -0.48736,-0.16025 -1.06925,-0.25325 -1.71875,-0.25 z m -41.15625,2.125 c -1.73133,0.10369 -3.50879,1.04077 -4.25,2.0625 -0.52575,0.72471 -0.50555,1.17112 -0.34375,1.59375 0.1618,0.42263 0.6166,0.93939 1.65625,1.28125 2.07011,0.68068 5.21843,-0.34746 6.28125,-1.8125 0.53193,-0.73325 0.49806,-1.15484 0.34375,-1.5625 -0.15431,-0.40766 -0.5811,-0.938 -1.625,-1.28125 -0.26267,-0.0863 -0.41329,-0.12665 -0.40625,-0.125 -0.52401,-0.12297 -1.07947,-0.19079 -1.65625,-0.15625 z m 15.84375,5.21875 c -1.73019,0.10362 -3.46734,1.02672 -4.21875,2.0625 -0.52933,0.72966 -0.50127,1.1747 -0.34375,1.59375 0.15752,0.41905 0.58742,0.94008 1.625,1.28125 2.06594,0.67931 5.25687,-0.35736 6.3125,-1.8125 0.52575,-0.72472 0.50555,-1.17113 0.34375,-1.59375 -0.1618,-0.42262 -0.61659,-0.9394 -1.65625,-1.28125 -0.0602,-0.0198 -0.2019,-0.0458 -0.40625,-0.0937 -0.52401,-0.12297 -1.07947,-0.19079 -1.65625,-0.15625 z m 15.84375,5.21875 c -1.74955,0.10478 -3.47474,1.00567 -4.21875,2.03125 -0.52933,0.72966 -0.50127,1.1747 -0.34375,1.59375 0.15752,0.41905 0.58742,0.94008 1.625,1.28125 2.07857,0.68347 5.26207,-0.33328 6.3125,-1.78125 0.52575,-0.72473 0.50555,-1.17113 0.34375,-1.59375 -0.1618,-0.42262 -0.61658,-0.93939 -1.65625,-1.28125 -0.12657,-0.0416 -0.22,-0.0574 -0.375,-0.0937 -0.51078,-0.11987 -1.1142,-0.19059 -1.6875,-0.15625 z"
         style="fill:#000000;fill-rule:evenodd;stroke:none"
         inkscape:connector-curvature="0" />
      <path
         inkscape:connector-curvature="0"
         id="path7421"
         d="m 289.5,440.42468 -10.9375,11.75 7.0625,4.3125 9.5,-13.375 z"
         style="fill:#1a1a1a;stroke:none" />
      <path
         inkscape:connector-curvature="0"
         id="path7423"
         d="m 283.9375,448.61218 -3.25,2.9375 4.1875,2.75 3.0625,-3.9375 z"
         style="fill:#999999;stroke:none" />
      <g
         id="g7431">
        <path
           style="fill:#999999;stroke:none"
           d="m 280.75,451.17468 -0.1875,-3.75 3.375,1.5 0.5625,4.9375 z"
           id="path7425"
           inkscape:connector-curvature="0"
           sodipodi:nodetypes="ccccc" />
        <path
           style="fill:#333333;stroke:none"
           d="m 283.6875,448.98718 3.1875,-2.1875 1.0625,3.4375 -3.5,3.6875 z"
           id="path7427"
           inkscape:connector-curvature="0"
           sodipodi:nodetypes="ccccc" />
        <path
           style="fill:#ececec;stroke:none"
           d="m 280.4375,447.54968 3.25,-2.0625 3.25,1.5 -2.9375,2.25 z"
           id="path7429"
           inkscape:connector-curvature="0"
           sodipodi:nodetypes="ccccc" />
      </g>
      <path
         inkscape:connector-curvature="0"
         id="path7441"
         d="m 293.18313,446.38677 c -0.14393,0.20074 -0.21122,0.38037 -0.20233,0.54022 0.009,0.15984 0.0944,0.29306 0.25719,0.40013 l 0.29856,0.19634 -0.26847,0.37445 0.29117,0.19148 0.26847,-0.37445 1.71279,1.12639 0.26184,-0.36521 -1.71278,-1.1264 0.30818,-0.42986 -0.29117,-0.19148 -0.30818,0.42986 -0.27915,-0.18358 c -0.0878,-0.0578 -0.13008,-0.12103 -0.12616,-0.19017 0.004,-0.0691 0.0379,-0.1477 0.10166,-0.2366 0.0227,-0.0316 0.0492,-0.0653 0.0798,-0.10002 0.0306,-0.0347 0.0626,-0.0648 0.0956,-0.0896 l -0.28655,-0.18844 c -0.035,0.0276 -0.0714,0.0628 -0.10844,0.10377 -0.037,0.041 -0.0673,0.0787 -0.092,0.11312 z m 0.91572,-1.27724 c -0.14392,0.20073 -0.21195,0.38139 -0.20306,0.54124 0.009,0.15984 0.0944,0.29304 0.25719,0.40012 l 0.29856,0.19634 -0.26846,0.37445 0.29116,0.19149 0.26847,-0.37445 1.71279,1.12639 0.26258,-0.36625 -1.71278,-1.1264 0.30817,-0.42984 -0.29116,-0.1915 -0.30818,0.42985 -0.27915,-0.18357 c -0.0878,-0.0578 -0.1301,-0.121 -0.12617,-0.19016 0.004,-0.0691 0.0379,-0.14769 0.10165,-0.2366 0.0227,-0.0316 0.0492,-0.0653 0.0799,-0.10004 0.0306,-0.0347 0.0619,-0.0639 0.0948,-0.0886 l -0.28655,-0.18845 c -0.035,0.0276 -0.0707,0.0617 -0.10769,0.10277 -0.037,0.041 -0.0673,0.0787 -0.092,0.11313 z m -6.14258,10.10243 c -0.12742,0.17774 -0.21195,0.35126 -0.25332,0.52029 -0.0414,0.16903 -0.0478,0.33024 -0.0192,0.48401 0.0286,0.15376 0.0899,0.29508 0.18494,0.42504 0.095,0.12995 0.21661,0.24361 0.3639,0.34045 0.14727,0.0969 0.30021,0.16378 0.45967,0.20116 0.15946,0.0375 0.31962,0.0418 0.47974,0.0117 0.16008,-0.0301 0.3149,-0.0933 0.46475,-0.19103 0.14985,-0.0977 0.28859,-0.23556 0.41601,-0.41328 0.12541,-0.17493 0.20947,-0.3478 0.25185,-0.51824 0.0423,-0.17043 0.0493,-0.33225 0.0206,-0.48606 -0.0285,-0.1538 -0.0896,-0.29635 -0.18325,-0.42547 -0.0937,-0.1291 -0.21384,-0.24177 -0.36112,-0.33864 -0.14729,-0.0968 -0.30169,-0.16474 -0.46246,-0.20298 -0.16075,-0.0383 -0.32122,-0.0414 -0.48133,-0.0116 -0.1601,0.0301 -0.31536,0.094 -0.46622,0.19307 -0.15085,0.099 -0.28911,0.23631 -0.41453,0.41123 z m 1.85425,-2.5863 c -0.11508,0.16057 -0.18707,0.32113 -0.21503,0.48205 -0.0276,0.16094 -0.007,0.32067 0.0614,0.47969 l -0.006,0.009 -0.31797,-0.20911 -0.24639,0.34369 2.00395,1.31787 0.26184,-0.36523 -1.13231,-0.74465 c -0.0904,-0.0595 -0.16348,-0.12779 -0.22014,-0.20516 -0.0566,-0.0774 -0.0944,-0.16149 -0.11213,-0.25338 -0.0177,-0.0918 -0.0127,-0.18997 0.015,-0.29211 0.0276,-0.10211 0.0817,-0.20888 0.16194,-0.32073 0.10074,-0.14052 0.216,-0.22589 0.34591,-0.25861 0.1299,-0.0326 0.2567,-0.009 0.38073,0.0722 l 1.35692,0.89235 0.26184,-0.36522 -1.31809,-0.86684 c -0.1085,-0.0713 -0.21584,-0.12497 -0.32246,-0.15922 -0.10661,-0.0342 -0.21359,-0.0418 -0.32136,-0.0241 -0.10777,0.0179 -0.21543,0.0636 -0.32151,0.1373 -0.10602,0.0738 -0.21061,0.18373 -0.31545,0.32996 z m 2.48827,-3.47064 c -0.12742,0.17774 -0.21194,0.35126 -0.25332,0.52028 -0.0414,0.16904 -0.0478,0.33027 -0.0192,0.48402 0.0286,0.15376 0.0899,0.29508 0.18494,0.42504 0.095,0.12996 0.21661,0.24361 0.3639,0.34046 0.14729,0.0968 0.30022,0.16378 0.45967,0.20116 0.15947,0.0374 0.31962,0.0417 0.47974,0.0116 0.16009,-0.0301 0.3149,-0.0933 0.46475,-0.19103 0.14985,-0.0977 0.28858,-0.23555 0.41602,-0.41329 0.12541,-0.17492 0.20946,-0.34778 0.25184,-0.51823 0.0423,-0.17043 0.0493,-0.33225 0.0207,-0.48605 -0.0285,-0.15381 -0.0896,-0.29636 -0.18326,-0.42548 -0.0937,-0.1291 -0.21384,-0.24177 -0.36112,-0.33864 -0.14729,-0.0968 -0.3017,-0.16474 -0.46246,-0.20298 -0.16075,-0.0383 -0.32122,-0.0414 -0.48133,-0.0116 -0.1601,0.0301 -0.31536,0.094 -0.46622,0.19308 -0.15085,0.099 -0.28911,0.23632 -0.41453,0.41125 z m -4.05228,6.24782 c 0.0679,-0.0947 0.14932,-0.17286 0.24354,-0.23537 0.0943,-0.0625 0.196,-0.10436 0.30584,-0.12493 0.10984,-0.0202 0.22515,-0.0181 0.34514,0.008 0.11999,0.0261 0.24034,0.0795 0.36176,0.1594 0.12142,0.0798 0.21666,0.16827 0.28527,0.26611 0.0686,0.0979 0.11189,0.19966 0.12985,0.30445 0.018,0.10472 0.0133,0.21037 -0.0138,0.31703 -0.027,0.10666 -0.074,0.20753 -0.14189,0.30222 -0.0678,0.0946 -0.14931,0.17287 -0.24354,0.23536 -0.0943,0.0625 -0.19549,0.10459 -0.30399,0.12618 -0.10854,0.022 -0.22255,0.0182 -0.34252,-0.008 -0.12,-0.0261 -0.24109,-0.0785 -0.36251,-0.15838 -0.12141,-0.0798 -0.21592,-0.1693 -0.28453,-0.26713 -0.0686,-0.0979 -0.11319,-0.19899 -0.13257,-0.30456 -0.0194,-0.10559 -0.0152,-0.21158 0.0119,-0.31826 0.027,-0.10666 0.074,-0.20761 0.14189,-0.30222 z m 4.34253,-6.05695 c 0.0679,-0.0947 0.14931,-0.17286 0.24353,-0.23536 0.0943,-0.0625 0.196,-0.10436 0.30584,-0.12493 0.10985,-0.0202 0.22514,-0.0181 0.34514,0.008 0.11999,0.0261 0.24033,0.0796 0.36176,0.15941 0.12141,0.0798 0.21666,0.16827 0.28527,0.26611 0.0686,0.0979 0.11189,0.19965 0.12984,0.30445 0.018,0.10473 0.0133,0.21037 -0.0138,0.31703 -0.027,0.10665 -0.074,0.20754 -0.14188,0.30221 -0.0679,0.0946 -0.14933,0.17288 -0.24354,0.23537 -0.0943,0.0625 -0.19549,0.10459 -0.304,0.12618 -0.10854,0.022 -0.22255,0.0182 -0.34252,-0.008 -0.12,-0.0261 -0.24108,-0.0785 -0.36251,-0.15838 -0.12141,-0.0798 -0.21592,-0.16929 -0.28453,-0.26714 -0.0686,-0.0979 -0.11319,-0.19897 -0.13257,-0.30456 -0.0194,-0.10558 -0.0152,-0.21158 0.0119,-0.31825 0.027,-0.10665 0.074,-0.20761 0.14189,-0.30222 z"
         style="font-size:131.01803589px;font-style:normal;font-variant:normal;font-weight:normal;font-stretch:normal;text-align:start;line-height:125%;letter-spacing:0px;word-spacing:0px;writing-mode:lr-tb;text-anchor:start;fill:#000000;fill-opacity:1;stroke:none;font-family:HelveticaNeueLT Com 55 Roman;-inkscape-font-specification:'HelveticaNeueLT Com 55 Roman,'" />
    </g>
  </g>
</svg>
