<svg width="300" height="300" xmlns="http://www.w3.org/2000/svg" xmlns:xlink="http://www.w3.org/1999/xlink">
 <defs>
  <filter id="filter10018" color-interpolation-filters="sRGB">
   <feGaussianBlur id="feGaussianBlur10020" stdDeviation="5.137736"/>
  </filter>
  <filter height="1.378962" y="-0.189481" width="1.322118" x="-0.161059" id="filter9939" color-interpolation-filters="sRGB">
   <feGaussianBlur id="feGaussianBlur9941" stdDeviation="8.298152"/>
  </filter>
  <filter height="1.893434" y="-0.446717" width="1.6367" x="-0.31835" id="filter9917" color-interpolation-filters="sRGB">
   <feGaussianBlur id="feGaussianBlur9919" stdDeviation="4.899001"/>
  </filter>
  <linearGradient y2="1.503816" x2="1.280445" y1="-0.552782" x1="-0.280518" id="linearGradient10214" xlink:href="#linearGradient10073"/>
  <linearGradient id="linearGradient10073">
   <stop stop-color="#0044aa" id="stop10075" offset="0"/>
   <stop stop-color="#0044aa" stop-opacity="0" id="stop10077" offset="1"/>
  </linearGradient>
  <linearGradient y2="1.503816" x2="1.280477" y1="-0.552782" x1="-0.280486" id="linearGradient10216" xlink:href="#linearGradient10073"/>
  <linearGradient id="svg_2">
   <stop offset="0" stop-opacity="0.996094" stop-color="#ff0000"/>
   <stop offset="1" stop-opacity="0.996094" stop-color="#640000"/>
  </linearGradient>
 </defs>
 <metadata>image/svg+xmlOpen Clip Art Libraryvector x2011-07-26T19:16:26http://openclipart.org/detail/152029/vector-x-by-gblas.ivangblas.ivanalgebraaxiscalculusclip artclipartformulamathematicsplotplottingvectorxy</metadata>
 <g>
  <title>Layer 1</title>
  <g stroke="#0055d4" id="g10017">
   <g stroke="#0055d4" id="g10019">
    <path stroke="#000000" fill="none" stroke-width="4" stroke-miterlimit="4" id="path10021" d="m288.996002,265.997986l-276.996002,0"/>
    <path stroke="#000000" fill="none" stroke-width="4" stroke-miterlimit="4" d="m288.996002,209.740005l-276.996002,0" id="path10023"/>
    <path stroke="#000000" fill="none" stroke-width="4" stroke-miterlimit="4" id="path10025" d="m288.996002,153.483002l-276.996002,0"/>
    <path stroke="#000000" fill="none" stroke-width="4" stroke-miterlimit="4" d="m288.996002,97.225197l-276.996002,0" id="path10027"/>
    <path stroke="#000000" fill="none" stroke-width="4" stroke-miterlimit="4" id="path10029" d="m288.996002,40.967201l-276.996002,0"/>
   </g>
   <g stroke="#0055d4" transform="matrix(0 -0.334669 0.334669 0 4122.56 5677.7)" id="g10031">
    <path stroke="#000000" fill="none" stroke-width="4" stroke-miterlimit="4" d="m16920.300781,-11532.400391l-827.600586,0" id="path10033"/>
    <path stroke="#000000" fill="none" stroke-width="4" stroke-miterlimit="4" id="path10035" d="m16920.300781,-11700.5l-827.600586,0"/>
    <path stroke="#000000" fill="none" stroke-width="4" stroke-miterlimit="4" d="m16920.300781,-11868.599609l-827.600586,0" id="path10037"/>
    <path stroke="#000000" fill="none" stroke-width="4" stroke-miterlimit="4" id="path10039" d="m16920.300781,-12036.700195l-827.600586,0"/>
    <path stroke="#000000" fill="none" stroke-width="4" stroke-miterlimit="4" d="m16920.300781,-12204.799805l-827.600586,0" id="path10041"/>
   </g>
  </g>
  <path stroke="#c80000" fill="none" stroke-width="10" stroke-miterlimit="4" filter="url(#filter10018)" d="m93.9767,62.278999c-20.9347,63.846001 109.867294,86.997002 58.922302,147.846001c39.210999,20.597 93.397995,33.171997 85.699997,3.128998c-17.996994,-5.927002 -39.384003,-9.595993 0,-53.974991c-41.860001,22.348999 -98.324005,-24.147003 -158.3955,18.773987c30.539497,-74.907997 111.5355,-42.01799 123.962502,-89.177391c-50.796005,25.777397 -76.391998,-11.0196 -110.189301,-26.596603z" id="path10158"/>
  <path stroke="#d40000" fill="none" stroke-width="2" stroke-miterlimit="4" id="path10160" d="m93.976501,60.279205c-20.935005,63.845795 109.867493,86.996796 58.923492,147.845795c39.210999,20.595978 93.39801,33.171997 85.698013,3.128998c-17.996002,-5.927002 -39.384003,-9.597 0,-53.975998c-41.858002,22.348999 -98.323013,-24.145996 -158.394508,18.774002c30.539497,-74.907013 111.5355,-42.016998 123.961494,-89.176804c-50.794998,25.77681 -76.390991,-11.018997 -110.188492,-26.595993z"/>
  <g transform="matrix(0.138458 0 0 0.156615 -1118.86 205.501)" id="g10162">
   <path fill="url(#svg_2)" filter="url(#filter9939)" d="m8720.080078,-186.395859c0,29.024017 -27.679688,52.553009 -61.830078,52.553009c-34.139648,0 -61.830078,-23.528992 -61.830078,-52.553009c0,-29.023987 27.69043,-52.552979 61.830078,-52.552979c34.150391,0 61.830078,23.528992 61.830078,52.552979z" id="path10164"/>
   <path fill="url(#svg_2)" id="path10166" d="m8720.080078,-186.395859c0,29.024017 -27.679688,52.553009 -61.830078,52.553009c-34.139648,0 -61.830078,-23.528992 -61.830078,-52.553009c0,-29.023987 27.69043,-52.552979 61.830078,-52.552979c34.150391,0 61.830078,23.528992 61.830078,52.552979z"/>
   <path fill="url(#svg_2)" filter="url(#filter9917)" id="path10168" d="m8651.459961,-199.195847c0,7.268005 -8.269531,13.158997 -18.469727,13.158997c-10.200195,0 -18.459961,-5.890991 -18.459961,-13.158997c0,-7.269012 8.259766,-13.160004 18.459961,-13.160004c10.200195,0 18.469727,5.890991 18.469727,13.160004z"/>
  </g>
  <g id="g10170" transform="matrix(0.138458 0 0 0.156615 -1103.99 93.0817)">
   <path fill="url(#svg_2)" filter="url(#filter9939)" id="path10172" d="m8720.080078,-186.395859c0,29.024017 -27.679688,52.553009 -61.830078,52.553009c-34.139648,0 -61.830078,-23.528992 -61.830078,-52.553009c0,-29.023987 27.69043,-52.552979 61.830078,-52.552979c34.150391,0 61.830078,23.528992 61.830078,52.552979z"/>
   <path fill="url(#svg_2)" d="m8720.080078,-186.395859c0,29.024017 -27.679688,52.553009 -61.830078,52.553009c-34.139648,0 -61.830078,-23.528992 -61.830078,-52.553009c0,-29.023987 27.69043,-52.552979 61.830078,-52.552979c34.150391,0 61.830078,23.528992 61.830078,52.552979z" id="path10174"/>
   <path fill="url(#svg_2)" filter="url(#filter9917)" d="m8651.459961,-199.195847c0,7.268005 -8.269531,13.158997 -18.469727,13.158997c-10.200195,0 -18.459961,-5.890991 -18.459961,-13.158997c0,-7.269012 8.259766,-13.160004 18.459961,-13.160004c10.200195,0 18.469727,5.890991 18.469727,13.160004z" id="path10176"/>
  </g>
  <g transform="matrix(0.138458 0 0 0.156615 -996.991 117.996)" id="g10178">
   <path fill="url(#svg_2)" filter="url(#filter9939)" d="m8720.080078,-186.395859c0,29.024017 -27.679688,52.553009 -61.830078,52.553009c-34.139648,0 -61.830078,-23.528992 -61.830078,-52.553009c0,-29.023987 27.69043,-52.552979 61.830078,-52.552979c34.150391,0 61.830078,23.528992 61.830078,52.552979z" id="path10180"/>
   <path fill="url(#svg_2)" id="path10182" d="m8720.080078,-186.395859c0,29.024017 -27.679688,52.553009 -61.830078,52.553009c-34.139648,0 -61.830078,-23.528992 -61.830078,-52.553009c0,-29.023987 27.69043,-52.552979 61.830078,-52.552979c34.150391,0 61.830078,23.528992 61.830078,52.552979z"/>
   <path fill="url(#svg_2)" filter="url(#filter9917)" id="path10184" d="m8651.459961,-199.195847c0,7.268005 -8.269531,13.158997 -18.469727,13.158997c-10.200195,0 -18.459961,-5.890991 -18.459961,-13.158997c0,-7.269012 8.259766,-13.160004 18.459961,-13.160004c10.200195,0 18.469727,5.890991 18.469727,13.160004z"/>
  </g>
  <g transform="matrix(0.138458 0 0 0.156615 -964.892 190.309)" id="g10186">
   <path fill="url(#svg_2)" filter="url(#filter9939)" d="m8720.080078,-186.395859c0,29.024017 -27.679688,52.553009 -61.830078,52.553009c-34.139648,0 -61.830078,-23.528992 -61.830078,-52.553009c0,-29.023987 27.69043,-52.552979 61.830078,-52.552979c34.150391,0 61.830078,23.528992 61.830078,52.552979z" id="path10188"/>
   <path fill="url(#svg_2)" id="path10190" d="m8720.080078,-186.395859c0,29.024017 -27.679688,52.553009 -61.830078,52.553009c-34.139648,0 -61.830078,-23.528992 -61.830078,-52.553009c0,-29.023987 27.69043,-52.552979 61.830078,-52.552979c34.150391,0 61.830078,23.528992 61.830078,52.552979z"/>
   <path fill="url(#svg_2)" filter="url(#filter9917)" id="path10192" d="m8651.459961,-199.195847c0,7.268005 -8.269531,13.158997 -18.469727,13.158997c-10.200195,0 -18.459961,-5.890991 -18.459961,-13.158997c0,-7.269012 8.259766,-13.160004 18.459961,-13.160004c10.200195,0 18.469727,5.890991 18.469727,13.160004z"/>
  </g>
  <g id="g10194" transform="matrix(0.138458 0 0 0.156615 -960.731 242.569)">
   <path fill="url(#svg_2)" filter="url(#filter9939)" id="path10196" d="m8720.080078,-186.395859c0,29.024017 -27.679688,52.553009 -61.830078,52.553009c-34.139648,0 -61.830078,-23.528992 -61.830078,-52.553009c0,-29.023987 27.69043,-52.552979 61.830078,-52.552979c34.150391,0 61.830078,23.528992 61.830078,52.552979z"/>
   <path fill="url(#svg_2)" d="m8720.080078,-186.395859c0,29.024017 -27.679688,52.553009 -61.830078,52.553009c-34.139648,0 -61.830078,-23.528992 -61.830078,-52.553009c0,-29.023987 27.69043,-52.552979 61.830078,-52.552979c34.150391,0 61.830078,23.528992 61.830078,52.552979z" id="path10198"/>
   <path fill="url(#svg_2)" filter="url(#filter9917)" d="m8651.459961,-199.195847c0,7.268005 -8.269531,13.158997 -18.469727,13.158997c-10.200195,0 -18.459961,-5.890991 -18.459961,-13.158997c0,-7.269012 8.259766,-13.160004 18.459961,-13.160004c10.200195,0 18.469727,5.890991 18.469727,13.160004z" id="path10200"/>
  </g>
  <g transform="matrix(0.138458 0 0 0.156615 -1045.74 238.315)" id="g10202">
   <path fill="url(#svg_2)" filter="url(#filter9939)" d="m8720.080078,-186.395859c0,29.024017 -27.679688,52.553009 -61.830078,52.553009c-34.139648,0 -61.830078,-23.528992 -61.830078,-52.553009c0,-29.023987 27.69043,-52.552979 61.830078,-52.552979c34.150391,0 61.830078,23.528992 61.830078,52.552979z" id="path10204"/>
   <path fill="url(#svg_2)" id="path10206" d="m8720.080078,-186.395859c0,29.024017 -27.679688,52.553009 -61.830078,52.553009c-34.139648,0 -61.830078,-23.528992 -61.830078,-52.553009c0,-29.023987 27.69043,-52.552979 61.830078,-52.552979c34.150391,0 61.830078,23.528992 61.830078,52.552979z"/>
   <path fill="url(#svg_2)" filter="url(#filter9917)" id="path10208" d="m8651.459961,-199.195847c0,7.268005 -8.269531,13.158997 -18.469727,13.158997c-10.200195,0 -18.459961,-5.890991 -18.459961,-13.158997c0,-7.269012 8.259766,-13.160004 18.459961,-13.160004c10.200195,0 18.469727,5.890991 18.469727,13.160004z"/>
  </g>
 </g>
</svg>