<svg width="130" height="170" xmlns="http://www.w3.org/2000/svg">
  <!-- Created with SVG-edit - http://svg-edit.googlecode.com/ -->
  <defs>
    <linearGradient id="svg_1" x1="0" y1="0" x2="1" y2="1">
      <stop offset="0" stop-color="#0000ff"/>
      <stop offset="1" stop-color="#000064"/>
    </linearGradient>
  </defs>
  <g>
    <title>Layer 1</title>
    <path id="svg_2" d="m101.877029,27.469353c-9.890076,-9.606775 -20.556694,-17.301182 -29.306862,-18.350343c-0.475792,-0.068141 -0.969238,-0.108211 -1.490479,-0.11901l-57.586096,0c-0.919422,0 -1.8258,0.356909 -2.472612,1.019922c-0.640328,0.646836 -1.020981,1.554322 -1.020981,2.479053l0,146.019397c0,0.918335 0.356905,1.797562 1.020981,2.466064c0.664213,0.658707 1.535984,1.015564 2.472612,1.015564l104.135763,0c0.919388,0 1.797546,-0.351501 2.461868,-1.015564c0.661835,-0.663101 1.031784,-1.542313 1.031784,-2.466064l0,-97.167114c-0.205643,-11.278854 -9.039932,-23.578712 -19.245979,-33.881905zm12.247963,127.53817l-97.150797,0l0,-139.033419l54.109896,0l0,0.011878c2.359993,-0.141682 4.395561,2.189132 5.955261,7.519261c1.416962,5.074829 1.773811,11.693079 1.769386,16.280195c0.010796,3.362541 -0.153473,5.619957 -0.153473,5.619957l-0.279053,3.696838l3.720726,0.04007c0.017159,0 8.596519,0.101608 17.011131,2.012726c8.086159,1.746834 14.408997,5.228539 14.999763,9.169834c0.021584,0.351601 0.027939,0.703072 0.021584,1.031788l0,93.650871l-0.004425,0z" stroke-linecap="null" stroke-linejoin="null" stroke-dasharray="null" stroke-width="0" stroke="#ffffff" fill="url(#svg_1)"/>
    <path id="svg_7" d="m29.37752,97.161507l0,25.918404l14.754576,0l22.085701,18.134827l0.013817,-62.188667l-22.089436,18.135437l-14.764658,0zm45.322012,-2.980034c-1.289574,-1.277092 -3.360703,-1.277092 -4.644058,0.004837c-1.279716,1.287186 -1.279716,3.360718 0.006248,4.64785l0,-0.005196c2.832237,2.834824 4.578987,6.726288 4.578987,11.048706c0,4.317238 -1.74295,8.193718 -4.572731,11.033493c-1.292221,1.277184 -1.292221,3.350716 -0.006256,4.642776c0.639885,0.641144 1.479942,0.9617 2.321442,0.9617c0.842697,0 1.682869,-0.320557 2.322601,-0.9617c4.011742,-4.006752 6.499626,-9.56617 6.495903,-15.67627c0.003723,-6.120178 -2.494232,-11.689507 -6.502136,-15.696198zm7.532616,-7.527489c-1.289673,-1.287186 -3.360687,-1.287186 -4.637772,0c-1.285881,1.281929 -1.285881,3.360298 0,4.63739c4.759209,4.763199 7.694077,11.314011 7.694077,18.581055c0,7.262177 -2.934868,13.80835 -7.686546,18.576393c-1.287163,1.281906 -1.287163,3.355545 0,4.642685c0.639778,0.641144 1.479973,0.9617 2.323898,0.9617c0.840126,0 1.680313,-0.320557 2.320114,-0.9617c5.933655,-5.93988 9.613541,-14.163986 9.607292,-23.219078c0.003624,-9.055046 -3.676239,-17.288643 -9.621063,-23.218445zm7.153099,-7.152069c-1.290779,-1.287186 -3.364281,-1.277092 -4.641426,0.004837c-1.283478,1.277092 -1.283478,3.35585 0.006264,4.63781l-0.006264,0c6.593445,6.595985 10.660225,15.666283 10.660225,25.727867c0,10.056931 -4.06678,19.132118 -10.653961,25.728081c-1.283348,1.282272 -1.283348,3.355713 0.006279,4.642883c0.637321,0.640717 1.477501,0.956467 2.317513,0.956467s1.68412,-0.320587 2.323868,-0.961777c7.75676,-7.767593 12.574821,-18.520683 12.568573,-30.365654c0.006248,-11.849609 -4.811813,-22.607536 -12.58107,-30.370514z" stroke-linecap="null" stroke-linejoin="null" stroke-dasharray="null" stroke-width="0" stroke="#ffffff" fill="url(#svg_1)"/>
  </g>
</svg>