<svg width="340" height="170" xmlns="http://www.w3.org/2000/svg">
  <metadata id="metadata2433">image/svg+xmlNeuron Axon DendritesMohamed IbrahimPublic DomainClker.comNeuron Axon Dendrites Nervous System Cell</metadata>

  <g>
    <title>Layer 1</title>
    <path fill="#afa3cf" stroke="#000000" id="path2467" d="m50.04039,158.812653c-0.919506,-0.570099 -0.905209,-1.015503 0.112511,-3.504639c1.031216,-2.522125 0.858871,-3.259018 -0.825169,-3.528305c-0.580357,-0.092804 -1.055195,-0.229507 -1.055195,-0.303787c0,-0.07428 0.953327,-1.762009 2.1185,-3.750519c3.266724,-5.575073 5.198212,-10.99231 5.29686,-14.85614l0.048912,-1.915833l-1.207779,-1.141678c-1.453323,-1.373795 -2.288807,-1.620132 -6.256493,-1.844673c-6.466904,-0.365974 -10.088821,1.240898 -13.161373,5.839104c-2.321705,3.474548 -3.973679,7.382401 -4.923672,11.647308c-0.28738,1.290176 -0.702686,2.694183 -0.922901,3.120026c-0.494476,0.956223 -1.400562,1.363266 -1.923241,0.864014c-0.483925,-0.46225 -0.192337,-1.790405 1.713535,-7.804703c2.451679,-7.736679 3.015919,-10.907257 1.941097,-10.907257c-0.943417,0 -2.89238,2.427567 -7.484707,9.322708c-2.503616,3.759048 -4.738298,6.989227 -4.965975,7.178177c-0.731834,0.607376 -1.047993,-0.09993 -1.03091,-2.306351c0.013662,-1.763779 0.150284,-2.32724 1.092119,-4.504074c1.287395,-2.975479 1.519361,-3.965179 1.109072,-4.731812c-0.276768,-0.51712 -0.448227,-0.556931 -1.785292,-0.414337l-1.479122,0.15773l0.916666,-0.485229c2.086504,-1.104492 15.408018,-6.303574 23.571383,-9.199364c6.725327,-2.385674 8.738556,-3.570267 10.148106,-5.97123c1.681065,-2.863457 0.574631,-6.382668 -3.19009,-10.146629c-2.966301,-2.965706 -4.114628,-3.586967 -6.900387,-3.733177c-2.68013,-0.140671 -4.549812,0.232399 -6.998093,1.39637c-3.54155,1.683739 -6.422443,4.224442 -11.429794,10.080109c-3.654171,4.273232 -5.287067,5.827408 -5.416492,5.155357c-0.113127,-0.587433 0.63628,-1.848579 2.408768,-4.053535c2.733807,-3.400818 6.649651,-9.994545 6.285461,-10.583817c-0.297428,-0.481247 -3.643204,0.006454 -8.582914,1.251099c-2.580706,0.650253 -4.782694,1.088753 -4.893316,0.974449c-0.33007,-0.341057 -2.308464,-6.290176 -3.003016,-9.030144c-0.355192,-1.401253 -0.774878,-3.760895 -0.932617,-5.243645c-0.496946,-4.671295 0.175865,-16.025063 1.222263,-20.625717c0.402384,-1.769165 0.429354,-1.809074 1.035635,-1.532837c0.342373,0.155998 0.708557,0.473907 0.813757,0.706482c0.105192,0.232574 0.276775,4.017502 0.381285,8.410942c0.205101,8.622139 0.476501,10.661171 1.934658,14.535141c0.940987,2.499985 1.723228,3.762222 3.141977,5.069977c1.964443,1.81076 3.139204,2.19635 7.111666,2.334221c4.793724,0.166374 10.914646,-0.837807 12.054478,-1.977638c0.398426,-0.398422 0.353256,-0.49736 -0.619205,-1.356468c-0.576931,-0.509682 -2.453339,-1.672768 -4.169785,-2.584633c-1.716454,-0.911865 -3.411827,-1.881561 -3.767517,-2.154884l-0.646706,-0.496948l0.966537,-0.005821c1.155075,-0.006966 3.811638,0.920967 7.252884,2.533409c6.070164,2.844254 7.344242,2.847626 7.762272,0.020531c0.170284,-1.151604 0.22084,-1.217606 0.725697,-0.947418c0.298458,0.159737 1.434605,0.999825 2.524757,1.866875c2.435196,1.936836 3.462872,2.415436 4.279739,1.993164c1.548756,-0.800621 2.914497,-3.314682 3.351517,-6.169449c0.672737,-4.394623 -1.072586,-11.672546 -4.368927,-18.218208c-2.126659,-4.222977 -6.236378,-10.203476 -9.05896,-13.182671c-2.074177,-2.189259 -3.695213,-3.130577 -5.830952,-3.385967c-4.202454,-0.502529 -8.600048,-2.640518 -11.93243,-5.801235c-1.972675,-1.871052 -4.038158,-3.060783 -7.031286,-4.050068c-3.13237,-1.035309 -5.366415,-2.136166 -5.915382,-2.91489c-0.391708,-0.555656 -0.386765,-0.600266 0.074795,-0.673855c0.271862,-0.043346 1.879129,0.280762 3.571722,0.720234c3.333462,0.865517 4.167452,0.947613 5.290174,0.520756c0.890676,-0.338634 1.126234,-0.678181 1.131464,-1.630951c0.006735,-1.227135 -0.851444,-2.528732 -5.155447,-7.819271c-5.166109,-6.350246 -7.79822,-9.878853 -7.54936,-10.120661c0.362139,-0.351879 7.029169,7.243658 10.657427,12.141676c1.07465,1.450745 2.757206,4.043598 3.739004,5.761894c2.267967,3.969276 3.917358,6.208031 6.029259,8.183613c2.391094,2.236744 3.88245,2.780643 7.650799,2.790237c3.283779,0.008358 4.182426,-0.352936 4.585621,-1.84362c0.535343,-1.97924 -0.829109,-4.391315 -8.643845,-15.28067c-6.374779,-8.88287 -9.279419,-13.209974 -10.290405,-15.32988c-1.369175,-2.870956 -0.374531,-2.133339 2.626118,1.947519c1.113049,1.513739 2.538513,3.515425 3.167702,4.448196l1.143982,1.695951l0.630512,-1.434046c1.063091,-2.41791 1.355549,-4.464861 1.360458,-9.522163c0.004028,-4.156347 0.061165,-4.775257 0.507683,-5.49999c0.433315,-0.703312 1.004635,-2.034056 1.68708,-3.92965c0.165348,-0.459273 0.211113,-0.463874 0.651337,-0.065476c0.260418,0.235681 0.788322,0.428507 1.173111,0.428507c0.888042,0 0.893345,0.314363 0.061073,3.619198c-1.568493,6.228218 -2.228184,12.998447 -1.783779,18.306198c0.159389,1.903629 0.446373,3.789341 0.637753,4.190472c0.364143,0.763245 1.275459,1.044838 2.437527,0.753174c1.638958,-0.41135 4.381012,-4.6642 5.230583,-8.112469c0.283634,-1.151226 0.559204,-4.085947 0.762383,-8.119032c0.311474,-6.182917 0.325413,-6.282978 0.660629,-4.744694c0.188332,0.864283 0.583069,2.137072 0.877182,2.828413c0.665955,1.56543 0.566906,3.277729 -0.585243,10.116432c-1.819611,10.800533 -1.514183,15.562229 1.458862,22.744354c1.731655,4.183228 3.258427,5.905846 4.536728,5.118675c1.344658,-0.828041 1.941586,-6.065723 1.69738,-14.893604c-0.209454,-7.57201 -0.242378,-7.45002 2.010326,-7.45002c1.50238,0 1.617523,-0.048428 2.708069,-1.138966c0.626427,-0.626434 2.005241,-2.464977 3.064026,-4.085655c1.89817,-2.905519 1.927963,-2.935509 2.132393,-2.14657c0.237328,0.91585 1.085037,1.609297 1.967308,1.609297c1.486382,0 1.038124,0.958744 -2.689262,5.751713c-3.398628,4.370239 -4.658859,6.567188 -4.787529,8.346043c-0.091759,1.268581 -0.024948,1.561584 0.45517,1.996086c1.400269,1.26722 3.775719,0.134151 6.588821,-3.14278c1.044853,-1.21714 2.006516,-2.212986 2.137016,-2.212986c0.130501,0 0.021187,0.279587 -0.242912,0.621296c-8.860321,11.464241 -9.912628,13.685387 -9.88044,20.854851c0.014954,3.332741 0.102333,4.078262 0.713745,6.090233c0.861298,2.834297 2.34951,5.884018 4.123543,8.450249c2.88707,4.176308 9.417084,9.493965 13.028023,10.609268c2.062454,0.637032 2.762184,0.640053 4.132263,0.017838c3.284706,-1.491737 3.844124,-6.79512 1.504768,-14.265556c-0.366554,-1.170532 -1.614525,-4.190727 -2.773277,-6.711555c-2.532471,-5.509335 -3.43161,-7.903667 -4.274475,-11.382664c-0.676193,-2.790989 -0.800064,-4.656082 -0.382248,-5.755016c0.396126,-1.041878 1.021019,-0.819714 1.609558,0.572231c0.882607,2.08744 1.118874,2.47797 1.748901,2.890778c0.554054,0.363029 0.667259,0.352131 1.307564,-0.125927c1.167015,-0.871311 1.422211,-2.282871 1.269234,-7.020794c-0.074425,-2.304756 -0.3778,-5.889896 -0.674187,-7.966972c-0.296387,-2.07708 -0.47879,-3.83659 -0.405357,-3.910027c0.185867,-0.185871 1.851425,0.636379 2.883278,1.423416c0.472679,0.360523 0.929283,0.933933 1.014694,1.274242c0.085403,0.340309 -0.13884,1.750816 -0.498344,3.134464c-0.817245,3.14539 -0.817017,3.294884 0.004974,3.294884c0.461983,0 0.813545,-0.254116 1.177589,-0.851192c0.285431,-0.468155 0.519424,-0.99379 0.519958,-1.168076c0.000534,-0.174282 0.586517,-0.864586 1.302177,-1.534004c1.50927,-1.411736 2.255112,-3.107216 2.52478,-5.739418l0.176643,-1.724094l0.499962,0.822124c0.395638,0.650562 0.635216,0.796272 1.148064,0.698238c0.56073,-0.107197 0.624794,-0.049191 0.475243,0.430317c-0.09507,0.304821 -1.909729,4.030991 -4.032585,8.280392c-4.178001,8.363239 -5.827171,12.012043 -6.963371,15.406521c-0.675262,2.017395 -0.706818,2.28997 -0.422195,3.646954c0.169197,0.806629 0.675629,2.073795 1.125404,2.815929c0.734047,1.211182 4.997559,6.181694 5.451271,6.355247c0.171112,0.065445 4.356285,-12.525627 5.507721,-16.569916c1.806801,-6.346161 3.323288,-14.759205 3.70594,-20.559486c0.505257,-7.658726 0.420959,-7.207928 1.603325,-8.574059c1.209511,-1.39747 1.683456,-2.408173 2.81868,-6.010946c0.885872,-2.811413 1.528435,-4.362097 1.553185,-3.748289c0.031952,0.792505 -1.046661,6.791126 -2.489494,13.845018c-1.255699,6.139067 -1.482361,7.675776 -1.492516,10.119219c-0.014023,3.368061 0.397606,4.583328 1.552422,4.583328c1.179642,0 2.195518,-0.85191 4.060066,-3.404755c4.769714,-6.530441 5.567772,-7.582401 5.672737,-7.477425c0.06208,0.06208 -0.66581,1.580715 -1.617538,3.374744c-2.357605,4.444157 -2.291534,4.969284 0.553352,4.397945c0.808609,-0.162392 1.517212,-0.248257 1.574661,-0.190811c0.057442,0.057446 -0.227379,0.424622 -0.632942,0.815952c-0.763153,0.736355 -8.031021,6.215584 -11.774651,8.876854c-2.34536,1.667282 -2.514191,1.931789 -3.609535,5.655087c-2.335281,7.938156 -4.637825,18.487488 -4.627724,21.202461c0.012032,3.234688 1.144226,6.133453 3.533875,9.047798c3.038452,3.705627 12.10466,6.669289 17.813797,8.850578c4.643234,1.77404 2.464081,4.314758 2.464081,5.727371c0,1.976746 1.035782,2.081619 -4.797913,4.99826c-6.236794,3.118172 -14.068047,4.41993 -15.301033,6.888741c-0.479836,0.96077 -0.581604,1.5112 -0.488045,2.639435c0.23317,2.811676 2.472305,4.857491 9.136406,8.34761c3.8685,2.026001 4.829292,2.75 3.649475,2.75c-0.679787,0 -1.843864,1.109924 -1.841644,1.755951c0.000893,0.258636 0.177124,0.806732 0.391624,1.218018c0.516296,0.98996 0.59481,1.027496 -5.050224,-2.415222c-7.084717,-4.320732 -9.720428,-5.534927 -12.014931,-5.534927c-2.26902,0 -2.784431,1.813057 -1.548454,5.446991c1.878227,5.522217 3.954857,7.787537 13.973724,15.243454l6.862694,5.107132l-2.979599,0.15239c-2.402184,0.122849 -3.165939,0.262314 -3.941124,0.719681c-1.216789,0.717941 -1.472382,0.596024 -4.861969,-2.31897c-2.554916,-2.197189 -4.037971,-3.136429 -4.952423,-3.136429c-1.098015,0 -1.951035,-1.719498 -4.475235,-9.020996c-2.033195,-5.881226 -2.976929,-7.480965 -5.0755,-8.603546c-0.986885,-0.527931 -1.441956,-0.577126 -5.270615,-0.569824c-4.648964,0.00885 -5.723351,0.268852 -6.592712,1.595352c-0.559181,0.853226 -0.627754,3.862564 -0.254395,11.164505c0.124474,2.434402 0.124474,4.386154 0,4.385239c-0.123367,-0.000916 -0.419273,-0.344376 -0.657562,-0.763245c-0.238297,-0.418884 -0.743568,-0.96492 -1.122833,-1.213425c-0.667946,-0.437653 -0.710648,-0.432205 -1.361305,0.173965c-1.670502,1.556259 -4.107964,8.020264 -5.087608,13.492004c-0.805023,4.496475 -1.25671,5.12706 -2.929504,4.08992z"/>
    <path fill="#5b9974" stroke="#000000" stroke-linejoin="round" stroke-miterlimit="4" id="path2448" d="m76.150742,115.515015c-0.875366,-0.181587 -2.000092,-0.740341 -4.43589,-2.20369c-2.811302,-1.68895 -3.905319,-2.469254 -5.625229,-4.012169c-1.293198,-1.160126 -1.945076,-1.856522 -2.722473,-2.908409c-1.42617,-1.929741 -2.05307,-3.759026 -1.753479,-5.116676c0.138367,-0.627052 0.594803,-1.277275 1.128975,-1.60833c1.310127,-0.811943 3.362679,-0.813202 6.115593,-0.003746c1.19854,0.352417 2.650383,0.922943 3.275345,1.287109c1.313675,0.76548 2.761055,2.182648 3.933861,3.85173c1.676125,2.385384 2.670044,4.983002 2.673523,6.987236c0.00132,0.764702 -0.0532,1.057693 -0.342606,1.840942c-0.371529,1.005539 -0.810951,1.64267 -1.266373,1.836143c-0.237793,0.101021 -0.636894,0.1213 -0.981247,0.049858z"/>
    <path fill="#afa3cf" stroke="#000000" id="path2469" d="m324.143768,89.321007c-1.53952,-1.216934 -4.383606,-4.621407 -4.877869,-5.839058c-0.191986,-0.472916 -0.429352,-1.684853 -0.527557,-2.693184c-0.222473,-2.284698 -0.656097,-3.012238 -1.794495,-3.010918c-1.313446,0.001518 -2.36142,0.822815 -3.892395,3.050423c-1.44162,2.097649 -2.45282,2.870445 -3.373596,2.578201c-1.005737,-0.319199 -0.545593,-1.116058 1.772064,-3.068802c3.372559,-2.841553 4.599518,-5.115219 4.632599,-8.584602c0.023254,-2.442352 -0.885468,-4.156807 -3.668457,-6.921066c-3.527405,-3.503635 -9.055756,-6.917107 -13.862915,-8.559631c-1.550842,-0.5299 -2.339569,-0.626415 -5.118774,-0.626415c-5.302551,0 -5.790436,0.738037 -3.116302,4.714279c2.176361,3.236103 2.47818,3.869061 3.39386,7.117062c0.84671,3.003342 0.846741,4.013863 0.000183,4.013863c-0.779907,0 -1.024933,-0.760422 -0.976746,-3.031166c0.035553,-1.674461 -0.063995,-2.278572 -0.514648,-3.123573c-0.58252,-1.092278 -4.265137,-5.465912 -4.448181,-5.282864c-0.057709,0.057701 0.038818,2.746967 0.214478,5.976154c0.32193,5.918213 0.193848,8.048157 -0.497742,8.27713c-0.563232,0.18647 -0.834229,-1.126373 -1.000092,-4.844933c-0.2453,-5.500145 -0.82019,-7.300468 -3.101318,-9.711964c-1.350861,-1.42804 -2.203735,-1.8778 -3.560883,-1.8778c-1.396027,0 -4.79483,-0.492775 -4.375061,2.379597c0.465912,3.187988 0.692352,8.219177 -0.899078,8.679634c-0.981812,0.284065 -2.252991,-1.90303 -3.985443,-3.024681c-1.351135,-0.874771 -3.008575,-0.695351 -3.940277,-1.931347c-0.931702,-1.235989 4.693512,-4.255268 6.140747,-8.210136c4.341278,-11.863411 5.371948,-16.040405 5.167084,-20.940647c-0.0961,-2.298214 -0.23111,-2.993589 -0.821869,-4.232731c-1.313019,-2.753983 -3.496613,-4.092747 -5.925262,-3.632751c-1.355164,0.256668 -2.098907,-0.025034 -2.098907,-0.794985c0,-0.761766 -0.721802,-2.367292 -1.387482,-3.08625c-0.31723,-0.342615 -1.460724,-1.216412 -2.541077,-1.941769c-1.080353,-0.725353 -2.013855,-1.3605 -2.074463,-1.41143c-0.390442,-0.328245 3.164276,-2.971479 3.996185,-2.971479c0.346222,0 0.435425,0.260736 0.435425,1.272648c0,1.113991 0.131958,1.422571 1.058594,2.475275c2.219391,2.521385 6.776337,4.936762 9.422577,4.99439c1.673889,0.036457 2.288483,-0.340851 3.945923,-2.422525c1.72168,-2.16234 2.685394,-4.55167 2.735138,-6.781277c0.023346,-1.04608 0.125244,-1.984765 0.226471,-2.08597c0.413513,-0.413524 1.107361,0.46055 1.622864,2.04438c0.668274,2.053173 0.963959,2.229132 4.133698,2.46002c4.833099,0.352039 5.352295,1.268017 0.975464,1.720839c-3.083801,0.319046 -3.589111,0.441322 -4.89267,1.183939c-3.6875,2.100689 -5.879242,7.751923 -5.866943,15.127432c0.00531,3.175686 0.089996,3.284618 1.858795,2.390388c2.435059,-1.231083 9.66452,-5.339985 12.769379,-7.257542c7.362457,-4.547031 13.435913,-10.037781 14.852051,-13.427109c0.205078,-0.490795 0.372864,-1.70059 0.372864,-2.688441c0,-1.528353 0.08783,-1.876408 0.589264,-2.334914c0.722107,-0.660254 1.980774,-1.311315 2.68454,-1.388605c1.638306,-0.179917 1.826782,0.28788 0.792542,1.967076c-0.733948,1.191591 -0.818939,2.12709 -0.260406,2.865529c0.784851,1.037725 0.489502,1.604019 -1.860321,3.566706c-2.404419,2.008266 -3.107819,2.985662 -2.454529,3.410713c0.547302,0.356108 2.104034,0.059818 5.169403,-0.983896c2.513031,-0.855635 3.718933,-0.980387 3.325653,-0.344032c-0.327362,0.529694 -2.77063,1.576151 -7.327759,3.138474c-5.488007,1.881458 -6.73407,2.481808 -11.396484,5.490728c-1.944641,1.25499 -5.865997,3.679779 -8.714142,5.388432c-7.497192,4.497662 -8.62616,5.648113 -11.587341,11.807743c-1.461548,3.040199 -1.865295,4.399876 -1.576599,5.30949c0.414398,1.305649 5.452057,1.441719 7.539063,0.203636c0.612061,-0.363098 2.58609,-2.116623 4.386658,-3.896713c3.711304,-3.669025 5.562134,-5.146908 8.380951,-6.6922c2.235046,-1.22525 3.463135,-2.383514 4.434814,-4.182629c1.001862,-1.855064 1.458038,-1.672165 1.458038,0.584641c0,1.824142 0.003754,1.833755 0.751862,1.91925c1.34787,0.154034 1.96936,-0.196117 4.346222,-2.448677c1.288727,-1.22131 2.517151,-2.220573 2.729858,-2.220573c0.584167,0 0.758911,0.929081 0.330109,1.754768c-0.71048,1.368122 -3.133484,2.750458 -6.760132,3.856647c-3.180603,0.970139 -3.624115,1.370533 -3.624115,3.271748c0,1.79295 -0.267883,2.107204 -2.357117,2.764874c-2.35376,0.740925 -4.95343,2.010414 -5.106842,2.49379c-0.462067,1.455898 1.323364,2.270073 6.072571,2.769146c4.593567,0.482719 4.8862,0.561123 14.617554,3.916168c11.172272,3.851833 14.159058,5.307381 11.442078,5.576019c-1.075226,0.106312 -3.473969,-0.591908 -8.168274,-2.377552c-6.2995,-2.39624 -8.38092,-2.842239 -8.38092,-1.795811c0,0.742344 0.675934,1.167114 1.572052,0.987888c0.733765,-0.146744 0.785065,-0.105202 0.785065,0.635162c0,0.976517 0.468689,1.900898 2.260712,4.458912c2.34375,3.345596 3.112274,5.297913 4.134247,10.502464c1.380463,7.030037 2.075195,8.947891 3.808868,10.514168c0.950928,0.859077 1.812164,1.221115 5.052094,2.123749c0.828278,0.230743 1.505951,0.521133 1.505951,0.645294c0,0.3592 -2.275452,1.331047 -3.116486,1.331047c-0.494507,0 -1.224548,-0.363228 -2.064636,-1.027267z"/>
    <path fill="#afa3cf" stroke="#000000" id="path2471" d="m246.98996,96.504829c-1.348923,-1.292717 2.829285,-6.406044 3.27243,-6.887558c0.443115,-0.481514 1.47551,2.420914 1.930206,3.300217c0.454727,0.879311 2.433624,2.065094 1.906769,2.345352c-0.526855,0.280251 -0.959351,7.135803 -3.756256,4.455429l-3.353149,-3.21344z"/>
    <path fill="#afa3cf" stroke="#000000" id="path2473" d="m178.857834,119.089378c-0.188019,-2.21328 -1.9646,-4.39817 1.685806,-3.515625c3.650421,0.882561 3.971359,0.663078 3.017609,3.547714c-0.420715,1.272469 -1.124207,1.87262 -2.561142,1.737625c-1.436935,-0.134995 -1.954269,0.443565 -2.142273,-1.769714z"/>
    <path fill="#afa3cf" stroke="#000000" id="path2475" d="m139.834106,109.183105c0.120178,-1.290527 0.399277,-1.263 3.27359,-0.867043c2.874298,0.39595 3.042084,0.796501 1.681274,3.456894c-1.360809,2.6604 -0.74054,2.532227 -5.048035,0.949577c-4.307465,-1.582642 -0.027039,-2.248901 0.09317,-3.539429z"/>
    <path fill="#afa3cf" stroke="#000000" id="path2477" d="m218.201172,117.320503c-0.639618,-0.108826 -0.745972,-2.30172 -1.020142,-2.548187c-0.274124,-0.246483 -1.356079,-1.791565 -1.02774,-2.284515c0.328339,-0.492958 1.451141,-1.210411 1.654694,-1.36409c0.203552,-0.153679 2.022675,-1.115967 2.331802,-1.207397c0.309113,-0.091431 2.56868,-0.837395 2.59906,-0.686752c0.03038,0.150635 -0.225952,2.605476 -0.192398,3.415733c0.033508,0.810257 0.372131,2.483475 0.481812,2.825958c0.109665,0.342484 -0.754852,1.053642 -1.126831,1.237228c-0.372009,0.183586 -0.925873,0.585091 -1.795044,0.658142c-0.869171,0.073059 -1.26561,0.062698 -1.905212,-0.04612z"/>
    <path fill="#f9d566" stroke="#000000" id="path2481" d="m125.909294,113.174194c-7.964935,-1.232811 -17.195274,-5.10701 -19.102501,-8.017815c-0.551308,-0.8414 -0.547203,-1.178139 0.051933,-4.262741c0,0 0.285477,-2.242546 0.929955,-2.883461c0.322189,-0.320404 1.444069,-0.456894 1.444069,-0.456894c3.438309,0.017601 10.360321,0.695976 13.273209,1.300812c8.643547,1.794754 18.078392,6.135162 18.066246,8.311211c-0.006073,1.083672 -2.157562,4.433167 -3.429199,5.338654c-1.072418,0.763634 -1.696045,0.877663 -5.134583,0.938835c-2.152649,0.0383 -4.89724,-0.082573 -6.099129,-0.2686z"/>
    <path fill="#f9d566" stroke="#000000" id="path2483" d="m163.093109,122.475082c-1.856964,-0.16597 -4.584106,-0.553596 -6.060272,-0.861397c-3.666626,-0.764511 -9.342499,-3.315247 -11.206757,-5.036324c-1.324951,-1.22319 -1.524689,-1.615166 -1.524689,-2.992348c0,-1.305534 0.223206,-1.807976 1.266754,-2.851517c0.89328,-0.89328 1.634705,-1.281952 2.514862,-1.318329c6.860184,-0.283531 22.623627,2.037697 26.396606,3.887016c2.102722,1.030647 3.681488,3.316391 3.968445,5.745514c0.288956,2.446068 -0.326111,2.933578 -4.335327,3.436287c-3.508057,0.43988 -6.021317,0.437851 -11.019623,-0.008904z"/>
    <path fill="#f9d566" stroke="#000000" id="path2485" d="m194.225983,125.622437c-4.572861,-0.667671 -6.339859,-1.341293 -8.848572,-3.373299c-1.295563,-1.049385 -1.583405,-1.510681 -1.583405,-2.537354c0,-2.978233 1.349289,-4.20298 5.732758,-5.203613c4.31134,-0.984169 14.633759,-2.433777 19.043243,-2.674301c6.443405,-0.351471 8.139603,0.428902 9.264038,4.262062c0.955322,3.256783 0.234497,4.205826 -4.853271,6.38974c-6.058304,2.60051 -13.687866,3.876564 -18.754791,3.136765z"/>
    <path fill="#f9d566" stroke="#000000" id="path2487" d="m222.494873,112.206146c0,0 -0.102722,-2.854149 0.791702,-4.432602c0.894424,-1.578445 6.613159,-3.961617 6.613159,-3.961617c9.982544,-5.980064 12.988892,-7.385178 15.801071,-7.385178c1.757935,0 3.012695,0.762169 4.069275,2.471779c0.918289,1.485786 0.759048,2.678246 -0.595428,4.458405c-1.082947,1.423347 -8.315918,6.926216 -12.119614,9.220634c-3.591049,2.16613 -8.210159,3.503555 -10.144272,3.828339c-1.934113,0.324776 -2.953491,0.835861 -3.624191,0.139709c-0.67067,-0.696152 -0.791702,-4.33947 -0.791702,-4.33947z"/>
    <path fill="#f9d566" stroke="#000000" id="path2489" d="m253.608673,94.441437c-1.334351,-1.122803 -2.967285,-4.02478 -3.312332,-5.886574c-0.176666,-0.953323 -0.060257,-1.722214 0.39502,-2.608002c2.083389,-4.053856 10.942307,-16.963036 13.709763,-19.977844c1.717194,-1.870659 2.578247,-1.979996 5.270599,-0.669212c2.973602,1.447723 4.657135,3.286514 4.657135,5.086685c0,1.674156 -2.762268,6.571114 -7.164032,12.700302c-8.127838,11.317703 -10.870209,13.6147 -13.556152,11.354645z"/>
    <path fill="#e68b60" stroke="#c8743b" d="m239.619934,104.969162a4.039259,1.603091 0 1 1 -8.078491,3.431a4.039259,1.603091 0 1 1 8.078491,-3.431z" id="path2491"/>
    <path fill="#e68b60" stroke="#c8743b" d="m205.139969,117.735382a4.2084,1.779141 0 1 1 -8.416809,2.488304a4.2084,1.779141 0 1 1 8.416809,-2.488304z" id="path2535"/>
    <path fill="#e68b60" stroke="#c8743b" d="m164.709534,116.707001a4.388299,2.107908 0 1 1 -8.776581,0.074165a4.388299,2.107908 0 1 1 8.776581,-0.074165z" id="path2557"/>
    <path fill="#e68b60" stroke="#c8743b" d="m126.992622,107.555878a4.301106,2.248017 0 1 1 -8.602203,-1.742455a4.301106,2.248017 0 1 1 8.602203,1.742455z" id="path2579"/>
    <path stroke="#c8743b" id="svg_1" fill="#e68b60" d="m265.176422,77.998932a3.610646,1.831993 0 1 1 -7.221649,3.920906a3.610646,1.831993 0 1 1 7.221649,-3.920906z"/>
  </g>
</svg>