<?xml version="1.0" encoding="UTF-8" standalone="no"?>
<svg
   xmlns:dc="http://purl.org/dc/elements/1.1/"
   xmlns:cc="http://creativecommons.org/ns#"
   xmlns:rdf="http://www.w3.org/1999/02/22-rdf-syntax-ns#"
   xmlns:svg="http://www.w3.org/2000/svg"
   xmlns="http://www.w3.org/2000/svg"
   xmlns:sodipodi="http://sodipodi.sourceforge.net/DTD/sodipodi-0.dtd"
   xmlns:inkscape="http://www.inkscape.org/namespaces/inkscape"
   version="1.1"
   width="460"
   height="330"
   viewBox="0 0 460 330"
   id="svg2"
   inkscape:version="0.48.1 "
   sodipodi:docname="state.svg">
  <metadata
     id="metadata25">
    <rdf:RDF>
      <cc:Work
         rdf:about="">
        <dc:format>image/svg+xml</dc:format>
        <dc:type
           rdf:resource="http://purl.org/dc/dcmitype/StillImage" />
      </cc:Work>
    </rdf:RDF>
  </metadata>
  <sodipodi:namedview
     pagecolor="#ffffff"
     bordercolor="#666666"
     borderopacity="1"
     objecttolerance="10"
     gridtolerance="10"
     guidetolerance="10"
     inkscape:pageopacity="0"
     inkscape:pageshadow="2"
     inkscape:window-width="1920"
     inkscape:window-height="1180"
     id="namedview23"
     showgrid="false"
     inkscape:zoom="1.7636364"
     inkscape:cx="260.60389"
     inkscape:cy="138.8139"
     inkscape:window-x="1272"
     inkscape:window-y="-8"
     inkscape:window-maximized="1"
     inkscape:current-layer="svg2" />
  <desc
     id="desc4">Created with Raven (http://www.aviary.com)</desc>
  <defs
     id="defs6" />
  <g
     id="Layer_BBAAD70D-AA2F-588C-839F-679B7AA29F77"
     opacity="1" />
  <path
     d="M26 31L447 31L447 326L26 326L26 31z"
     id="ShapeObject_910D0BBD-E487-3D5A-6EF1-67A7FC619E63"
     stroke="#000000"
     stroke-opacity="1"
     stroke-width="2"
     stroke-linejoin="miter"
     stroke-miterlimit="4"
     style="fill:#000000;fill-opacity:0.49019607999999998;opacity:1;stroke:#000000;stroke-opacity:0"
     transform="matrix(1,0,0,1,-5,-16)"
     opacity="1" />
  <g
     id="Layer_70EABCD0-C017-67E4-9E56-679C03BA335B"
     opacity="1">
    <path
       d="M250 250L320 250L320 320L250 320L250 250z"
       id="ShapeObject_7A8FF909-9D91-95E7-0423-679C25D0DE19"
       stroke="#ffffff"
       stroke-opacity="1"
       stroke-width="2"
       stroke-linejoin="miter"
       stroke-miterlimit="4"
       style="fill:#ffffff;fill-opacity:1"
       transform="matrix(1,0,0,1,-55,-124)"
       opacity="1" />
  </g>
  <g
     id="Layer_728170D9-71DE-33FE-179D-679C25CF3E76"
     opacity="1">
    <path
       d="M139 277.5C139 256.78932375 122.21067625 240 101.5 240C80.78932375 240 64 256.78932375 64 277.5C64 298.21067625 80.78932375 315 101.5 315C122.21067625 315 139 298.21067625 139 277.5z"
       id="ShapeObject_BC232CC7-4929-8369-1A8E-679C41DEF6E7"
       stroke="#ffff00"
       stroke-opacity="1"
       stroke-width="2"
       stroke-linejoin="miter"
       stroke-miterlimit="4"
       style="fill:#ffff00;fill-opacity:1"
       transform="matrix(0.9220778942108154,0,0,0.9220778942108154,-27,-97.5)"
       opacity="1" />
    <path
       d="M449 362L537.5166604983954 361.1051177665153L492.48333950160463 284.8948822334847L449 362z"
       id="ShapeObject_FFE3F23E-1D1A-1B12-D66B-679C98C6FEDB"
       stroke="#0000ff"
       stroke-opacity="1"
       stroke-width="2"
       stroke-linejoin="miter"
       stroke-miterlimit="4"
       style="fill:#0000ff;fill-opacity:1"
       transform="matrix(0.9001814723014832,-3.092678491383225e-16,-3.319757556571451e-19,0.9001814723014832,-55.25,-138.75)"
       opacity="1" />
    <path
       d="M372 300C372 253.0558005 331.03405005 215 280.5 215C229.96594995 215 189 253.0558005 189 300C189 346.94419949999997 229.96594995 385 280.5 385C331.03405005 385 372 346.94419949999997 372 300z"
       id="ShapeObject_AFEE4CC4-7526-92B7-576B-679F73532C0C"
       stroke="#00ff00"
       stroke-opacity="1"
       stroke-width="5"
       stroke-linejoin="miter"
       stroke-miterlimit="4"
       style="fill:#ffffff;fill-opacity:0"
       transform="matrix(0.6569767594337463,0,0,0.6569767594337463,45,-36.5)"
       opacity="1" />
    <path
       d="M293 220M293 220L311 220"
       id="ShapeObject_802D78C9-680F-CB09-1981-67A25F7EE945"
       stroke="#ff0000"
       stroke-opacity="1"
       stroke-width="2"
       stroke-linejoin="miter"
       stroke-miterlimit="4"
       style="fill:#ffffff;fill-opacity:0;stroke-width:2;stroke-miterlimit:4;stroke-dasharray:none"
       transform="matrix(1,0,0,1,-184,-60.75)"
       opacity="1" />
    <path
       d="M293 220M293 220L311 220"
       id="EGGNode_1311703781305"
       stroke="#ff0000"
       stroke-opacity="1"
       stroke-width="2"
       stroke-linejoin="miter"
       stroke-miterlimit="4"
       style="fill:#ffffff;fill-opacity:0;stroke-width:2;stroke-miterlimit:4;stroke-dasharray:none"
       transform="matrix(0.004114092327654362,0.9999915361404419,-0.9999915361404419,0.004114092327654362,337,-143.5)"
       opacity="1" />
    <path
       d="M293 220M293 220L311 220"
       id="EGGNode_1311703781321"
       stroke="#ff0000"
       stroke-opacity="0.4980392156862745"
       stroke-width="2"
       stroke-linejoin="miter"
       stroke-miterlimit="4"
       style="fill:#ffffff;fill-opacity:0"
       transform="matrix(1,0,0,1,-167.5,-78.5)"
       opacity="1" />
    <path
       d="M293 220M293 220L311 220"
       id="EGGNode_1311703781325"
       stroke="#ff0000"
       stroke-opacity="0.4980392156862745"
       stroke-width="2"
       stroke-linejoin="miter"
       stroke-miterlimit="4"
       style="fill:#ffffff;fill-opacity:0"
       transform="matrix(0.004114092327654362,0.9999915361404419,-0.9999915361404419,0.004114092327654362,353.25,-161.25)"
       opacity="1" />
    <path
       d="M293 220M293 220L311 220"
       id="EGGNode_1311703781331"
       stroke="#ff0000"
       stroke-opacity="0.24705882352941178"
       stroke-width="2"
       stroke-linejoin="miter"
       stroke-miterlimit="4"
       style="fill:#ffffff;fill-opacity:0"
       transform="matrix(1,0,0,1,-146,-82.25)"
       opacity="1" />
    <path
       d="M293 220M293 220L311 220"
       id="EGGNode_1311703781335"
       stroke="#ff0000"
       stroke-opacity="0.24705882352941178"
       stroke-width="2"
       stroke-linejoin="miter"
       stroke-miterlimit="4"
       style="fill:#ffffff;fill-opacity:0"
       transform="matrix(0.004114092327654362,0.9999915361404419,-0.9999915361404419,0.004114092327654362,374.75,-165)"
       opacity="1" />
    <g
       id="Layer_0DF29168-2B61-F2D4-F090-67A7AAB2F66C"
       opacity="1" />
  </g>
</svg>
