<svg version="1.1" width="400" height="300" viewBox="0 0 400 300" xmlns:xlink="http://www.w3.org/1999/xlink" xmlns="http://www.w3.org/2000/svg">
  <desc>Created with Raven (http://www.aviary.com)</desc>
  <defs/>
  <g id="Layer_39CA0D9B-5B30-3BC9-C42B-675044164FAD" opacity="1">
    <path d="M453 304M453 304C466.1784085683916 418.8061309466562 77.35443380342049 353.7672358489352 108.77218110048041 304" id="ShapeObject_A6A37F9C-00F8-C961-C80C-6758F5F09E0E" stroke="#000000" stroke-opacity="1" stroke-width="2" stroke-linejoin="miter" stroke-miterlimit="4" style="fill:#ffffff;fill-opacity:0" transform="matrix(1.0370298624038696,0,0,1,-87.75,-84)" opacity="1"/>
    <path d="M194 304M194 304C199.52637137981986 250.4703168317281 216.02733798505682 202.33272183741772 233 152" id="ShapeObject_877B927D-D7D5-FE9E-08BA-675A87E6D8AB" stroke="#000000" stroke-opacity="1" stroke-width="2" stroke-linejoin="miter" stroke-miterlimit="4" style="fill:#ffffff;fill-opacity:0" transform="matrix(1,0,0,1,-71,-84)" opacity="1"/>
    <path d="M319 135M319 135C350.1458912039643 171.30786695562952 355.99939220358294 219.83776330918525 368 264" id="ShapeObject_DE26BE26-BEDF-0E94-1701-675AA695C692" stroke="#000000" stroke-opacity="1" stroke-width="2" stroke-linejoin="miter" stroke-miterlimit="4" style="fill:#ffffff;fill-opacity:0" transform="matrix(1,0,0,1,-71,-84)" opacity="1"/>
  </g>
  <g id="Layer_49EBFC57-433F-5C90-94A9-67511D71CB2C" opacity="1"/>
  <g id="Layer_60F35E11-E9F2-0BF8-122C-67521665ED09" opacity="1">
    <path d="M84 42L154 42L154 69L84 69L84 42z" id="ShapeObject_B76FA762-C730-7A1C-33F7-67521666EC26" stroke="#b40000" stroke-opacity="1" stroke-width="2" stroke-linejoin="miter" stroke-miterlimit="4" style="fill:#b40000;fill-opacity:1" transform="matrix(1,0,0,1,227,167)" opacity="1"/>
    <path d="M84 42L154 42L154 69L84 69L84 42z" id="EGGNode_1311698535114" stroke="#2e4f4f" stroke-opacity="1" stroke-width="2" stroke-linejoin="miter" stroke-miterlimit="4" style="fill:#2e4f4f;fill-opacity:1" transform="matrix(1,0,0,1,227,139)" opacity="1"/>
    <path d="M84 42L154 42L154 69L84 69L84 42z" id="EGGNode_1311698535118" stroke="#00b400" stroke-opacity="1" stroke-width="2" stroke-linejoin="miter" stroke-miterlimit="4" style="fill:#00b400;fill-opacity:1" transform="matrix(0.19452139735221863,1.9682623709356385e-16,0,2.0345118045806885,281.75,95.5)" opacity="1"/>
    <path d="M84 42L154 42L154 69L84 69L84 42z" id="EGGNode_1311698535140" stroke="#b40000" stroke-opacity="1" stroke-width="2" stroke-linejoin="miter" stroke-miterlimit="4" style="fill:#b40000;fill-opacity:1" transform="matrix(1,0,0,1,-32,166)" opacity="1"/>
    <path d="M84 42L154 42L154 69L84 69L84 42z" id="EGGNode_1311698535144" stroke="#2e4f4f" stroke-opacity="1" stroke-width="2" stroke-linejoin="miter" stroke-miterlimit="4" style="fill:#2e4f4f;fill-opacity:1" transform="matrix(1,0,0,1,-32,138)" opacity="1"/>
    <path d="M84 42L154 42L154 69L84 69L84 42z" id="EGGNode_1311698535148" stroke="#00b400" stroke-opacity="1" stroke-width="2" stroke-linejoin="miter" stroke-miterlimit="4" style="fill:#00b400;fill-opacity:1" transform="matrix(0.19452139735221863,1.9682623709356385e-16,0,2.0345118045806885,22.75,94.5)" opacity="1"/>
    <path d="M84 42L154 42L154 69L84 69L84 42z" id="EGGNode_1311698535155" stroke="#00b400" stroke-opacity="1" stroke-width="2" stroke-linejoin="miter" stroke-miterlimit="4" style="fill:#00b400;fill-opacity:1" transform="matrix(0.19452139735221863,1.9682623709356385e-16,0,2.0345118045806885,148.75,-72.5)" opacity="1"/>
    <path d="M84 42L154 42L154 69L84 69L84 42z" id="EGGNode_1311698535159" stroke="#2e4f4f" stroke-opacity="1" stroke-width="2" stroke-linejoin="miter" stroke-miterlimit="4" style="fill:#2e4f4f;fill-opacity:1" transform="matrix(1,0,0,1,94,-29)" opacity="1"/>
    <path d="M84 42L154 42L154 69L84 69L84 42z" id="EGGNode_1311698535163" stroke="#b40000" stroke-opacity="1" stroke-width="2" stroke-linejoin="miter" stroke-miterlimit="4" style="fill:#b40000;fill-opacity:1" transform="matrix(1,0,0,1,94,-1)" opacity="1"/>
  </g>
  <g id="Layer_1E82E6A7-9F8B-0C27-8808-675BD0BE5EF8" opacity="1"/>
  <g id="Layer_18AFA124-0991-A47B-C4F4-675C8E7CBEC8" opacity="1">
    <path d="M79 532L98 505L112 531L79 532z" id="ShapeObject_77FEDC6E-8C6C-FAA7-7F3E-675C8E7D2821" stroke="#000000" stroke-opacity="1" stroke-width="2" stroke-linejoin="miter" stroke-miterlimit="4" style="fill:#000000;fill-opacity:1" transform="matrix(-0.49386799335479736,0.132947638630867,-0.16330137848854065,-0.6066247820854187,427.25,473.75)" opacity="1"/>
    <path d="M79 532L98 505L112 531L79 532z" id="EGGNode_1311698535168" stroke="#000000" stroke-opacity="1" stroke-width="2" stroke-linejoin="miter" stroke-miterlimit="4" style="fill:#000000;fill-opacity:1" transform="matrix(0.2267194390296936,0.4584527313709259,-0.5631237626075745,0.278482586145401,302.5,28)" opacity="1"/>
    <path d="M79 532L98 505L112 531L79 532z" id="EGGNode_1311698535178" stroke="#000000" stroke-opacity="1" stroke-width="2" stroke-linejoin="miter" stroke-miterlimit="4" style="fill:#000000;fill-opacity:1" transform="matrix(0.4629015624523163,0.21749211847782135,-0.26714852452278137,0.5685882568359375,254.75,-242.25)" opacity="1"/>
  </g>
</svg>