<svg width="500" height="500" xmlns="http://www.w3.org/2000/svg" xmlns:xlink="http://www.w3.org/1999/xlink">
  <title>clapperboard</title>
  <metadata id="metadata7">image/svg+xmlClapper-board2006-11-11Stellarismovies, clapper-board</metadata>
  <g>
    <title>Layer 1</title>
    <g id="svg_1">
      <rect transform="matrix(0 1 1 0 0 0)" y="18.083706" x="97.871676" height="49.550255" width="91.138451" id="rect2098" rx="10.342281" ry="10.405553" stroke-dashoffset="0" stroke-miterlimit="4" stroke-width="2" fill-rule="evenodd" fill="black"/>
      <rect id="rect1959" width="469.73599" height="280.578" x="19.726306" y="177.922666" rx="8.962941" ry="8.962941" stroke-dashoffset="0" stroke-miterlimit="4" stroke-width="4" fill-rule="evenodd" fill="black"/>
      <g id="g2026" transform="matrix(0.693704 0 0 0.689485 86.8173 194.397)">
        <rect id="rect1874" width="683.46167" height="71.428574" x="-99.874099" y="-69.708377" stroke-dashoffset="0" stroke-miterlimit="4" stroke-width="2" fill-rule="evenodd" fill="black"/>
        <g transform="matrix(1 0 0 0.970194 0.0000076294 14.0816)" id="g1896">
          <rect transform="matrix(1 0 0.465746 -0.884918 0 0)" y="19.048519" x="-36.245098" height="73.897057" width="65.392929" id="rect1888" stroke-dashoffset="0" stroke-miterlimit="4" stroke-width="2" fill-rule="evenodd" fill="white"/>
          <rect id="rect1890" width="65.392929" height="73.897026" x="131.203202" y="19.048419" transform="matrix(1 0 0.465746 -0.884918 0 0)" stroke-dashoffset="0" stroke-miterlimit="4" stroke-width="2" fill-rule="evenodd" fill="white"/>
          <rect transform="matrix(1 0 0.465746 -0.884918 0 0)" y="19.048329" x="298.651412" height="73.896996" width="65.392929" id="rect1892" stroke-dashoffset="0" stroke-miterlimit="4" stroke-width="2" fill-rule="evenodd" fill="white"/>
          <rect id="rect1894" width="65.392929" height="73.896965" x="466.099712" y="19.048239" transform="matrix(1 0 0.465746 -0.884918 0 0)" stroke-dashoffset="0" stroke-miterlimit="4" stroke-width="2" fill-rule="evenodd" fill="white"/>
        </g>
      </g>
      <rect id="rect2006" width="474.07544" height="49.253487" x="-473.846023" y="98.42565" transform="matrix(-0.992438 0.122747 0.12423 0.992253 0 0)" stroke-dashoffset="0" stroke-miterlimit="4" stroke-width="2" fill-rule="evenodd" fill="black"/>
      <g transform="matrix(-0.688395 0.0851418 0.0831092 0.663814 674.461 86.9883)" id="g2008">
        <rect transform="matrix(1 0 0.465746 -0.884918 0 0)" y="40.864259" x="255.779861" height="73.897057" width="65.392929" id="rect2010" stroke-dashoffset="0" stroke-miterlimit="4" stroke-width="2" fill-rule="evenodd" fill="white"/>
        <rect id="rect2012" width="65.392929" height="73.897026" x="423.228161" y="40.864159" transform="matrix(1 0 0.465746 -0.884918 0 0)" stroke-dashoffset="0" stroke-miterlimit="4" stroke-width="2" fill-rule="evenodd" fill="white"/>
        <rect transform="matrix(1 0 0.465746 -0.884918 0 0)" y="40.864069" x="590.676371" height="73.896996" width="65.392929" id="rect2014" stroke-dashoffset="0" stroke-miterlimit="4" stroke-width="2" fill-rule="evenodd" fill="white"/>
        <rect id="rect2016" width="65.392929" height="73.896965" x="758.124671" y="40.863979" transform="matrix(1 0 0.465746 -0.884918 0 0)" stroke-dashoffset="0" stroke-miterlimit="4" stroke-width="2" fill-rule="evenodd" fill="white"/>
      </g>
      <path id="path2022" d="m52.441002,116.261002a9.83421,9.7744 0 1 1 -19.668503,2.431999a9.83421,9.7744 0 1 1 19.668503,-2.431999z" stroke-dashoffset="0" stroke-miterlimit="4" marker-end="none" marker-mid="none" marker-start="none" stroke-width="4" stroke="white" fill-rule="evenodd" fill="white"/>
      <path d="m17.458099,195.645996l474.195892,0" id="path2024" stroke-width="0.691591px" stroke="#ccc" fill-rule="evenodd" fill="none"/>
      <path id="path1950" d="m38.649502,377.332001l431.8895,0" stroke-width="4" stroke="white" fill-rule="evenodd" fill="none"/>
      <g id="g1984" transform="matrix(0.693704 0 0 0.689485 86.8173 194.413)">
        <path id="path1952" d="m113.625999,360.098999l0,-93.833984" stroke-width="3.999994" stroke="white" fill-rule="evenodd" fill="none"/>
        <path d="m370.088013,360.098999l0,-93.833984" id="path1954" stroke-width="3.999994" stroke="white" fill-rule="evenodd" fill="none"/>
      </g>
    </g>
    <metadata id="svg_32">image/svg+xml</metadata>
    <desc>Created with Raven (http://www.aviary.com)</desc>
    <defs>
      <linearGradient id="svg_29">
        <stop id="svg_31" offset="0" stop-color="#dc0000"/>
        <stop id="svg_30" offset="1" stop-color="#320000"/>
      </linearGradient>
      <linearGradient xlink:href="#svg_29" id="svg_27" x1="-0.014286" y1="0.5" x2="1.014286" y2="0.5"/>
      <linearGradient id="svg_238">
        <stop offset="0" stop-color="#ffffff"/>
        <stop offset="1" stop-opacity="0.996094" stop-color="#646464"/>
      </linearGradient>
      <linearGradient y2="1" x2="1" y1="0" x1="0" id="svg_239">
        <stop offset="0" stop-color="#ffffff"/>
        <stop offset="1" stop-opacity="0.996094" stop-color="#646464"/>
      </linearGradient>
    </defs>
    <g id="svg_28" transform="matrix(1.37658 0 0 1.37658 -83.6174 -146.62)"/>

    <metadata id="svg_37">image/svg+xmlimage/svg+xml</metadata>

    <metadata id="svg_235">image/svg+xml</metadata>
    <g id="svg_237">
      <g transform="matrix(0.856481 0 0 0.856481 -548.716 -649.774)" display="inline" id="svg_192">
        <path fill="url(#svg_239)" fill-opacity="0.117647" fill-rule="evenodd" stroke-width="1px" stroke-opacity="0.173684" id="svg_234" d="m767.225586,1059.005127l4,-4l28,0l4,4l-4,4l-28,0l-4,-4z"/>
        <path fill="url(#svg_239)" fill-opacity="0.117647" fill-rule="evenodd" stroke-width="1px" stroke-opacity="0.173684" d="m765.225586,1061.005127l4,4l0,28l-4,4l-4,-4l0,-28l4,-4z" id="svg_233"/>
        <path fill="url(#svg_239)" fill-opacity="0.117647" fill-rule="evenodd" stroke-width="1px" stroke-opacity="0.173684" id="svg_232" d="m805.225586,1061.005127l4,4l0,28l-4,4l-4,-4l0,-28l4,-4z"/>
        <path fill="url(#svg_239)" fill-opacity="0.117647" fill-rule="evenodd" stroke-width="1px" stroke-opacity="0.173684" d="m767.225586,1099.005127l4,-4l28,0l4,4l-4,4l-28,0l-4,-4z" id="svg_231"/>
        <path fill="url(#svg_239)" fill-opacity="0.117647" fill-rule="evenodd" stroke-width="1px" stroke-opacity="0.173684" id="svg_230" d="m765.225586,1101.005127l4,4l0,28l-4,4l-4,-4l0,-28l4,-4z"/>
        <path fill="url(#svg_239)" fill-opacity="0.117647" fill-rule="evenodd" stroke-width="1px" stroke-opacity="0.173684" d="m805.225586,1101.005127l4,4l0,28l-4,4l-4,-4l0,-28l4,-4z" id="svg_229"/>
        <path fill="url(#svg_239)" fill-opacity="0.117647" fill-rule="evenodd" stroke-width="1px" stroke-opacity="0.173684" id="svg_228" d="m767.225586,1139.005127l4,-4l28,0l4,4l-4,4l-28,0l-4,-4z"/>
        <path fill="url(#svg_239)" fill-opacity="0.117647" fill-rule="evenodd" stroke-width="1px" stroke-opacity="0.173684" d="m823.225586,1059.005127l4,-4l28,0l4,4l-4,4l-28,0l-4,-4z" id="svg_227"/>
        <path fill="url(#svg_239)" fill-opacity="0.117647" fill-rule="evenodd" stroke-width="1px" stroke-opacity="0.173684" id="svg_226" d="m821.225586,1061.005127l4,4l0,28l-4,4l-4,-4l0,-28l4,-4z"/>
        <path fill="url(#svg_239)" fill-opacity="0.117647" fill-rule="evenodd" stroke-width="1px" stroke-opacity="0.173684" d="m861.225586,1061.005127l4,4l0,28l-4,4l-4,-4l0,-28l4,-4z" id="svg_225"/>
        <path fill="url(#svg_239)" fill-opacity="0.117647" fill-rule="evenodd" stroke-width="1px" stroke-opacity="0.173684" id="svg_224" d="m823.225586,1099.005127l4,-4l28,0l4,4l-4,4l-28,0l-4,-4z"/>
        <path fill="url(#svg_239)" fill-opacity="0.117647" fill-rule="evenodd" stroke-width="1px" stroke-opacity="0.173684" d="m821.225586,1101.005127l4,4l0,28l-4,4l-4,-4l0,-28l4,-4z" id="svg_223"/>
        <path fill="url(#svg_239)" fill-opacity="0.117647" fill-rule="evenodd" stroke-width="1px" stroke-opacity="0.173684" id="svg_222" d="m861.225586,1101.005127l4,4l0,28l-4,4l-4,-4l0,-28l4,-4z"/>
        <path fill="url(#svg_239)" fill-opacity="0.117647" fill-rule="evenodd" stroke-width="1px" stroke-opacity="0.173684" d="m823.225586,1139.005127l4,-4l28,0l4,4l-4,4l-28,0l-4,-4z" id="svg_221"/>
        <path fill="url(#svg_239)" fill-opacity="0.117647" fill-rule="evenodd" stroke-width="1px" stroke-opacity="0.173684" d="m891.225586,1059.005127l4,-4l28,0l4,4l-4,4l-28,0l-4,-4z" id="svg_220"/>
        <path fill="url(#svg_239)" fill-opacity="0.117647" fill-rule="evenodd" stroke-width="1px" stroke-opacity="0.173684" id="svg_219" d="m889.225586,1061.005127l4,4l0,28l-4,4l-4,-4l0,-28l4,-4z"/>
        <path fill="url(#svg_239)" fill-opacity="0.117647" fill-rule="evenodd" stroke-width="1px" stroke-opacity="0.173684" d="m929.225586,1061.005127l4,4l0,28l-4,4l-4,-4l0,-28l4,-4z" id="svg_218"/>
        <path fill="url(#svg_239)" fill-opacity="0.117647" fill-rule="evenodd" stroke-width="1px" stroke-opacity="0.173684" id="svg_217" d="m891.225586,1099.005127l4,-4l28,0l4,4l-4,4l-28,0l-4,-4z"/>
        <path fill="url(#svg_239)" fill-opacity="0.117647" fill-rule="evenodd" stroke-width="1px" stroke-opacity="0.173684" d="m889.225586,1101.005127l4,4l0,28l-4,4l-4,-4l0,-28l4,-4z" id="svg_216"/>
        <path fill="url(#svg_239)" fill-opacity="0.117647" fill-rule="evenodd" stroke-width="1px" stroke-opacity="0.173684" id="svg_215" d="m929.225586,1101.005127l4,4l0,28l-4,4l-4,-4l0,-28l4,-4z"/>
        <path fill="url(#svg_239)" fill-opacity="0.117647" fill-rule="evenodd" stroke-width="1px" stroke-opacity="0.173684" d="m891.225586,1139.005127l4,-4l28,0l4,4l-4,4l-28,0l-4,-4z" id="svg_214"/>
        <path fill="url(#svg_239)" fill-opacity="0.117647" fill-rule="evenodd" stroke-width="1px" stroke-opacity="0.173684" id="svg_213" d="m947.225586,1059.005127l4,-4l28.002991,0l4,4l-4,4l-28.002991,0l-4,-4z"/>
        <path fill="url(#svg_239)" fill-opacity="0.117647" fill-rule="evenodd" stroke-width="1px" stroke-opacity="0.173684" d="m945.225586,1061.005127l4,4l0,28l-4,4l-4,-4l0,-28l4,-4z" id="svg_212"/>
        <path fill="url(#svg_239)" fill-opacity="0.117647" fill-rule="evenodd" stroke-width="1px" stroke-opacity="0.173684" id="svg_211" d="m985.228577,1061.005127l4,4l0,28l-4,4l-4,-4l0,-28l4,-4z"/>
        <path fill="url(#svg_239)" fill-opacity="0.117647" fill-rule="evenodd" stroke-width="1px" stroke-opacity="0.173684" d="m947.225586,1099.005127l4,-4l28.002991,0l4,4l-4,4l-28.002991,0l-4,-4z" id="svg_210"/>
        <path fill="url(#svg_239)" fill-opacity="0.117647" fill-rule="evenodd" stroke-width="1px" stroke-opacity="0.173684" id="svg_209" d="m945.225586,1101.005127l4,4l0,28l-4,4l-4,-4l0,-28l4,-4z"/>
        <path fill="url(#svg_239)" fill-opacity="0.117647" fill-rule="evenodd" stroke-width="1px" stroke-opacity="0.173684" d="m985.228577,1101.005127l4,4l0,28l-4,4l-4,-4l0,-28l4,-4z" id="svg_208"/>
        <path fill="url(#svg_239)" fill-opacity="0.117647" fill-rule="evenodd" stroke-width="1px" stroke-opacity="0.173684" id="svg_207" d="m947.225586,1139.005127l4,-4l28.002991,0l4,4l-4,4l-28.002991,0l-4,-4z"/>
        <path fill="url(#svg_239)" fill-opacity="0.117647" fill-rule="evenodd" stroke-width="1px" stroke-opacity="0.173684" id="svg_206" d="m1015.228882,1059.005127l4.000061,-4l28.000183,0l4,4l-4,4l-28.000183,0l-4.000061,-4z"/>
        <path fill="url(#svg_239)" fill-opacity="0.117647" fill-rule="evenodd" stroke-width="1px" stroke-opacity="0.173684" d="m1013.228821,1061.005127l4.000122,4l0,28l-4.000122,4l-4.000122,-4l0,-28l4.000122,-4z" id="svg_205"/>
        <path fill="url(#svg_239)" fill-opacity="0.117647" fill-rule="evenodd" stroke-width="1px" stroke-opacity="0.173684" id="svg_204" d="m1053.229126,1061.005127l4,4l0,28l-4,4l-4,-4l0,-28l4,-4z"/>
        <path fill="url(#svg_239)" fill-opacity="0.117647" fill-rule="evenodd" stroke-width="1px" stroke-opacity="0.173684" d="m1015.228882,1099.005127l4.000061,-4l28.000183,0l4,4l-4,4l-28.000183,0l-4.000061,-4z" id="svg_203"/>
        <path fill="url(#svg_239)" fill-opacity="0.117647" fill-rule="evenodd" stroke-width="1px" stroke-opacity="0.173684" id="svg_202" d="m1013.228821,1101.005127l4.000122,4l0,28l-4.000122,4l-4.000122,-4l0,-28l4.000122,-4z"/>
        <path fill="url(#svg_239)" fill-opacity="0.117647" fill-rule="evenodd" stroke-width="1px" stroke-opacity="0.173684" d="m1053.229126,1101.005127l4,4l0,28l-4,4l-4,-4l0,-28l4,-4z" id="svg_201"/>
        <path fill="url(#svg_239)" fill-opacity="0.117647" fill-rule="evenodd" stroke-width="1px" stroke-opacity="0.173684" id="svg_200" d="m1015.228882,1139.005127l4.000061,-4l28.000183,0l4,4l-4,4l-28.000183,0l-4.000061,-4z"/>
        <path fill="url(#svg_239)" fill-opacity="0.117647" fill-rule="evenodd" stroke-width="1px" stroke-opacity="0.173684" d="m1071.229126,1059.005127l4,-4l28,0l4,4l-4,4l-28,0l-4,-4z" id="svg_199"/>
        <path fill="url(#svg_239)" fill-opacity="0.117647" fill-rule="evenodd" stroke-width="1px" stroke-opacity="0.173684" id="svg_198" d="m1069.229126,1061.005127l4,4l0,28l-4,4l-4,-4l0,-28l4,-4z"/>
        <path fill="url(#svg_239)" fill-opacity="0.117647" fill-rule="evenodd" stroke-width="1px" stroke-opacity="0.173684" d="m1109.229126,1061.005127l4,4l0,28l-4,4l-4,-4l0,-28l4,-4z" id="svg_197"/>
        <path fill="url(#svg_239)" fill-opacity="0.117647" fill-rule="evenodd" stroke-width="1px" stroke-opacity="0.173684" id="svg_196" d="m1071.229126,1099.005127l4,-4l28,0l4,4l-4,4l-28,0l-4,-4z"/>
        <path fill="url(#svg_239)" fill-opacity="0.117647" fill-rule="evenodd" stroke-width="1px" stroke-opacity="0.173684" d="m1069.229126,1101.005127l4,4l0,28l-4,4l-4,-4l0,-28l4,-4z" id="svg_195"/>
        <path fill="url(#svg_239)" fill-opacity="0.117647" fill-rule="evenodd" stroke-width="1px" stroke-opacity="0.173684" id="svg_194" d="m1109.229126,1101.005127l4,4l0,28l-4,4l-4,-4l0,-28l4,-4z"/>
        <path fill="url(#svg_239)" fill-opacity="0.117647" fill-rule="evenodd" stroke-width="1px" stroke-opacity="0.173684" d="m1071.229126,1139.005127l4,-4l28,0l4,4l-4,4l-28,0l-4,-4z" id="svg_193"/>
      </g>
      <g transform="matrix(0.856481 0 0 0.856481 -548.716 -649.774)" display="inline" id="svg_141">
        <path stroke="#000000" fill="url(#svg_239)" fill-rule="evenodd" stroke-width="1px" stroke-linecap="round" stroke-linejoin="round" d="m767.225586,1059.005127l4,-4l28,0l4,4l-4,4l-28,0l-4,-4z" id="svg_191"/>
        <path stroke="#000000" fill="url(#svg_239)" fill-rule="evenodd" stroke-width="1px" stroke-linecap="round" stroke-linejoin="round" id="svg_190" d="m765.225586,1061.005127l4,4l0,28l-4,4l-4,-4l0,-28l4,-4z"/>
        <path stroke="#000000" fill="url(#svg_239)" fill-rule="evenodd" stroke-width="1px" stroke-linecap="round" stroke-linejoin="round" d="m805.225586,1061.005127l4,4l0,28l-4,4l-4,-4l0,-28l4,-4z" id="svg_189"/>
        <path stroke="#000000" fill="url(#svg_239)" fill-rule="evenodd" stroke-width="1px" stroke-linecap="round" stroke-linejoin="round" id="svg_188" d="m767.225586,1099.005127l4,-4l28,0l4,4l-4,4l-28,0l-4,-4z"/>
        <path stroke="#000000" fill="url(#svg_239)" fill-rule="evenodd" stroke-width="1px" stroke-linecap="round" stroke-linejoin="round" d="m765.225586,1101.005127l4,4l0,28l-4,4l-4,-4l0,-28l4,-4z" id="svg_187"/>
        <path stroke="#000000" fill="url(#svg_239)" fill-rule="evenodd" stroke-width="1px" stroke-linecap="round" stroke-linejoin="round" id="svg_186" d="m805.225586,1101.005127l4,4l0,28l-4,4l-4,-4l0,-28l4,-4z"/>
        <path stroke="#000000" fill="url(#svg_239)" fill-rule="evenodd" stroke-width="1px" stroke-linecap="round" stroke-linejoin="round" d="m767.225586,1139.005127l4,-4l28,0l4,4l-4,4l-28,0l-4,-4z" id="svg_185"/>
        <path stroke="#000000" fill="url(#svg_239)" fill-rule="evenodd" stroke-width="1px" stroke-linecap="round" stroke-linejoin="round" id="svg_184" d="m823.225586,1059.005127l4,-4l28,0l4,4l-4,4l-28,0l-4,-4z"/>
        <path stroke="#000000" fill="url(#svg_239)" fill-rule="evenodd" stroke-width="1px" stroke-linecap="round" stroke-linejoin="round" d="m821.225586,1061.005127l4,4l0,28l-4,4l-4,-4l0,-28l4,-4z" id="svg_183"/>
        <path stroke="#000000" fill="url(#svg_239)" fill-rule="evenodd" stroke-width="1px" stroke-linecap="round" stroke-linejoin="round" id="svg_182" d="m861.225586,1061.005127l4,4l0,28l-4,4l-4,-4l0,-28l4,-4z"/>
        <path stroke="#000000" fill="url(#svg_239)" fill-rule="evenodd" stroke-width="1px" stroke-linecap="round" stroke-linejoin="round" d="m823.225586,1099.005127l4,-4l28,0l4,4l-4,4l-28,0l-4,-4z" id="svg_181"/>
        <path stroke="#000000" fill="url(#svg_239)" fill-rule="evenodd" stroke-width="1px" stroke-linecap="round" stroke-linejoin="round" id="svg_180" d="m821.225586,1101.005127l4,4l0,28l-4,4l-4,-4l0,-28l4,-4z"/>
        <path stroke="#000000" fill="url(#svg_239)" fill-rule="evenodd" stroke-width="1px" stroke-linecap="round" stroke-linejoin="round" d="m861.225586,1101.005127l4,4l0,28l-4,4l-4,-4l0,-28l4,-4z" id="svg_179"/>
        <path stroke="#000000" fill="url(#svg_239)" fill-rule="evenodd" stroke-width="1px" stroke-linecap="round" stroke-linejoin="round" id="svg_178" d="m823.225586,1139.005127l4,-4l28,0l4,4l-4,4l-28,0l-4,-4z"/>
        <path fill="url(#svg_239)" fill-opacity="0.117647" fill-rule="nonzero" stroke-width="1.012265" stroke-linecap="round" stroke-linejoin="round" marker-start="none" marker-mid="none" marker-end="none" stroke-miterlimit="4" stroke-dashoffset="0" d="m879.135559,1079.005127a3.95487,3.9482 0 1 1 -7.909973,0a3.95487,3.9482 0 1 1 7.909973,0z" id="svg_177"/>
        <path fill="url(#svg_239)" fill-opacity="0.117647" fill-rule="nonzero" stroke-width="1.012265" stroke-linecap="round" stroke-linejoin="round" marker-start="none" marker-mid="none" marker-end="none" stroke-miterlimit="4" stroke-dashoffset="0" id="svg_176" d="m879.135559,1119.005127a3.95487,3.9482 0 1 1 -7.909973,0a3.95487,3.9482 0 1 1 7.909973,0z"/>
        <path stroke="#000000" fill="url(#svg_239)" fill-rule="nonzero" stroke-width="1.012265" stroke-linecap="round" stroke-linejoin="round" marker-start="none" marker-mid="none" marker-end="none" stroke-miterlimit="4" stroke-dashoffset="0" id="svg_175" d="m879.135559,1079.005127a3.95487,3.9482 0 1 1 -7.909973,0a3.95487,3.9482 0 1 1 7.909973,0z"/>
        <path stroke="#000000" fill="url(#svg_239)" fill-rule="nonzero" stroke-width="1.012265" stroke-linecap="round" stroke-linejoin="round" marker-start="none" marker-mid="none" marker-end="none" stroke-miterlimit="4" stroke-dashoffset="0" d="m879.135559,1119.005127a3.95487,3.9482 0 1 1 -7.909973,0a3.95487,3.9482 0 1 1 7.909973,0z" id="svg_174"/>
        <path stroke="#000000" fill="url(#svg_239)" fill-rule="evenodd" stroke-width="1px" stroke-linecap="round" stroke-linejoin="round" id="svg_173" d="m891.225586,1059.005127l4,-4l28,0l4,4l-4,4l-28,0l-4,-4z"/>
        <path stroke="#000000" fill="url(#svg_239)" fill-rule="evenodd" stroke-width="1px" stroke-linecap="round" stroke-linejoin="round" d="m889.225586,1061.005127l4,4l0,28l-4,4l-4,-4l0,-28l4,-4z" id="svg_172"/>
        <path stroke="#000000" fill="url(#svg_239)" fill-rule="evenodd" stroke-width="1px" stroke-linecap="round" stroke-linejoin="round" id="svg_171" d="m929.225586,1061.005127l4,4l0,28l-4,4l-4,-4l0,-28l4,-4z"/>
        <path stroke="#000000" fill="url(#svg_239)" fill-rule="evenodd" stroke-width="1px" stroke-linecap="round" stroke-linejoin="round" d="m891.225586,1099.005127l4,-4l28,0l4,4l-4,4l-28,0l-4,-4z" id="svg_170"/>
        <path stroke="#000000" fill="url(#svg_239)" fill-rule="evenodd" stroke-width="1px" stroke-linecap="round" stroke-linejoin="round" id="svg_169" d="m889.225586,1101.005127l4,4l0,28l-4,4l-4,-4l0,-28l4,-4z"/>
        <path stroke="#000000" fill="url(#svg_239)" fill-rule="evenodd" stroke-width="1px" stroke-linecap="round" stroke-linejoin="round" d="m929.225586,1101.005127l4,4l0,28l-4,4l-4,-4l0,-28l4,-4z" id="svg_168"/>
        <path stroke="#000000" fill="url(#svg_239)" fill-rule="evenodd" stroke-width="1px" stroke-linecap="round" stroke-linejoin="round" id="svg_167" d="m891.225586,1139.005127l4,-4l28,0l4,4l-4,4l-28,0l-4,-4z"/>
        <path stroke="#000000" fill="url(#svg_239)" fill-rule="evenodd" stroke-width="1px" stroke-linecap="round" stroke-linejoin="round" d="m947.225586,1059.005127l4,-4l28.002991,0l4,4l-4,4l-28.002991,0l-4,-4z" id="svg_166"/>
        <path stroke="#000000" fill="url(#svg_239)" fill-rule="evenodd" stroke-width="1px" stroke-linecap="round" stroke-linejoin="round" id="svg_165" d="m945.225586,1061.005127l4,4l0,28l-4,4l-4,-4l0,-28l4,-4z"/>
        <path stroke="#000000" fill="url(#svg_239)" fill-rule="evenodd" stroke-width="1px" stroke-linecap="round" stroke-linejoin="round" d="m985.228577,1061.005127l4,4l0,28l-4,4l-4,-4l0,-28l4,-4z" id="svg_164"/>
        <path stroke="#000000" fill="url(#svg_239)" fill-rule="evenodd" stroke-width="1px" stroke-linecap="round" stroke-linejoin="round" id="svg_163" d="m947.225586,1099.005127l4,-4l28.002991,0l4,4l-4,4l-28.002991,0l-4,-4z"/>
        <path stroke="#000000" fill="url(#svg_239)" fill-rule="evenodd" stroke-width="1px" stroke-linecap="round" stroke-linejoin="round" d="m945.225586,1101.005127l4,4l0,28l-4,4l-4,-4l0,-28l4,-4z" id="svg_162"/>
        <path stroke="#000000" fill="url(#svg_239)" fill-rule="evenodd" stroke-width="1px" stroke-linecap="round" stroke-linejoin="round" id="svg_161" d="m985.228577,1101.005127l4,4l0,28l-4,4l-4,-4l0,-28l4,-4z"/>
        <path stroke="#000000" fill="url(#svg_239)" fill-rule="evenodd" stroke-width="1px" stroke-linecap="round" stroke-linejoin="round" d="m947.225586,1139.005127l4,-4l28.002991,0l4,4l-4,4l-28.002991,0l-4,-4z" id="svg_160"/>
        <path fill="url(#svg_239)" fill-opacity="0.117647" fill-rule="nonzero" stroke-width="1.012265" stroke-linecap="round" stroke-linejoin="round" marker-start="none" marker-mid="none" marker-end="none" stroke-miterlimit="4" stroke-dashoffset="0" id="svg_159" d="m1003.138611,1079.005127a3.95487,3.9482 0 1 1 -7.910034,0a3.95487,3.9482 0 1 1 7.910034,0z"/>
        <path fill="url(#svg_239)" fill-opacity="0.117647" fill-rule="nonzero" stroke-width="1.012265" stroke-linecap="round" stroke-linejoin="round" marker-start="none" marker-mid="none" marker-end="none" stroke-miterlimit="4" stroke-dashoffset="0" d="m1003.138611,1119.005127a3.95487,3.9482 0 1 1 -7.910034,0a3.95487,3.9482 0 1 1 7.910034,0z" id="svg_158"/>
        <path stroke="#000000" fill="url(#svg_239)" fill-rule="nonzero" stroke-width="1.012265" stroke-linecap="round" stroke-linejoin="round" marker-start="none" marker-mid="none" marker-end="none" stroke-miterlimit="4" stroke-dashoffset="0" d="m1003.138611,1079.005127a3.95487,3.9482 0 1 1 -7.910034,0a3.95487,3.9482 0 1 1 7.910034,0z" id="svg_157"/>
        <path stroke="#000000" fill="url(#svg_239)" fill-rule="nonzero" stroke-width="1.012265" stroke-linecap="round" stroke-linejoin="round" marker-start="none" marker-mid="none" marker-end="none" stroke-miterlimit="4" stroke-dashoffset="0" id="svg_156" d="m1003.138611,1119.005127a3.95487,3.9482 0 1 1 -7.910034,0a3.95487,3.9482 0 1 1 7.910034,0z"/>
        <path stroke="#000000" fill="url(#svg_239)" fill-rule="evenodd" stroke-width="1px" stroke-linecap="round" stroke-linejoin="round" d="m1015.228882,1059.005127l4.000061,-4l28.000183,0l4,4l-4,4l-28.000183,0l-4.000061,-4z" id="svg_155"/>
        <path stroke="#000000" fill="url(#svg_239)" fill-rule="evenodd" stroke-width="1px" stroke-linecap="round" stroke-linejoin="round" id="svg_154" d="m1013.228821,1061.005127l4.000122,4l0,28l-4.000122,4l-4.000122,-4l0,-28l4.000122,-4z"/>
        <path stroke="#000000" fill="url(#svg_239)" fill-rule="evenodd" stroke-width="1px" stroke-linecap="round" stroke-linejoin="round" d="m1053.229126,1061.005127l4,4l0,28l-4,4l-4,-4l0,-28l4,-4z" id="svg_153"/>
        <path stroke="#000000" fill="url(#svg_239)" fill-rule="evenodd" stroke-width="1px" stroke-linecap="round" stroke-linejoin="round" id="svg_152" d="m1015.228882,1099.005127l4.000061,-4l28.000183,0l4,4l-4,4l-28.000183,0l-4.000061,-4z"/>
        <path stroke="#000000" fill="url(#svg_239)" fill-rule="evenodd" stroke-width="1px" stroke-linecap="round" stroke-linejoin="round" d="m1013.228821,1101.005127l4.000122,4l0,28l-4.000122,4l-4.000122,-4l0,-28l4.000122,-4z" id="svg_151"/>
        <path stroke="#000000" fill="url(#svg_239)" fill-rule="evenodd" stroke-width="1px" stroke-linecap="round" stroke-linejoin="round" id="svg_150" d="m1053.229126,1101.005127l4,4l0,28l-4,4l-4,-4l0,-28l4,-4z"/>
        <path stroke="#000000" fill="url(#svg_239)" fill-rule="evenodd" stroke-width="1px" stroke-linecap="round" stroke-linejoin="round" d="m1015.228882,1139.005127l4.000061,-4l28.000183,0l4,4l-4,4l-28.000183,0l-4.000061,-4z" id="svg_149"/>
        <path stroke="#000000" fill="url(#svg_239)" fill-rule="evenodd" stroke-width="1px" stroke-linecap="round" stroke-linejoin="round" id="svg_148" d="m1071.229126,1059.005127l4,-4l28,0l4,4l-4,4l-28,0l-4,-4z"/>
        <path stroke="#000000" fill="url(#svg_239)" fill-rule="evenodd" stroke-width="1px" stroke-linecap="round" stroke-linejoin="round" d="m1069.229126,1061.005127l4,4l0,28l-4,4l-4,-4l0,-28l4,-4z" id="svg_147"/>
        <path stroke="#000000" fill="url(#svg_239)" fill-rule="evenodd" stroke-width="1px" stroke-linecap="round" stroke-linejoin="round" id="svg_146" d="m1109.229126,1061.005127l4,4l0,28l-4,4l-4,-4l0,-28l4,-4z"/>
        <path stroke="#000000" fill="url(#svg_239)" fill-rule="evenodd" stroke-width="1px" stroke-linecap="round" stroke-linejoin="round" d="m1071.229126,1099.005127l4,-4l28,0l4,4l-4,4l-28,0l-4,-4z" id="svg_145"/>
        <path stroke="#000000" fill="url(#svg_239)" fill-rule="evenodd" stroke-width="1px" stroke-linecap="round" stroke-linejoin="round" id="svg_144" d="m1069.229126,1101.005127l4,4l0,28l-4,4l-4,-4l0,-28l4,-4z"/>
        <path stroke="#000000" fill="url(#svg_239)" fill-rule="evenodd" stroke-width="1px" stroke-linecap="round" stroke-linejoin="round" d="m1109.229126,1101.005127l4,4l0,28l-4,4l-4,-4l0,-28l4,-4z" id="svg_143"/>
        <path stroke="#000000" fill="url(#svg_239)" fill-rule="evenodd" stroke-width="1px" stroke-linecap="round" stroke-linejoin="round" id="svg_142" d="m1071.229126,1139.005127l4,-4l28,0l4,4l-4,4l-28,0l-4,-4z"/>
      </g>
    </g>
  </g>
</svg>