<svg width="160" height="70" xmlns="http://www.w3.org/2000/svg">
  <desc>Created with Raven (http://www.aviary.com)</desc>

  <g>
    <title>Layer 1</title>
    <g id="Layer_DCCB221B-BFEA-FFC1-DF2E-67EBEB888B80"/>
    <g id="Layer_C4883A2E-5E09-C371-1592-67EC7D753712">
      <text xml:space="preserve" text-anchor="middle" font-family="Sans-serif" font-size="40" id="svg_2" y="26.590908" x="28.500031" stroke-linecap="null" stroke-linejoin="null" stroke-dasharray="null" stroke-width="0" fill="#0000ff"/>
      <path fill="#0000ff" id="ShapeObject_9A946872-09C3-5825-79C1-67EC7D854516" d="m52,40m0,0c0,-1.900002 0.699997,-2 11,-2c10.300003,0 11,0.099998 11,2c0,1.900002 -0.699997,2 -11,2c-10.300003,0 -11,-0.099998 -11,-2"/>
      <path fill="#0000ff" id="ShapeObject_E622E861-3176-F5EE-6624-67EC7D86F28A" d="m52,31m0,0c0,-1.900002 0.699997,-2 11,-2c10.300003,0 11,0.099998 11,2c0,1.900002 -0.699997,2 -11,2c-10.300003,0 -11,-0.099998 -11,-2"/>
      <text xml:space="preserve" text-anchor="middle" font-family="Sans-serif" font-size="40" id="svg_6" y="44.590908" x="29.500031" stroke-linecap="null" stroke-linejoin="null" stroke-dasharray="null" stroke-width="0" fill="#000009">x</text>
      <text font-style="normal" font-weight="normal" xml:space="preserve" text-anchor="middle" font-family="Serif" font-size="40" id="svg_7" y="47.590908" x="109.500031" stroke-linecap="null" stroke-linejoin="null" stroke-dasharray="null" stroke-width="0" fill="#000009">"..."</text>
    </g>
  </g>
</svg>