<svg width="500" height="500" xmlns="http://www.w3.org/2000/svg" xmlns:xlink="http://www.w3.org/1999/xlink">
  <title>clapperboard</title>
  <metadata id="metadata7">image/svg+xmlClapper-board2006-11-11Stellarismovies, clapper-board</metadata>
  <g>
    <title>Layer 1</title>
    <g id="svg_1">
      <rect transform="matrix(0 1 1 0 0 0)" y="18.083706" x="97.871676" height="49.550255" width="91.138451" id="rect2098" rx="10.342281" ry="10.405553" stroke-dashoffset="0" stroke-miterlimit="4" stroke-width="2" fill-rule="evenodd" fill="black"/>
      <rect id="rect1959" width="469.73599" height="280.578" x="19.726306" y="177.922666" rx="8.962941" ry="8.962941" stroke-dashoffset="0" stroke-miterlimit="4" stroke-width="4" fill-rule="evenodd" fill="black"/>
      <g id="g2026" transform="matrix(0.693704 0 0 0.689485 86.8173 194.397)">
        <rect id="rect1874" width="683.46167" height="71.428574" x="-99.874099" y="-69.708377" stroke-dashoffset="0" stroke-miterlimit="4" stroke-width="2" fill-rule="evenodd" fill="black"/>
        <g transform="matrix(1 0 0 0.970194 0.0000076294 14.0816)" id="g1896">
          <rect transform="matrix(1 0 0.465746 -0.884918 0 0)" y="19.048519" x="-36.245098" height="73.897057" width="65.392929" id="rect1888" stroke-dashoffset="0" stroke-miterlimit="4" stroke-width="2" fill-rule="evenodd" fill="white"/>
          <rect id="rect1890" width="65.392929" height="73.897026" x="131.203202" y="19.048419" transform="matrix(1 0 0.465746 -0.884918 0 0)" stroke-dashoffset="0" stroke-miterlimit="4" stroke-width="2" fill-rule="evenodd" fill="white"/>
          <rect transform="matrix(1 0 0.465746 -0.884918 0 0)" y="19.048329" x="298.651412" height="73.896996" width="65.392929" id="rect1892" stroke-dashoffset="0" stroke-miterlimit="4" stroke-width="2" fill-rule="evenodd" fill="white"/>
          <rect id="rect1894" width="65.392929" height="73.896965" x="466.099712" y="19.048239" transform="matrix(1 0 0.465746 -0.884918 0 0)" stroke-dashoffset="0" stroke-miterlimit="4" stroke-width="2" fill-rule="evenodd" fill="white"/>
        </g>
      </g>
      <rect id="rect2006" width="474.07544" height="49.253487" x="-473.846023" y="98.42565" transform="matrix(-0.992438 0.122747 0.12423 0.992253 0 0)" stroke-dashoffset="0" stroke-miterlimit="4" stroke-width="2" fill-rule="evenodd" fill="black"/>
      <g transform="matrix(-0.688395 0.0851418 0.0831092 0.663814 674.461 86.9883)" id="g2008">
        <rect transform="matrix(1 0 0.465746 -0.884918 0 0)" y="40.864259" x="255.779861" height="73.897057" width="65.392929" id="rect2010" stroke-dashoffset="0" stroke-miterlimit="4" stroke-width="2" fill-rule="evenodd" fill="white"/>
        <rect id="rect2012" width="65.392929" height="73.897026" x="423.228161" y="40.864159" transform="matrix(1 0 0.465746 -0.884918 0 0)" stroke-dashoffset="0" stroke-miterlimit="4" stroke-width="2" fill-rule="evenodd" fill="white"/>
        <rect transform="matrix(1 0 0.465746 -0.884918 0 0)" y="40.864069" x="590.676371" height="73.896996" width="65.392929" id="rect2014" stroke-dashoffset="0" stroke-miterlimit="4" stroke-width="2" fill-rule="evenodd" fill="white"/>
        <rect id="rect2016" width="65.392929" height="73.896965" x="758.124671" y="40.863979" transform="matrix(1 0 0.465746 -0.884918 0 0)" stroke-dashoffset="0" stroke-miterlimit="4" stroke-width="2" fill-rule="evenodd" fill="white"/>
      </g>
      <path id="path2022" d="m52.441002,116.261002a9.83421,9.7744 0 1 1 -19.668503,2.431999a9.83421,9.7744 0 1 1 19.668503,-2.431999z" stroke-dashoffset="0" stroke-miterlimit="4" marker-end="none" marker-mid="none" marker-start="none" stroke-width="4" stroke="white" fill-rule="evenodd" fill="white"/>
      <path d="m17.458099,195.645996l474.195892,0" id="path2024" stroke-width="0.691591px" stroke="#ccc" fill-rule="evenodd" fill="none"/>
      <path id="path1950" d="m38.649502,377.332001l431.8895,0" stroke-width="4" stroke="white" fill-rule="evenodd" fill="none"/>
      <g id="g1984" transform="matrix(0.693704 0 0 0.689485 86.8173 194.413)">
        <path id="path1952" d="m113.625999,360.098999l0,-93.833984" stroke-width="3.999994" stroke="white" fill-rule="evenodd" fill="none"/>
        <path d="m370.088013,360.098999l0,-93.833984" id="path1954" stroke-width="3.999994" stroke="white" fill-rule="evenodd" fill="none"/>
      </g>
    </g>
    <metadata id="svg_32">image/svg+xml</metadata>
    <desc>Created with Raven (http://www.aviary.com)</desc>
    <defs>
      <linearGradient id="svg_29">
        <stop id="svg_31" offset="0" stop-color="#dc0000"/>
        <stop id="svg_30" offset="1" stop-color="#320000"/>
      </linearGradient>
      <linearGradient xlink:href="#svg_29" id="svg_27" x1="-0.014286" y1="0.5" x2="1.014286" y2="0.5"/>
    </defs>
    <g id="svg_28" transform="matrix(1.37658 0 0 1.37658 -83.6174 -146.62)"/>
    <g id="svg_3">
      <path d="m332.165009,286.337006c0,-42.456009 -37.049011,-76.873001 -82.751007,-76.873001c-45.703003,0 -82.751999,34.416992 -82.751999,76.873001c0,42.454987 37.048996,76.872009 82.751999,76.872009c45.701996,0 82.751007,-34.417023 82.751007,-76.872009z" id="svg_25" stroke-width="5" stroke-miterlimit="4" fill-opacity="0" fill="#ffffff" stroke="#00ff00"/>
      <text fill="#ff0000" stroke-width="0" stroke-dasharray="null" stroke-linecap="null" x="215.668223" y="255.168435" id="svg_35" font-size="24" font-family="Serif" text-anchor="middle" xml:space="preserve" stroke="#ff0000" transform="matrix(12.3307 0 0 4.55234 -2407.97 -842.811)">?</text>
      <g id="svg_2">
        <path d="m83.834999,283.488007m0,0l24.778999,0" id="svg_24" stroke-width="2" stroke-miterlimit="4" fill-opacity="0" fill="#ffffff" stroke="#ff0000"/>
        <path d="m96.509995,271.30899m0,0l0.102005,24.778015" id="svg_23" stroke-width="2" stroke-miterlimit="4" fill-opacity="0" fill="#ffffff" stroke="#ff0000"/>
        <path d="m106.548996,259.053986m0,0l24.778,0" id="svg_22" stroke-opacity="0.498039" stroke-width="2" stroke-miterlimit="4" fill-opacity="0" fill="#ffffff" stroke="#ff0000"/>
        <path d="m118.878998,246.875m0,0l0.102005,24.778015" id="svg_21" stroke-opacity="0.498039" stroke-width="2" stroke-miterlimit="4" fill-opacity="0" fill="#ffffff" stroke="#ff0000"/>
        <path d="m136.145004,253.890991m0,0l24.778992,0" id="svg_20" stroke-opacity="0.247059" stroke-width="2" stroke-miterlimit="4" fill-opacity="0" fill="#ffffff" stroke="#ff0000"/>
        <path d="m148.475998,241.712006m0,0l0.102005,24.778992" id="svg_19" stroke-opacity="0.247059" stroke-width="2" stroke-miterlimit="4" fill-opacity="0" fill="#ffffff" stroke="#ff0000"/>
      </g>
    </g>
  </g>
</svg>